<?xml version="1.0" encoding="utf-8"?>
<!-- Generator: Adobe Illustrator 16.0.0, SVG Export Plug-In . SVG Version: 6.00 Build 0)  -->
<!DOCTYPE svg PUBLIC "-//W3C//DTD SVG 1.1//EN" "http://www.w3.org/Graphics/SVG/1.1/DTD/svg11.dtd">
<svg version="1.1" id="Capa_1" xmlns="http://www.w3.org/2000/svg" xmlns:xlink="http://www.w3.org/1999/xlink" x="0px" y="0px"
	 width="100px" height="100px" viewBox="0 0 100 100" enable-background="new 0 0 100 100" xml:space="preserve">
<g>
	<path fill="#6B6B6B" d="M81.582,31.05c-1.657,0.802-2.352,2.796-1.549,4.451c2.189,4.524,3.3,9.4,3.3,14.499
		c0,18.38-14.953,33.333-33.333,33.333S16.667,68.38,16.667,50S31.62,16.667,50,16.667c7.616,0,14.771,2.486,20.693,7.191
		c1.437,1.146,3.537,0.905,4.684-0.535s0.906-3.538-0.535-4.684C67.83,13.068,59.008,10,50,10c-22.055,0-40,17.945-40,40
		s17.945,40,40,40s40-17.945,40-40c0-6.111-1.335-11.969-3.967-17.401C85.233,30.938,83.233,30.246,81.582,31.05z"/>
	<path fill="#6B6B6B" d="M50,23.333c-1.84,0-3.333,1.493-3.333,3.334V50c0,1.84,1.494,3.333,3.333,3.333h16.666
		C68.507,53.333,70,51.84,70,50s-1.493-3.333-3.334-3.333H53.334v-20C53.334,24.826,51.84,23.333,50,23.333z"/>
</g>
</svg>
