<?xml version="1.0" encoding="utf-8"?>
<!-- Generator: Adobe Illustrator 16.0.0, SVG Export Plug-In . SVG Version: 6.00 Build 0)  -->
<!DOCTYPE svg PUBLIC "-//W3C//DTD SVG 1.1//EN" "http://www.w3.org/Graphics/SVG/1.1/DTD/svg11.dtd">
<svg version="1.1" id="Capa_1" xmlns="http://www.w3.org/2000/svg" xmlns:xlink="http://www.w3.org/1999/xlink" x="0px" y="0px"
	 width="100px" height="100px" viewBox="0 0 100 100" enable-background="new 0 0 100 100" xml:space="preserve">
<g>
	<g>
		<g>
			<path fill="#6B6B6B" d="M81.428,18.572h-8.57v-5.714C72.857,11.28,71.578,10,70,10s-2.855,1.279-2.855,2.857v5.714H32.858v-5.714
				C32.858,11.28,31.579,10,30,10s-2.856,1.279-2.856,2.857v5.714h-8.572c-4.734,0-8.571,3.838-8.571,8.57v54.286
				C10,86.162,13.837,90,18.572,90h62.856C86.162,90,90,86.162,90,81.428V27.142C90,22.41,86.162,18.572,81.428,18.572z
				 M84.285,81.43c0,1.578-1.279,2.857-2.857,2.857H18.572c-1.578,0-2.857-1.279-2.857-2.857V44.286h68.573V81.43H84.285z
				 M84.285,38.572H15.713v-11.43c0-1.577,1.279-2.856,2.857-2.856h8.571V30c0,1.578,1.279,2.857,2.857,2.857
				s2.857-1.279,2.857-2.857v-5.715h34.284V30c0,1.578,1.279,2.857,2.857,2.857s2.857-1.279,2.857-2.857v-5.715h8.57
				c1.578,0,2.857,1.279,2.857,2.856v11.43H84.285z"/>
		</g>
	</g>
	<g>
		<g>
			<path fill="#6B6B6B" d="M32.857,50h-5.715c-1.577,0-2.856,1.279-2.856,2.857s1.279,2.855,2.856,2.855h5.715
				c1.577,0,2.856-1.277,2.856-2.855S34.434,50,32.857,50z"/>
		</g>
	</g>
	<g>
		<g>
			<path fill="#6B6B6B" d="M52.857,50h-5.715c-1.577,0-2.856,1.279-2.856,2.857s1.279,2.855,2.856,2.855h5.715
				c1.576,0,2.855-1.277,2.855-2.855S54.436,50,52.857,50z"/>
		</g>
	</g>
	<g>
		<g>
			<path fill="#6B6B6B" d="M72.857,50h-5.717c-1.576,0-2.855,1.279-2.855,2.857s1.279,2.855,2.855,2.855h5.717
				c1.576,0,2.855-1.277,2.855-2.855S74.434,50,72.857,50z"/>
		</g>
	</g>
	<g>
		<g>
			<path fill="#6B6B6B" d="M32.857,61.43h-5.715c-1.577,0-2.856,1.279-2.856,2.857s1.279,2.855,2.856,2.855h5.715
				c1.577,0,2.856-1.277,2.856-2.855S34.434,61.43,32.857,61.43z"/>
		</g>
	</g>
	<g>
		<g>
			<path fill="#6B6B6B" d="M52.857,61.43h-5.715c-1.577,0-2.856,1.279-2.856,2.857s1.279,2.855,2.856,2.855h5.715
				c1.576,0,2.855-1.277,2.855-2.855S54.436,61.43,52.857,61.43z"/>
		</g>
	</g>
	<g>
		<g>
			<path fill="#6B6B6B" d="M72.857,61.43h-5.717c-1.576,0-2.855,1.279-2.855,2.857s1.279,2.855,2.855,2.855h5.717
				c1.576,0,2.855-1.277,2.855-2.855S74.434,61.43,72.857,61.43z"/>
		</g>
	</g>
	<g>
		<g>
			<path fill="#6B6B6B" d="M32.857,72.857h-5.715c-1.577,0-2.856,1.279-2.856,2.855c0,1.578,1.279,2.857,2.856,2.857h5.715
				c1.577,0,2.856-1.279,2.856-2.857S34.434,72.857,32.857,72.857z"/>
		</g>
	</g>
	<g>
		<g>
			<path fill="#6B6B6B" d="M52.857,72.857h-5.715c-1.577,0-2.856,1.279-2.856,2.855c0,1.578,1.279,2.857,2.856,2.857h5.715
				c1.576,0,2.855-1.279,2.855-2.857C55.713,74.137,54.436,72.857,52.857,72.857z"/>
		</g>
	</g>
	<g>
		<g>
			<path fill="#6B6B6B" d="M72.857,72.857h-5.717c-1.576,0-2.855,1.279-2.855,2.855c0,1.578,1.279,2.857,2.855,2.857h5.717
				c1.576,0,2.855-1.279,2.855-2.857C75.713,74.137,74.434,72.857,72.857,72.857z"/>
		</g>
	</g>
</g>
</svg>
