<?xml version="1.0" encoding="utf-8"?>
<!-- Generator: Adobe Illustrator 16.0.0, SVG Export Plug-In . SVG Version: 6.00 Build 0)  -->
<!DOCTYPE svg PUBLIC "-//W3C//DTD SVG 1.1//EN" "http://www.w3.org/Graphics/SVG/1.1/DTD/svg11.dtd">
<svg version="1.1" id="Layer_1" xmlns="http://www.w3.org/2000/svg" xmlns:xlink="http://www.w3.org/1999/xlink" x="0px" y="0px"
	 width="100px" height="100px" viewBox="0 0 100 100" enable-background="new 0 0 100 100" xml:space="preserve">
<g id="Organization">
	<g>
		<g>
			<rect x="36.5" y="35" fill="#7CD8BF" width="2.999" height="3"/>
		</g>
	</g>
	<g>
		<g>
			<rect x="36.5" y="41" fill="#7CD8BF" width="2.999" height="3"/>
		</g>
	</g>
	<g>
		<g>
			<rect x="36.5" y="47.001" fill="#7CD8BF" width="2.999" height="2.999"/>
		</g>
	</g>
	<g>
		<g>
			<rect x="36.5" y="52.999" fill="#7CD8BF" width="2.999" height="3.002"/>
		</g>
	</g>
	<g>
		<g>
			<rect x="42.501" y="35" fill="#7CD8BF" width="2.999" height="3"/>
		</g>
	</g>
	<g>
		<g>
			<rect x="42.501" y="41" fill="#7CD8BF" width="2.999" height="3"/>
		</g>
	</g>
	<g>
		<g>
			<rect x="42.501" y="47.001" fill="#7CD8BF" width="2.999" height="2.999"/>
		</g>
	</g>
	<g>
		<g>
			<rect x="42.501" y="52.999" fill="#7CD8BF" width="2.999" height="3.002"/>
		</g>
	</g>
	<g>
		<g>
			<rect x="48.499" y="35" fill="#7CD8BF" width="3.002" height="3"/>
		</g>
	</g>
	<g>
		<g>
			<rect x="48.499" y="41" fill="#7CD8BF" width="3.002" height="3"/>
		</g>
	</g>
	<g>
		<g>
			<rect x="48.499" y="47.001" fill="#7CD8BF" width="3.002" height="2.999"/>
		</g>
	</g>
	<g>
		<g>
			<rect x="48.499" y="52.999" fill="#7CD8BF" width="3.002" height="3.002"/>
		</g>
	</g>
	<g>
		<g>
			<rect x="54.5" y="35" fill="#7CD8BF" width="2.999" height="3"/>
		</g>
	</g>
	<g>
		<g>
			<rect x="42.501" y="29" fill="#7CD8BF" width="2.999" height="3"/>
		</g>
	</g>
	<g>
		<g>
			<rect x="48.499" y="29" fill="#7CD8BF" width="3.002" height="3"/>
		</g>
	</g>
	<g>
		<g>
			<rect x="54.5" y="29" fill="#7CD8BF" width="2.999" height="3"/>
		</g>
	</g>
	<g>
		<g>
			<rect x="54.5" y="41" fill="#7CD8BF" width="2.999" height="3"/>
		</g>
	</g>
	<g>
		<g>
			<rect x="54.5" y="47.001" fill="#7CD8BF" width="2.999" height="2.999"/>
		</g>
	</g>
	<g>
		<g>
			<rect x="54.5" y="52.999" fill="#7CD8BF" width="2.999" height="3.002"/>
		</g>
	</g>
	<g>
		<g>
			<rect x="60.501" y="35" fill="#7CD8BF" width="2.999" height="3"/>
		</g>
	</g>
	<g>
		<g>
			<rect x="60.501" y="41" fill="#7CD8BF" width="2.999" height="3"/>
		</g>
	</g>
	<g>
		<g>
			<rect x="60.501" y="47.001" fill="#7CD8BF" width="2.999" height="2.999"/>
		</g>
	</g>
	<g>
		<g>
			<rect x="60.501" y="52.999" fill="#7CD8BF" width="2.999" height="3.002"/>
		</g>
	</g>
	<g>
		<g>
			<path fill="#7CD8BF" d="M93.502,27.5c0,0-0.001,0-0.003,0h-22.5v-21c0.002-0.828-0.668-1.5-1.498-1.5l0,0H30.5
				C29.672,4.999,29,5.67,29,6.499c0,0,0,0.001,0,0.002v21H6.5c-0.828-0.001-1.5,0.67-1.5,1.499C5,28.999,5,29,5,29v54
				c-0.001,0.826,0.67,1.498,1.499,1.498c0,0,0.001,0,0.002,0h3.135C9.548,84.994,9.503,85.497,9.5,86v7.499
				C9.499,94.328,10.17,95,10.999,95c0,0,0.001,0,0.002,0h77.999c0.829,0,1.501-0.672,1.501-1.498c0,0,0-0.001,0-0.003V86
				c-0.004-0.503-0.049-1.006-0.136-1.501h3.135C94.328,84.501,95,83.831,95,83.001l0,0V29C95,28.172,94.328,27.501,93.502,27.5z
				 M69.501,69.501c0,1.656-1.343,2.999-3.002,2.999c-1.656,0-2.999-1.343-2.999-2.999c0-1.659,1.343-3.002,2.999-3.002
				C68.156,66.502,69.498,67.844,69.501,69.501z M33.5,66.499c1.657,0,3,1.343,3,3.002c0,1.656-1.343,2.999-3,2.999
				c-1.658,0-3.001-1.343-3.001-2.999C30.502,67.844,31.844,66.502,33.5,66.499z M24.5,92.001H12.5V86c0-3.313,2.687-6.001,6-6.001
				s6,2.688,6,6.001V92.001z M15.5,74.001c0-1.659,1.343-3.002,3-3.002s3,1.343,3,3.002c0,1.656-1.343,2.999-3,2.999
				C16.844,76.998,15.502,75.657,15.5,74.001z M24.727,79.518c-0.565-0.545-1.2-1.017-1.887-1.396
				c2.288-2.397,2.2-6.196-0.197-8.482c-2.397-2.289-6.195-2.201-8.483,0.196c-2.213,2.318-2.213,5.966,0,8.286
				c-1.432,0.795-2.622,1.962-3.443,3.379H8v-51H29v35.075c-2.061,2.31-1.991,5.818,0.159,8.047
				C26.909,74.866,25.297,77.011,24.727,79.518z M39.499,92.001H27.5V81.5c0-3.313,2.686-6.001,6-6.001
				c3.313,0,5.999,2.688,5.999,6.001V92.001z M57.499,92.001H42.501V81.5c0-4.142,3.357-7.499,7.499-7.499s7.499,3.357,7.499,7.499
				V92.001z M45.5,66.499c0-2.484,2.015-4.5,4.5-4.5s4.5,2.016,4.5,4.5c0,2.485-2.015,4.5-4.5,4.5
				C47.517,70.997,45.504,68.984,45.5,66.499z M59.136,76.343c-1.004-1.771-2.498-3.214-4.306-4.155
				c3.17-2.669,3.576-7.4,0.907-10.568c-2.668-3.168-7.4-3.572-10.567-0.903c-3.17,2.668-3.576,7.4-0.907,10.567
				c0.275,0.327,0.58,0.63,0.907,0.904c-1.808,0.941-3.302,2.385-4.305,4.155c-0.79-1.125-1.823-2.057-3.024-2.722
				c2.298-2.354,2.256-6.124-0.096-8.425c-1.515-1.48-3.702-2.044-5.745-1.483V8h36v55.713c-0.488-0.136-0.993-0.206-1.501-0.213
				c-3.305-0.009-5.991,2.663-5.998,5.97c-0.005,1.545,0.591,3.034,1.659,4.151C60.958,74.286,59.925,75.218,59.136,76.343z
				 M72.5,86v6.001H60.501V81.5c0-3.313,2.687-6.001,5.998-6.001c3.315,0,6.001,2.688,6.001,6.001V86z M87.501,92.001H75.499V86
				c0-3.313,2.688-6.001,6.001-6.001s6.001,2.688,6.001,6.001V92.001z M78.501,74.001c0-1.659,1.343-3.002,2.999-3.002
				s2.999,1.343,2.999,3.002c0,1.656-1.343,2.999-2.999,2.999C79.844,76.998,78.501,75.657,78.501,74.001z M92.001,81.5h-2.718
				c-0.822-1.417-2.011-2.584-3.443-3.379c2.287-2.397,2.199-6.196-0.196-8.482c-2.398-2.289-6.196-2.201-8.483,0.196
				c-2.213,2.318-2.213,5.966,0,8.286c-0.688,0.38-1.322,0.852-1.887,1.396c-0.571-2.507-2.183-4.651-4.433-5.896
				c2.149-2.229,2.218-5.737,0.16-8.049V30.5h21V81.5L92.001,81.5z"/>
		</g>
	</g>
	<g>
		<g>
			<rect x="75.499" y="39.5" fill="#7CD8BF" width="3.002" height="24"/>
		</g>
	</g>
	<g>
		<g>
			<rect x="84.499" y="39.5" fill="#7CD8BF" width="3.002" height="24"/>
		</g>
	</g>
	<g>
		<g>
			<rect x="12.5" y="39.5" fill="#7CD8BF" width="3.001" height="24"/>
		</g>
	</g>
	<g>
		<g>
			<rect x="21.5" y="39.5" fill="#7CD8BF" width="3.001" height="24"/>
		</g>
	</g>
	<g>
		<g>
			<path fill="#7CD8BF" d="M59.002,11C59,11,59,11,59,11H41c-0.828-0.001-1.5,0.669-1.501,1.498c0,0.001,0,0.001,0,0.001V24.5
				c0,0.828,0.671,1.499,1.499,1.499C41,26,41,26,41,26h18c0.828,0.001,1.499-0.669,1.501-1.498c0-0.001,0-0.001,0-0.001V12.5
				C60.501,11.672,59.83,11,59.002,11z M57.499,23H42.501v-9h14.998V23z"/>
		</g>
	</g>
</g>
</svg>
