<?xml version="1.0" encoding="utf-8"?>
<!-- Generator: Adobe Illustrator 16.0.0, SVG Export Plug-In . SVG Version: 6.00 Build 0)  -->
<!DOCTYPE svg PUBLIC "-//W3C//DTD SVG 1.1//EN" "http://www.w3.org/Graphics/SVG/1.1/DTD/svg11.dtd">
<svg version="1.1" id="Layer_1" xmlns="http://www.w3.org/2000/svg" xmlns:xlink="http://www.w3.org/1999/xlink" x="0px" y="0px"
	 width="100px" height="100px" viewBox="0 0 100 100" enable-background="new 0 0 100 100" xml:space="preserve">
<g id="Freelance_2_">
	<path fill="#FFFA9A" d="M16.12,44.841l1.097-0.958v48.48h-2.461c-0.728,0-1.318,0.59-1.318,1.318c0,0.728,0.59,1.318,1.318,1.318
		h53.771c0.729,0,1.318-0.591,1.318-1.318c0-0.729-0.59-1.318-1.318-1.318c-1.967,0-7.281,0-9.496,0
		c-1.359,0-2.466-1.104-2.472-2.462c32.192,0,31.535-0.011,31.972-0.011c0,1.363-1.108,2.473-2.472,2.473H74.68
		c-0.729,0-1.318,0.59-1.318,1.318c0,0.728,0.59,1.318,1.318,1.318h11.379c2.816,0,5.108-2.292,5.108-5.109
		c0-1.338-1.01-2.626-2.798-2.626c0.268-0.578,0.418-1.222,0.418-1.9V68.479c0-2.501-2.035-4.536-4.536-4.536h-1.467v-7.015
		c0-0.729-0.591-1.318-1.318-1.318c-0.729,0-1.318,0.59-1.318,1.318v7.015h-19.31c-1.159,0-2.218,0.438-3.021,1.156l-1.609-0.624
		l-0.001-1.791c2.726-1.917,4.512-5.083,4.512-8.661v-4.649c1.041-0.467,1.769-1.511,1.769-2.724v-7.052
		c0-1.148-0.466-2.214-1.313-2.998c-0.826-0.766-1.917-1.157-2.996-1.074c-0.157,0.012-0.332-0.059-0.362-0.219
		c-0.496-2.532-2.15-3.816-4.919-3.816H43.63c-4.123,0-7.476,3.354-7.476,7.476v6.758c0,1.889,1.345,3.469,3.127,3.832v4.467
		c0,3.279,1.614,6.627,4.506,8.656v1.759l-12.075,4.716c-0.007,0.003-0.015,0.006-0.022,0.009c-2.696,1.11-5.598,4.285-5.598,8.636
		v14.565h-6.239V41.578L50,15.23l30.148,26.348v9.197c0,0.728,0.59,1.318,1.318,1.318c0.728,0,1.318-0.591,1.318-1.318v-6.893
		l1.097,0.958c1.824,1.595,4.606,1.407,6.2-0.417c1.599-1.828,1.412-4.602-0.417-6.2l-6.881-6.014V12.513h0.35
		c1.312,0,2.38-1.067,2.38-2.38V7.379c0-1.312-1.067-2.379-2.38-2.379H70.958c-1.312,0-2.379,1.067-2.379,2.379v2.754
		c0,1.312,1.067,2.38,2.379,2.38h0.35v9.667L52.893,6.085c-1.648-1.44-4.135-1.44-5.785,0L10.336,38.224
		c-1.829,1.598-2.016,4.371-0.417,6.2C11.515,46.25,14.297,46.435,16.12,44.841L16.12,44.841z M58.938,68.479
		c0-1.037,0.845-1.899,1.899-1.899h23.413c1.047,0,1.899,0.852,1.899,1.899v16.886c0,1.048-0.853,1.9-1.899,1.9H60.838
		c-1.047,0-1.899-0.853-1.899-1.9V68.479z M40.065,46.998c-0.703,0-1.274-0.571-1.274-1.274v-6.758c0-2.668,2.171-4.839,4.839-4.839
		h9.266c1.854,0,2.144,0.73,2.331,1.687c0.284,1.45,1.64,2.457,3.152,2.341c0.342-0.027,0.717,0.115,1.003,0.38
		c0.175,0.162,0.468,0.516,0.468,1.064v7.052c0,0.773-2.04,0.242-2.2-1.329c-0.021-0.208,0.023-0.505-0.19-0.896
		c-0.564-1.033-2.056-1.023-2.608,0.011c-0.848,1.585-2.486,2.562-4.27,2.562C48.767,46.998,41.196,46.998,40.065,46.998
		L40.065,46.998z M41.918,54.022v-4.388h8.663c1.912,0,3.761-0.736,5.147-2.053c0.551,0.847,1.378,1.497,2.354,1.823v4.617
		c0,4.4-3.587,7.948-7.948,7.948C45.225,61.971,41.918,58.158,41.918,54.022L41.918,54.022z M54.978,66.826
		c0.046,0.018,0.372,0.145,0.417,0.162c-3.079,3.139-8.092,2.764-10.819-0.028l0.633-0.247c0.48-0.188,1.216-0.85,1.216-1.943
		v-0.758c2.15,0.729,4.756,0.843,7.146,0.021v0.739v0.007C53.573,65.693,54.126,66.497,54.978,66.826z M28.729,77.798
		c0-3.343,2.361-5.532,3.955-6.193l9.286-3.626c3.411,4.382,9.984,5.139,14.332,1.731v15.655c0,0.655,0.147,1.315,0.417,1.899
		c-1.795,0-2.797,1.299-2.797,2.626c0,0.889,0.241,1.764,0.639,2.473H36.936c0-1.435,0-12.987,0-14.616
		c0-0.728-0.59-1.318-1.318-1.318c-0.729,0-1.318,0.591-1.318,1.318v4.157h-5.57L28.729,77.798L28.729,77.798z M28.729,84.541h5.569
		v7.822h-5.569V84.541z M71.216,9.876V7.637h11.66v2.239C81.488,9.876,72.559,9.876,71.216,9.876z M80.147,12.513v17.393
		l-6.203-5.421V12.513H80.147z M12.071,40.208L48.843,8.071c0.659-0.577,1.654-0.577,2.314,0
		c1.638,1.432,35.175,30.742,36.771,32.138c0.731,0.64,0.807,1.748,0.167,2.479c-0.638,0.729-1.751,0.805-2.48,0.167
		c-1.442-1.261-32.814-28.679-34.261-29.943c-0.771-0.674-1.936-0.675-2.708,0L14.385,42.855c-0.729,0.638-1.842,0.562-2.48-0.167
		C11.266,41.958,11.338,40.849,12.071,40.208L12.071,40.208z"/>
	<path fill="#FFFA9A" d="M71.603,78.239h1.884c0.729,0,1.318-0.59,1.318-1.318c0-0.728-0.59-1.318-1.318-1.318h-1.884
		c-0.729,0-1.318,0.591-1.318,1.318C70.284,77.649,70.875,78.239,71.603,78.239z"/>
</g>
</svg>
