<?xml version="1.0" encoding="utf-8"?>
<!-- Generator: Adobe Illustrator 16.0.0, SVG Export Plug-In . SVG Version: 6.00 Build 0)  -->
<!DOCTYPE svg PUBLIC "-//W3C//DTD SVG 1.1//EN" "http://www.w3.org/Graphics/SVG/1.1/DTD/svg11.dtd">
<svg version="1.1" id="Layer_1" xmlns="http://www.w3.org/2000/svg" xmlns:xlink="http://www.w3.org/1999/xlink" x="0px" y="0px"
	 width="100px" height="100px" viewBox="0 0 100 100" enable-background="new 0 0 100 100" xml:space="preserve">
<g id="Consultation">
	<path fill="#390064" d="M95.49,39.2c-0.051-0.263-0.098-0.528-0.145-0.792c-0.104-0.584-0.21-1.188-0.37-1.779
		c-1.67-6.166-7.143-10.323-13.618-10.343c-2.638-0.008-5.273-0.011-7.911-0.011l-12.403,0.006c-0.01-0.199-0.019-0.396-0.027-0.592
		c-0.033-0.756-0.063-1.47-0.167-2.195c-1.043-7.282-6.683-12.195-14.033-12.227c-9.371-0.039-18.743-0.032-28.114-0.001
		c-6.316,0.021-11.63,3.825-13.54,9.691c-0.194,0.596-0.33,1.208-0.462,1.801C4.64,23.029,4.58,23.3,4.514,23.569L4.5,44.64
		l0.16,0.813c0.108,0.525,0.216,1.05,0.356,1.565c1.64,6.03,7.125,10.242,13.338,10.242l0.72-0.006l0.426,0.002v9.79l0.002,0.496
		c-0.004,0.48-0.006,0.961,0.03,1.438c0.077,1.032,0.896,1.811,1.903,1.811c0.242,0,0.482-0.046,0.714-0.138
		c0.44-0.174,0.812-0.509,1.117-0.813c2.325-2.318,4.647-4.642,6.969-6.965l5.262-5.261l0.071-0.073
		c0.081-0.082,0.23-0.234,0.251-0.254c0.58-0.023,1.16-0.029,1.735-0.029l1.368,0.005c0.021,0.287,0.042,0.57,0.061,0.851
		c0.065,0.941,0.127,1.83,0.272,2.729c0.96,5.932,6.113,10.786,11.985,11.291c1.407,0.121,2.906,0.181,4.585,0.181
		c1.161,0,2.323-0.028,3.48-0.07l0.221-0.005c1.198,0,2.063,0.387,2.987,1.335c3.974,4.078,8.079,8.158,12.05,12.104l2.201,2.188
		c0.326,0.325,0.837,0.736,1.417,0.85c0.154,0.03,0.302,0.045,0.443,0.045c1.11,0,1.363-0.889,1.365-2.212
		c0.006-3.404-0.49-6.808-0.49-10.211V72.5h1.479l0.529-0.111c6.366-0.092,11.778-4.277,13.469-10.334
		c0.148-0.531,0.256-1.102,0.363-1.645c0.048-0.244,0.096-0.502,0.148-0.745l0.011-0.059L95.49,39.2z M38.5,49.409v3.807
		c0,0.022,0,0.044,0,0.066l-1.706,0.007c-0.552,0-0.979-0.004-1.602-0.018c-0.771,0-1.336,0.269-1.909,0.846
		c-2.65,2.668-5.783,5.322-8.445,7.977L22.5,63.957v-2.274c0-2.01,0.501-4.019,0.498-6.028c-0.002-1.607-0.455-2.319-2.103-2.382
		c-0.448-0.017-0.774-0.021-1.227-0.025c-1.227-0.013-2.432-0.025-3.586-0.301c-4.62-1.103-7.59-4.982-7.618-9.884
		C8.429,36.59,8.445,30.797,8.482,25.351c0.034-4.878,3.15-8.734,7.927-9.824c0.629-0.144,1.352-0.211,2.265-0.212
		c5.514-0.009,11.028-0.017,16.542-0.017c3.86,0,7.723,0.004,11.583,0.015c4.944,0.014,8.837,3.094,9.919,7.848
		c0.171,0.758,0.225,1.669,0.28,2.516c0.016,0.235,0.032,0.824,0.051,0.824h-0.146l-0.345-0.107
		c-0.345,0.009-0.688-0.045-1.033-0.045l-1.379-0.031c-1.377,0-2.978,0.017-4.547,0.39c-6.119,1.45-10.932,7.286-10.869,13.585
		C38.761,43.332,38.5,46.367,38.5,49.409z M59.385,68.403c-0.72,0.004-1.44-0.044-2.16-0.044c-1.474,0-3.411-0.041-5.331-0.157
		c-4.638-0.279-8.766-4.606-8.833-9.244c-0.083-5.714-0.091-11.902-0.024-18.902c0.042-4.455,2.998-8.232,7.354-9.395
		c0.923-0.246,1.958-0.38,2.994-0.384c9.256-0.029,18.511-0.027,27.763-0.013c5.293,0.008,9.294,3.326,10.195,8.452
		c0.105,0.601,0.16,1.254,0.162,1.942c0.013,5.763,0.02,11.527,0.004,17.29c-0.016,5.18-3.41,9.354-8.254,10.149
		c-1.047,0.172-2.16,0.18-3.235,0.188c-0.395,0.003-1.288,0.006-1.68,0.016C76.7,68.343,75.5,69.056,75.5,70.685v11.276
		l-4.426-4.929c-2.586-2.586-4.921-5.066-7.492-7.666c-0.653-0.662-1.146-0.866-2.089-0.866h-0.005
		C60.787,68.5,60.086,68.399,59.385,68.403z M61.493,68.791L61.493,68.791L61.493,68.791L61.493,68.791z"/>
	<path fill="#390064" d="M48.988,41.958c0.441,0.214,0.971,0.431,1.49,0.432c3.417,0.011,6.834,0.11,10.251,0.11h6.473h6.713
		c3.36,0,6.722-0.1,10.081-0.111c0.54-0.001,1.108-0.182,1.56-0.41c0.713-0.361,1.062-1.141,0.909-1.996
		c-0.146-0.831-0.649-1.284-1.418-1.479c-0.284-0.071-0.597-0.004-0.955-0.004H66.321l-15.887-0.118
		c-0.266,0.001-0.615-0.047-0.955,0.041c-0.812,0.208-1.327,0.765-1.45,1.625C47.906,40.91,48.264,41.605,48.988,41.958z"/>
	<path fill="#390064" d="M84.629,47.276c-0.143-0.016-0.287,0.101-0.433,0.101L83.873,47.5H67.221l-16.652-0.118
		c-0.324,0-0.669-0.055-1.013,0.021c-0.85,0.186-1.407,0.77-1.528,1.658c-0.123,0.913,0.292,1.65,1.11,2
		c0.391,0.166,0.869,0.244,1.42,0.244c6.765,0.007,13.528,0.103,20.293,0.103L83.934,51.5h0.208c0.221,0,0.442-0.105,0.656-0.146
		c1.021-0.197,1.72-1.077,1.696-2.072C86.468,48.25,85.701,47.396,84.629,47.276z"/>
	<path fill="#390064" d="M84.061,60.297c0.331,0,0.822-0.042,1.284-0.241c0.806-0.349,1.221-1.07,1.14-1.981
		c-0.078-0.865-0.734-1.584-1.597-1.748c-0.353-0.066-0.712-0.066-1.001-0.066l-9.936-0.002L50.58,56.261
		c-0.332,0.001-0.718,0.01-1.089,0.1c-0.815,0.196-1.334,0.783-1.461,1.651c-0.125,0.853,0.229,1.578,0.946,1.941
		c0.427,0.216,0.947,0.34,1.427,0.34c5.923,0.008,11.845,0.012,17.768,0.012C73.467,60.305,78.765,60.302,84.061,60.297z"/>
	<path fill="#390064" d="M45.309,27.394c0.13,0,0.26-0.06,0.386-0.077c0.655-0.087,1.215-0.48,1.536-1.032
		c0.301-0.517,0.345-1.043,0.121-1.598c-0.514-1.27-1.736-1.187-2.16-1.187c-0.001,0-0.003,0-0.005,0
		c-2.619,0-5.238,0.006-7.856,0.006L29.722,23.5H14.606h-0.274c-0.183,0-0.366-0.094-0.545-0.076
		c-0.896,0.085-1.562,0.647-1.735,1.545c-0.173,0.891,0.179,1.623,0.943,1.998c0.427,0.21,0.956,0.424,1.491,0.425
		c6.636,0.01,13.271,0.108,19.907,0.108h10.606L45.309,27.394z"/>
	<path fill="#390064" d="M36.32,32.308c-1.635-0.003-3.27,0.093-4.905,0.093L25.282,32.5h-5.378h-5.378h-0.272
		c-0.191,0-0.383-0.093-0.571-0.065c-0.82,0.117-1.392,0.599-1.61,1.446c-0.218,0.847,0.084,1.597,0.788,1.998
		c0.456,0.26,1.025,0.508,1.563,0.509c4.411,0.013,8.821,0.112,13.232,0.112h8.422l0.245-0.107c0.129,0,0.258-0.06,0.383-0.077
		c0.938-0.127,1.668-0.88,1.776-1.794c0.065-0.545-0.096-1.081-0.453-1.484C37.623,32.578,37.016,32.31,36.32,32.308z"/>
	<path fill="#390064" d="M36.133,41.683c-0.494-0.312-1.122-0.363-1.453-0.366c-1.855-0.012-3.71,0.083-5.565,0.083l-4.552,0.1
		h-3.274l-3.258-0.097l-2.037-0.053c-0.682,0-1.365-0.021-2.047-0.008c-0.995,0.019-1.768,0.691-1.923,1.689
		c-0.146,0.93,0.409,1.795,1.349,2.112c0.358,0.121,0.733,0.245,1.054,0.246c4.035,0.003,8.069,0.11,12.104,0.11h8.055l0.278-0.105
		c0.126,0,0.252-0.062,0.375-0.085c0.893-0.168,1.479-0.71,1.694-1.515C37.155,42.959,36.848,42.133,36.133,41.683z"/>
</g>
</svg>
