<?xml version="1.0" encoding="utf-8"?>
<!-- Generator: Adobe Illustrator 16.0.0, SVG Export Plug-In . SVG Version: 6.00 Build 0)  -->
<!DOCTYPE svg PUBLIC "-//W3C//DTD SVG 1.1//EN" "http://www.w3.org/Graphics/SVG/1.1/DTD/svg11.dtd">
<svg version="1.1" id="Layer_1" xmlns="http://www.w3.org/2000/svg" xmlns:xlink="http://www.w3.org/1999/xlink" x="0px" y="0px"
	 width="100px" height="100px" viewBox="0 0 100 100" enable-background="new 0 0 100 100" xml:space="preserve">
<g id="Sports_Coaching">
	<path fill="#390064" d="M79.903,46.095c-0.674-0.067-12.884-1.288-13.89-1.389c1.594-2.565,2.516-5.588,2.516-8.824
		c-0.006-14.839,0.015-14.099-0.016-14.832c3.01,0.419,8.019,1.834,11.018,6.547l4.467-2.842
		c-4.838-7.601-13.148-8.924-16.635-9.135C64.907,9.407,58.841,5,51.765,5h-3.529c-9.244,0-16.765,7.521-16.765,16.765v14.118
		c0,3.332,0.977,6.439,2.66,9.052l-13.883,1.262C11.619,46.98,5,54.215,5,62.893V95h90c0-1.758,0-29.352,0-32.224
		C95,54.171,88.48,46.952,79.903,46.095z M50,68.529c1.459,0,2.646,1.188,2.646,2.647c0,1.459-1.188,2.646-2.646,2.646
		c-1.459,0-2.647-1.188-2.647-2.646C47.353,69.717,48.541,68.529,50,68.529z M52.055,63.507c-1.346-0.361-2.76-0.362-4.11,0
		l-6.18-12.159c1.992,0.836,4.178,1.3,6.471,1.3h3.529c2.292,0,4.479-0.464,6.472-1.3L52.055,63.507z M36.802,20.882h26.396
		c0.071,0.921,0.023,0.12,0.037,15c0,6.325-5.145,11.47-11.47,11.47h-3.529c-6.325,0-11.471-5.146-11.471-11.47
		C36.78,21.147,36.73,21.816,36.802,20.882z M48.235,10.294h3.529c4.052,0,7.617,2.114,9.658,5.294H38.577
		C40.619,12.408,44.184,10.294,48.235,10.294L48.235,10.294z M10.294,89.706V79.118h10.588v10.588H10.294z M89.706,89.706H79.117
		V79.118h10.589V89.706z M73.824,73.823v15.883H26.176V73.823H10.294V62.893c0-5.972,4.485-10.883,10.432-11.424l14.492-1.317
		l8.335,16.397c-0.939,1.304-1.494,2.901-1.494,4.628c0,4.379,3.562,7.941,7.941,7.941c0.928,0,1.818-0.162,2.646-0.456v5.75h5.295
		V71.177c0-1.727-0.556-3.324-1.494-4.628L64.859,50h0.891l13.627,1.362c5.889,0.589,10.329,5.496,10.329,11.414v11.047H73.824z"/>
</g>
</svg>
