<?xml version="1.0" encoding="utf-8"?>
<!-- Generator: Adobe Illustrator 16.0.0, SVG Export Plug-In . SVG Version: 6.00 Build 0)  -->
<!DOCTYPE svg PUBLIC "-//W3C//DTD SVG 1.1//EN" "http://www.w3.org/Graphics/SVG/1.1/DTD/svg11.dtd">
<svg version="1.1" id="Layer_1" xmlns="http://www.w3.org/2000/svg" xmlns:xlink="http://www.w3.org/1999/xlink" x="0px" y="0px"
	 width="100px" height="100px" viewBox="0 0 100 100" enable-background="new 0 0 100 100" xml:space="preserve">
<path id="Engineering_1_" fill="#390064" d="M95,55.273c0-3.52-2.393-6.444-5.512-7.489c-0.43-7.875-3.15-15.315-7.938-21.638
	c-2.459-3.249-5.424-6.097-8.738-8.44c-0.14-0.121-0.291-0.228-0.453-0.317c-2.844-1.953-5.934-3.536-9.182-4.687
	C63.067,8.437,59.565,5,55.273,5H44.727c-4.291,0-7.793,3.437-7.904,7.702c-3.247,1.151-6.338,2.734-9.181,4.687
	c-0.164,0.089-0.314,0.196-0.455,0.316c-3.314,2.344-6.277,5.192-8.738,8.441c-4.787,6.322-7.508,13.763-7.938,21.637
	C7.402,48.826,5,51.742,5,55.273c0,2.125,0.869,4.126,2.447,5.635c1.446,1.383,3.308,2.18,5.275,2.267
	c0.958,2.724,2.209,5.325,3.737,7.769l-2.281,3.802c-0.622,1.038-0.459,2.366,0.397,3.222l7.458,7.457
	c0.855,0.855,2.184,1.02,3.221,0.396l3.801-2.28c3.708,2.321,7.739,3.987,12.022,4.972l1.086,4.474
	C42.451,94.168,43.51,95,44.727,95h10.547c1.217,0,2.275-0.832,2.562-2.015l1.086-4.474c4.284-0.984,8.315-2.65,12.023-4.972
	l3.801,2.28c1.037,0.623,2.365,0.459,3.221-0.396l7.458-7.457c0.855-0.855,1.019-2.184,0.396-3.222l-2.28-3.802
	c1.528-2.443,2.779-5.045,3.737-7.769C91.479,62.988,95,59.538,95,55.273z M26.27,25.279v8.796c0,1.354,0.992,2.54,2.337,2.689
	c1.59,0.175,2.936-1.065,2.936-2.62V21.128c1.66-1.07,3.423-2.002,5.273-2.777V34.11c0,1.354,0.992,2.541,2.338,2.689
	c1.59,0.175,2.936-1.065,2.936-2.62V12.91c0-1.457,1.182-2.637,2.637-2.637h10.547c1.457,0,2.637,1.18,2.637,2.637v21.2
	c0,1.354,0.992,2.541,2.338,2.689c1.59,0.175,2.936-1.065,2.936-2.62V18.352c1.851,0.775,3.613,1.707,5.273,2.777v12.947
	c0,1.354,0.992,2.54,2.338,2.689c1.59,0.175,2.936-1.065,2.936-2.62v-8.865c5.943,5.747,9.778,13.607,10.442,22.084H15.827
	C16.492,38.887,20.327,31.026,26.27,25.279z M10.537,55.256c0-1.395,1.305-2.619,2.793-2.619h0.001h0H86.67
	c1.488,0,2.793,1.225,2.793,2.619c0,1.396-1.305,2.654-2.793,2.654c-1.503,0-72.296,0-73.339,0
	C11.842,57.91,10.537,56.651,10.537,55.256z M69.723,63.184C65.362,69.697,58.001,73.73,50,73.73s-15.362-4.033-19.723-10.547
	H69.723z M75.693,80.24l-3.454-2.073c-0.886-0.532-1.999-0.497-2.851,0.088c-3.953,2.718-8.365,4.542-13.115,5.422
	c-1.021,0.188-1.837,0.96-2.082,1.97l-0.991,4.08h-6.399l-0.991-4.079c-0.245-1.011-1.061-1.782-2.083-1.971
	c-4.749-0.88-9.162-2.704-13.115-5.421c-0.851-0.586-1.964-0.621-2.851-0.089l-3.454,2.073l-4.546-4.547l2.073-3.455
	c0.532-0.885,0.497-2-0.088-2.85c-1.34-1.949-2.468-4.026-3.372-6.205h5.797c4.944,9.666,14.898,15.82,25.83,15.82
	s20.887-6.155,25.831-15.82h5.796c-0.904,2.179-2.031,4.256-3.371,6.205c-0.586,0.85-0.619,1.965-0.089,2.85l2.073,3.455
	L75.693,80.24z"/>
</svg>
