<?xml version="1.0" encoding="utf-8"?>
<!-- Generator: Adobe Illustrator 16.0.0, SVG Export Plug-In . SVG Version: 6.00 Build 0)  -->
<!DOCTYPE svg PUBLIC "-//W3C//DTD SVG 1.1//EN" "http://www.w3.org/Graphics/SVG/1.1/DTD/svg11.dtd">
<svg version="1.1" id="Layer_1" xmlns="http://www.w3.org/2000/svg" xmlns:xlink="http://www.w3.org/1999/xlink" x="0px" y="0px"
	 width="100px" height="100px" viewBox="0 0 100 100" enable-background="new 0 0 100 100" xml:space="preserve">
<path id="Finance" fill="#390064" d="M92.003,49.67v14.602c-0.173,4.354-6.391,4.351-6.562,0v-6.482L74.996,68.231
	c-0.615,0.616-1.449,0.963-2.32,0.963H56.118L34.273,91.038c-1.281,1.282-3.359,1.282-4.641,0s-1.281-3.358,0-4.641l22.806-22.806
	c0.615-0.615,1.45-0.961,2.32-0.961h16.558l9.681-9.681h-7.042c-4.354-0.173-4.351-6.389,0-6.562h14.767
	C90.534,46.389,92.003,47.858,92.003,49.67z M88.722,74.116c-1.812,0-3.281,1.468-3.281,3.281v11.32c0.173,4.354,6.39,4.351,6.562,0
	v-11.32C92.003,75.584,90.534,74.116,88.722,74.116z M75.596,74.116c-1.812,0-3.281,1.468-3.281,3.281v11.32
	c0.173,4.354,6.391,4.351,6.562,0v-11.32C78.877,75.584,77.409,74.116,75.596,74.116z M62.47,74.116c-1.812,0-3.28,1.468-3.28,3.281
	v11.32c0.173,4.354,6.391,4.351,6.562,0v-11.32C65.751,75.584,64.283,74.116,62.47,74.116z M49.345,84.125
	c-1.812,0-3.282,1.468-3.282,3.28v1.312c0.173,4.354,6.391,4.351,6.563,0v-1.312C52.626,85.593,51.157,84.125,49.345,84.125z
	 M42.618,63.615c1.812,0,3.281-1.469,3.281-3.281v-2.016c10.287-3.808,7.803-18.938-3.281-19.148c-4.363-0.179-4.342-6.36,0-6.54
	c1.318,0,2.37,0.697,2.886,1.916c0.708,1.667,2.634,2.445,4.303,1.738c1.668-0.708,2.445-2.636,1.738-4.303
	c-1.099-2.588-3.14-4.48-5.646-5.361v-2.217c-0.173-4.354-6.39-4.35-6.563,0v2.227c-10.271,3.808-7.821,18.892,3.282,19.103
	c4.338,0.179,4.366,6.405,0,6.585c-1.276,0-2.542-0.832-3.078-2.024c-0.743-1.653-2.685-2.39-4.338-1.647
	c-1.653,0.743-2.391,2.685-1.648,4.337c1.12,2.491,3.266,4.406,5.782,5.315v2.035C39.336,62.146,40.805,63.615,42.618,63.615
	L42.618,63.615z M31.296,74.85c1.32,0,2.564-0.801,3.064-2.107c0.649-1.691-0.197-3.589-1.889-4.238
	C3.902,56.968,11.575,15.073,42.455,14.56c13.58,0,25.133,9.69,27.471,23.043c0.312,1.785,2.014,2.979,3.798,2.666
	c1.786-0.312,2.98-2.013,2.666-3.798c-1.381-7.887-5.521-15.098-11.658-20.304C42.61-2.74,7.9,13.319,8,42.452
	c-0.165,14.005,9.025,27.315,22.123,32.18C30.509,74.78,30.905,74.85,31.296,74.85L31.296,74.85z"/>
</svg>
