<?xml version="1.0" encoding="utf-8"?>
<!-- Generator: Adobe Illustrator 16.0.0, SVG Export Plug-In . SVG Version: 6.00 Build 0)  -->
<!DOCTYPE svg PUBLIC "-//W3C//DTD SVG 1.1//EN" "http://www.w3.org/Graphics/SVG/1.1/DTD/svg11.dtd">
<svg version="1.1" id="Layer_1" xmlns="http://www.w3.org/2000/svg" xmlns:xlink="http://www.w3.org/1999/xlink" x="0px" y="0px"
	 width="100px" height="100px" viewBox="0 0 100 100" enable-background="new 0 0 100 100" xml:space="preserve">
<g id="Beauty__x26__Fashion">
	<path fill="#390064" d="M47.882,54.443h2.146c0.729,0,1.318-0.59,1.318-1.318s-0.59-1.318-1.318-1.318H48.2v-3.198
		c0-0.729-0.591-1.318-1.318-1.318c-0.729,0-1.318,0.59-1.318,1.318v3.527C45.563,53.408,46.604,54.443,47.882,54.443z"/>
	<path fill="#390064" d="M43.176,44.548c-0.513-0.517-1.348-0.519-1.864-0.006c-1.737,1.727-4.563,1.727-6.3,0
		c-0.517-0.513-1.352-0.511-1.864,0.006c-0.514,0.517-0.511,1.351,0.006,1.864c1.381,1.373,3.194,2.059,5.008,2.059
		c1.814,0,3.628-0.687,5.01-2.059C43.687,45.898,43.689,45.064,43.176,44.548z"/>
	<path fill="#390064" d="M58.748,48.471c1.813,0,3.629-0.686,5.01-2.059c0.517-0.514,0.519-1.348,0.005-1.864
		c-0.513-0.517-1.348-0.519-1.864-0.006c-1.737,1.727-4.563,1.727-6.301,0c-0.516-0.513-1.351-0.511-1.864,0.006
		c-0.513,0.517-0.511,1.351,0.006,1.864C55.12,47.785,56.934,48.471,58.748,48.471z"/>
	<path fill="#390064" d="M41.471,57.373c-0.514,0.516-0.511,1.351,0.006,1.864c1.912,1.9,4.426,2.851,6.944,2.851
		c2.536,0,5.077-0.963,7.013-2.887c0.517-0.515,0.519-1.35,0.006-1.865c-0.513-0.517-1.348-0.519-1.864-0.006
		c-2.834,2.817-7.428,2.833-10.24,0.037C42.819,56.854,41.983,56.856,41.471,57.373z"/>
	<path fill="#390064" d="M78.018,36.66c2.26,0.897,2.775,1.413,3.673,3.673c0.279,0.702,0.947,1.156,1.703,1.156
		c0.755,0,1.422-0.454,1.701-1.156c0.898-2.26,1.414-2.775,3.674-3.673c0.702-0.279,1.155-0.947,1.155-1.702
		c0-0.756-0.453-1.424-1.155-1.702c-2.26-0.898-2.775-1.414-3.674-3.676c-0.279-0.701-0.948-1.153-1.701-1.153
		c-0.755,0-1.423,0.452-1.702,1.154c-0.898,2.261-1.414,2.776-3.674,3.675c-0.701,0.278-1.155,0.946-1.155,1.702
		S77.316,36.381,78.018,36.66z M83.394,32.191c0.693,1.274,1.491,2.072,2.766,2.767c-1.274,0.693-2.072,1.491-2.766,2.766
		c-0.694-1.274-1.491-2.072-2.767-2.766C81.902,34.264,82.699,33.466,83.394,32.191z"/>
	<path fill="#390064" d="M10.526,36.713c2.261,0.898,2.776,1.413,3.674,3.674c0.278,0.702,0.946,1.155,1.702,1.155
		c0.755,0,1.423-0.452,1.701-1.154c0.898-2.262,1.413-2.776,3.675-3.675c0.701-0.279,1.154-0.946,1.154-1.702
		c0-0.755-0.453-1.423-1.154-1.701c-2.262-0.898-2.776-1.414-3.675-3.675c-0.278-0.702-0.946-1.155-1.701-1.155
		c-0.756,0-1.424,0.454-1.702,1.155c-0.897,2.261-1.413,2.776-3.675,3.675c-0.701,0.278-1.155,0.947-1.155,1.701
		C9.371,35.766,9.824,36.434,10.526,36.713z M15.902,32.245c0.693,1.274,1.491,2.072,2.766,2.766
		c-1.274,0.694-2.072,1.492-2.766,2.767c-0.693-1.274-1.491-2.072-2.766-2.767C14.411,34.317,15.209,33.52,15.902,32.245z"/>
	<path fill="#390064" d="M18.99,16.614c1.766,0.702,2.138,1.073,2.839,2.84c0.265,0.664,0.897,1.094,1.612,1.094
		s1.348-0.429,1.611-1.094c0.702-1.767,1.073-2.138,2.84-2.84c0.665-0.264,1.094-0.896,1.094-1.611c0-0.714-0.429-1.347-1.094-1.611
		c-1.767-0.703-2.138-1.074-2.84-2.84c-0.264-0.664-0.896-1.095-1.611-1.095s-1.348,0.43-1.611,1.094
		c-0.702,1.767-1.074,2.138-2.842,2.841c-0.664,0.265-1.092,0.897-1.092,1.611C17.896,15.719,18.326,16.351,18.99,16.614z
		 M23.441,13.26c0.462,0.746,0.997,1.281,1.742,1.743c-0.745,0.462-1.28,0.997-1.742,1.742c-0.463-0.745-0.997-1.28-1.742-1.742
		C22.444,14.54,22.979,14.006,23.441,13.26z"/>
	<path fill="#390064" d="M94.329,83.112l-0.86-0.854c-0.517-0.513-1.351-0.511-1.864,0.006c-0.514,0.516-0.511,1.351,0.006,1.864
		l0.603,0.599l-5.905,5.87l-5.93-5.894c-0.334-0.332-0.82-0.46-1.275-0.337c-0.608,0.165-1.236,0.25-1.867,0.25
		c-1.872,0-3.632-0.725-4.954-2.038l-12.645-12.57c-0.102-0.101-0.155-0.229-0.155-0.371c0-0.141,0.054-0.27,0.155-0.37
		c0.208-0.206,0.562-0.206,0.768-0.001l7.167,7.124c0.515,0.511,1.345,0.511,1.858-0.001l1.074-1.068
		c0.249-0.247,0.389-0.583,0.389-0.935c0-0.351-0.14-0.687-0.389-0.935l-9.554-9.497c-0.102-0.102-0.155-0.229-0.155-0.371
		s0.054-0.27,0.155-0.371c0.207-0.206,0.561-0.206,0.769,0.001l9.555,9.496c0.513,0.512,1.344,0.511,1.858,0l1.074-1.068
		c0.249-0.247,0.389-0.584,0.389-0.935c0-0.352-0.14-0.688-0.389-0.936l-9.554-9.496c-0.102-0.102-0.155-0.229-0.155-0.371
		s0.054-0.271,0.155-0.371c0.207-0.207,0.561-0.206,0.769,0l9.554,9.497c0.515,0.511,1.345,0.512,1.858,0l1.075-1.068
		c0.249-0.247,0.39-0.583,0.39-0.935s-0.141-0.688-0.389-0.936l-7.166-7.122c-0.102-0.101-0.155-0.229-0.155-0.372
		c0-0.142,0.054-0.27,0.155-0.37c0.207-0.206,0.561-0.206,0.769,0l9.188,9.135c0.378,0.375,0.944,0.486,1.436,0.281
		c0.491-0.204,0.812-0.685,0.812-1.217v-3.298c0.001-0.554,0.458-1.005,1.02-1.005c0.561,0,1.018,0.45,1.018,1.005v8.271
		c0,0.244,0.067,0.483,0.196,0.691c1.001,1.627,1.282,3.62,0.772,5.469c-0.127,0.459,0.004,0.95,0.342,1.285l0.92,0.915
		c0.517,0.514,1.351,0.511,1.864-0.006c0.513-0.516,0.511-1.351-0.006-1.864l-0.399-0.398c0.414-2.2,0.043-4.496-1.053-6.45v-7.913
		c0-2.008-1.64-3.642-3.655-3.642c-2.015,0.001-3.654,1.634-3.655,3.642v0.128l-4.206-4.182c0.072-0.459,0.11-0.929,0.11-1.408
		c0-1.585-0.406-3.076-1.12-4.378c0.443-0.731,0.699-1.586,0.699-2.499v-4.312c0-1.883-1.086-3.52-2.671-4.332v-5.144
		c0-6.45-2.533-11.91-7.327-15.791c-1.201-0.973-2.531-1.825-3.966-2.553c-0.676-6.749-6.417-12.037-13.376-12.037
		c-6.96,0-12.7,5.288-13.377,12.037c-1.434,0.728-2.764,1.58-3.964,2.553c-4.795,3.881-7.329,9.341-7.329,15.791v5.144
		c-1.584,0.813-2.67,2.45-2.67,4.332v4.312c0,1.38,0.585,2.624,1.519,3.513l-0.462,7.008c-0.438,0.078-0.839,0.284-1.158,0.603
		l-1.763,1.752c-0.417,0.414-0.646,0.966-0.646,1.555c0,0.52,0.18,1.011,0.509,1.404L5.846,81.215C5.3,81.771,5,82.504,5,83.284
		c0,0.793,0.31,1.537,0.873,2.097c0.561,0.558,1.306,0.865,2.098,0.865c0.78,0,1.514-0.298,2.071-0.839l14.689-13.198
		c0.397,0.337,0.896,0.522,1.423,0.522c0.587,0,1.139-0.228,1.553-0.64l1.764-1.752c0.319-0.318,0.527-0.719,0.608-1.154
		l7.622-0.497c0.22-0.014,0.431-0.061,0.629-0.132c1.129,0.524,2.319,0.938,3.557,1.229v2.449h-8.784
		c-7.885,0-14.299,6.381-14.299,14.223v4.684c0,1.233,1.003,2.237,2.237,2.237h54.826c1.234,0,2.238-1.004,2.238-2.237v-3.93
		c0.312-0.027,0.622-0.069,0.929-0.127l5.666,5.631c0.43,0.428,1.001,0.663,1.607,0.663s1.177-0.235,1.607-0.663l6.413-6.375
		C94.755,85.916,95,85.328,95,84.727S94.755,83.536,94.329,83.112z M55.023,69.787c0.629-0.147,1.245-0.328,1.848-0.538
		c-0.015,0.128-0.026,0.257-0.026,0.388c0,0.847,0.332,1.643,0.934,2.241l0.359,0.357h-3.114V69.787z M73.371,56.355
		c-0.6-0.596-1.396-0.924-2.244-0.924c-0.847,0-1.643,0.328-2.243,0.925c-0.54,0.537-0.862,1.233-0.922,1.983l-0.683-0.678
		c-0.6-0.598-1.396-0.926-2.242-0.926s-1.644,0.329-2.243,0.926c-0.602,0.598-0.933,1.394-0.933,2.241
		c0,0.191,0.017,0.381,0.05,0.566c-0.188-0.034-0.381-0.052-0.577-0.052c-0.1,0-0.199,0.005-0.298,0.015
		c-0.398-0.841-0.62-1.778-0.62-2.767c0-3.604,2.952-6.534,6.581-6.534c3.21,0,5.888,2.293,6.465,5.315L73.371,56.355z
		 M73.158,50.788c0,0.021-0.002,0.04-0.002,0.06c-1.083-0.968-2.395-1.686-3.844-2.061v-4.555h1.541
		c1.271,0,2.305,1.007,2.305,2.244V50.788z M48.455,9.258c5.063,0,9.325,3.479,10.49,8.156c-3.184-1.148-6.744-1.755-10.49-1.755
		s-7.308,0.606-10.491,1.755C39.13,12.736,43.391,9.258,48.455,9.258z M23.752,46.477c0-1.237,1.034-2.244,2.305-2.244h1.54v6.993
		c-1.061,0.025-2.132,0.172-3.191,0.438c-0.14,0.035-0.273,0.084-0.4,0.143c-0.161-0.306-0.253-0.65-0.253-1.018V46.477z
		 M8.259,83.465c-0.017,0.016-0.032,0.03-0.049,0.046c-0.081,0.081-0.175,0.099-0.239,0.099c-0.063,0-0.157-0.018-0.239-0.099
		c-0.079-0.077-0.095-0.166-0.095-0.227s0.016-0.148,0.095-0.228c0.016-0.015,0.031-0.031,0.045-0.048L20.979,68.49l1.874,1.862
		L8.259,83.465z M26.154,69.917l-4.728-4.699l1.14-1.133l4.728,4.7L26.154,69.917z M37.284,66.073l-8.425,0.55l-0.134-0.133
		l4.724-2.791c0.627-0.37,0.835-1.178,0.464-1.805c-0.37-0.627-1.179-0.835-1.806-0.465l-5.287,3.124l3.135-5.243
		c0.374-0.626,0.17-1.435-0.455-1.809s-1.434-0.17-1.808,0.455l-2.815,4.708l-0.144-0.144l0.552-8.358
		c0.883-0.203,1.772-0.307,2.647-0.307c2.688,0,5.144,0.971,6.915,2.731C37.219,58.945,38.121,62.476,37.284,66.073z M36.706,54.718
		c-1.743-1.733-3.988-2.865-6.472-3.298V39.193h5.176c0.729,0,1.318-0.59,1.318-1.318c0-0.728-0.59-1.318-1.318-1.318H30
		c-1.325,0-2.403,1.075-2.403,2.397v2.642h-1.175v-4.595c0-5.626,2.195-10.378,6.351-13.742c3.954-3.2,9.523-4.964,15.683-4.964
		s11.729,1.764,15.683,4.964c4.154,3.364,6.35,8.116,6.35,13.742v4.595h-1.175v-2.642c0-1.322-1.078-2.397-2.403-2.397h-5.656
		c-2.364,0-4.619-1.247-5.882-3.253c-0.441-0.704-1.202-1.124-2.035-1.124s-1.595,0.42-2.036,1.123
		c-1.263,2.007-3.517,3.255-5.882,3.255h-3.855c-0.728,0-1.318,0.59-1.318,1.318c0,0.728,0.591,1.318,1.318,1.318h3.855
		c3.145,0,6.145-1.596,7.918-4.188c1.772,2.592,4.773,4.188,7.917,4.188h5.423v9.309c-4.935,0.17-8.896,4.214-8.896,9.163
		c0,1.467,0.351,2.854,0.969,4.084c-0.381,0.531-0.59,1.165-0.59,1.833c0,0.692,0.226,1.349,0.636,1.893
		c-2.367,1.38-5.122,2.173-8.062,2.173H46.18c-2.223,0-4.34-0.454-6.264-1.271C40.847,61.983,39.668,57.662,36.706,54.718z
		 M41.956,74.872c1.416,0,2.567-1.147,2.567-2.559v-2.103c0.546,0.048,1.098,0.074,1.656,0.074h4.552
		c0.558,0,1.11-0.025,1.655-0.074v2.103c0,1.411,1.151,2.559,2.567,2.559h0.312l-6.812,10.429l-6.812-10.429H41.956z M21.44,90.742
		v-4.284c0-6.389,5.231-11.586,11.662-11.586h0.143l10.365,15.87H21.44z M53.299,90.742l2.948-4.514
		c0.398-0.609,0.227-1.426-0.383-1.824s-1.427-0.227-1.825,0.383l-3.009,4.607c-0.467,0.715-1.211,1.202-2.052,1.348h-1.048
		c-0.84-0.146-1.585-0.633-2.052-1.348l-9.485-14.522h2.1l8.857,13.562c0.244,0.372,0.658,0.597,1.104,0.597
		c0.444,0,0.86-0.225,1.104-0.597l8.856-13.562h2.101l-3.146,4.817c-0.398,0.609-0.227,1.427,0.383,1.824
		c0.609,0.398,1.427,0.227,1.824-0.383l2.957-4.526l7.89,7.843c1.396,1.388,3.146,2.295,5.046,2.644v3.651H53.299z"/>
</g>
</svg>
