<?xml version="1.0" encoding="utf-8"?>
<!-- Generator: Adobe Illustrator 16.0.0, SVG Export Plug-In . SVG Version: 6.00 Build 0)  -->
<!DOCTYPE svg PUBLIC "-//W3C//DTD SVG 1.1//EN" "http://www.w3.org/Graphics/SVG/1.1/DTD/svg11.dtd">
<svg version="1.1" id="Layer_1" xmlns="http://www.w3.org/2000/svg" xmlns:xlink="http://www.w3.org/1999/xlink" x="0px" y="0px"
	 width="100px" height="100px" viewBox="0 0 100 100" enable-background="new 0 0 100 100" xml:space="preserve">
<path id="Business__x26__Administration" fill="#390064" stroke="#390064" stroke-miterlimit="10" d="M95,42.742h-3.262L86.877,45.3
	c-0.548-0.302-1.117-0.558-1.73-0.711l-6.115-1.53v-0.695c2.705-1.888,4.355-5.008,4.355-8.331v-2.538
	c0-5.639-4.418-10.358-9.849-10.522c-0.276-0.007-0.548,0.002-0.82,0.016l1.585-3.712l-7.687-7.685l-4.531,2.949
	c-1.722-0.97-3.543-1.725-5.434-2.254L55.532,5H44.47l-1.12,5.288c-1.891,0.53-3.713,1.285-5.434,2.254l-4.531-2.95l-7.68,7.681
	l1.559,3.715c-0.06-0.003-0.116-0.014-0.176-0.015c-2.78-0.081-5.398,0.933-7.388,2.864c-1.991,1.929-3.087,4.519-3.087,7.291v2.903
	c0,3.323,1.649,6.441,4.354,8.329v0.697l-3.989,0.997l-7.23-4.216H5v30.079l14.281,4.76h2.781l0.347-1.217l4.378,2.628
	c0.071,2.38,1.98,4.295,4.358,4.379c0.083,2.368,1.986,4.271,4.354,4.354c0.084,2.368,1.987,4.271,4.355,4.355
	c0.086,2.423,2.07,4.371,4.514,4.371c0.907,0,1.797-0.283,2.545-0.787l1.285,1.136C49.006,94.606,50.043,95,51.121,95h0.269
	c2.415,0,4.381-1.953,4.411-4.36c2.39-0.03,4.324-1.966,4.354-4.355c2.392-0.03,4.327-1.968,4.355-4.358
	c2.412-0.057,4.36-2.028,4.36-4.454c0-0.146-0.007-0.29-0.022-0.436L95,63.962V42.742z M80.483,31.495v2.538
	c0,2.577-1.392,4.983-3.633,6.281l-0.726,0.42l0.006,4.594l7.252,1.812l-15.964,8.402v-3.91c0-1.952-0.788-3.739-2.078-5.059
	l4.981-1.245v-4.598l-0.724-0.419c-2.24-1.295-3.631-3.702-3.631-6.278v-2.903c0-1.979,0.782-3.831,2.205-5.209
	c1.421-1.378,3.307-2.121,5.277-2.044C77.328,23.992,80.483,27.41,80.483,31.495z M52.188,54.399l-6.571-2.101
	c-2.994-0.959-6.235-1.103-9.301-0.424l-0.833,0.185v-0.429c0-2.002,1.357-3.74,3.299-4.227l8.314-2.077v-4.598l-0.725-0.419
	c-2.239-1.295-3.63-3.702-3.63-6.278v-2.903c0-1.979,0.782-3.831,2.205-5.209c1.421-1.378,3.318-2.121,5.277-2.044
	c3.878,0.117,7.033,3.535,7.033,7.62v2.538c0,2.577-1.392,4.983-3.633,6.281l-0.726,0.42l0.005,4.594l8.313,2.077
	c1.941,0.486,3.299,2.224,3.299,4.227v5.438l-0.359,0.188h-0.89l-8.924-2.55C53.641,54.509,52.916,54.428,52.188,54.399z
	 M35.81,26.726c2.726-5.282,8.213-8.662,14.19-8.662c5.921,0,11.385,3.334,14.131,8.544c-0.69,1.386-1.066,2.92-1.066,4.52v2.903
	c0,3.323,1.649,6.441,4.354,8.329v0.697l-5.806,1.454l-5.809-1.454v-0.695c2.706-1.888,4.356-5.008,4.356-8.331v-2.538
	c0-5.639-4.419-10.358-9.85-10.522c-2.778-0.082-5.397,0.933-7.387,2.864c-1.99,1.931-3.086,4.52-3.086,7.292v2.903
	c0,3.323,1.649,6.441,4.354,8.329v0.697l-5.807,1.454l-5.808-1.454v-0.695c2.706-1.888,4.356-5.008,4.356-8.331v-2.538
	C36.936,29.787,36.524,28.165,35.81,26.726z M29.133,17.947l4.638-4.638l4.082,2.657l0.781-0.479c1.957-1.2,4.072-2.078,6.285-2.607
	l0.894-0.214l1.01-4.762h6.356l1.008,4.761l0.893,0.213c2.214,0.53,4.329,1.409,6.286,2.608l0.78,0.479l4.082-2.657l4.632,4.634
	l-1.646,3.855c-1.12,0.482-2.159,1.16-3.063,2.037c-0.06,0.058-0.11,0.121-0.169,0.18c-3.42-5.437-9.466-8.853-15.98-8.853
	c-6.562,0-12.624,3.448-16.036,8.939c-0.912-0.956-1.998-1.729-3.202-2.27L29.133,17.947z M23.871,45.327v-4.598l-0.725-0.419
	c-2.239-1.295-3.63-3.702-3.63-6.278v-2.903c0-1.979,0.782-3.831,2.204-5.209c1.422-1.378,3.312-2.121,5.278-2.044
	c3.878,0.117,7.033,3.535,7.033,7.62v2.538c0,2.577-1.392,4.983-3.633,6.281l-0.727,0.42l0.006,4.594l4.98,1.245
	c-1.29,1.32-2.078,3.107-2.078,5.059v1.074l-4.528,1.007l0.118-0.411l0.055-2.683l-7.655-4.466L23.871,45.327z M7.903,42.742h1.059
	l10.439,6.089l-5.268,21.07l-6.23-2.077V42.742z M19.751,71.774l-2.856-0.952l5.117-20.468l3.311,1.931v0.414l-5.449,19.075H19.751z
	 M29.678,75.953c0-0.428,0.173-0.848,0.476-1.151l2.552-2.551c0.304-0.304,0.724-0.477,1.151-0.477c0.897,0,1.627,0.729,1.627,1.627
	c0,0.429-0.173,0.848-0.476,1.151l-2.552,2.552c-0.304,0.303-0.723,0.477-1.151,0.477C30.407,77.581,29.678,76.851,29.678,75.953z
	 M34.032,80.308c0-0.428,0.173-0.848,0.477-1.15l2.552-2.552c0.303-0.304,0.723-0.477,1.15-0.477c0.897,0,1.628,0.73,1.628,1.628
	c0,0.428-0.173,0.848-0.477,1.15l-2.552,2.552c-0.303,0.304-0.723,0.477-1.151,0.477C34.763,81.936,34.032,81.205,34.032,80.308z
	 M38.387,84.663c0-0.429,0.173-0.848,0.477-1.151l2.552-2.552c0.304-0.303,0.723-0.477,1.151-0.477c0.897,0,1.627,0.73,1.627,1.628
	c0,0.428-0.173,0.848-0.477,1.151l-2.551,2.552c-0.304,0.303-0.724,0.476-1.151,0.476C39.117,86.29,38.387,85.561,38.387,84.663z
	 M44.369,90.646c-0.897,0-1.627-0.73-1.627-1.628c0-0.428,0.173-0.848,0.476-1.151l2.552-2.551c0.304-0.304,0.724-0.477,1.151-0.477
	c0.897,0,1.628,0.729,1.628,1.627c0,0.429-0.174,0.848-0.477,1.151l-2.552,2.552C45.217,90.473,44.798,90.646,44.369,90.646z
	 M51.39,92.097h-0.269c-0.37,0-0.725-0.135-1.001-0.379l-1.086-0.958l1.091-1.09c0.389-0.39,0.69-0.852,0.914-1.349l1.319,1.099
	c0.346,0.287,0.545,0.711,0.545,1.163C52.903,91.418,52.225,92.097,51.39,92.097z M64.407,79.032h-0.251
	c-0.364,0-0.721-0.129-0.999-0.363l-7.872-6.56l-1.859,2.231l7.645,6.369c0.344,0.288,0.543,0.712,0.543,1.163
	c0,0.835-0.68,1.514-1.515,1.514h-0.316c-0.353,0-0.697-0.124-0.969-0.352l-7.884-6.569l-1.86,2.231l7.645,6.37
	c0.345,0.285,0.544,0.709,0.544,1.16c0,0.835-0.679,1.515-1.514,1.515c-0.558,0-1.101-0.198-1.527-0.553l-3.24-2.701
	c-0.714-1.458-2.18-2.476-3.897-2.536c-0.084-2.368-1.986-4.271-4.354-4.355c-0.084-2.368-1.987-4.271-4.355-4.354
	c-0.085-2.424-2.069-4.371-4.513-4.371c-1.192,0-2.36,0.483-3.204,1.327l-2.552,2.551c-0.152,0.153-0.278,0.326-0.406,0.497
	l-4.459-2.676l3.909-13.681l9.8-2.179c2.57-0.575,5.281-0.45,7.788,0.352l2.139,0.685l-7.25,3.625
	c-1.656,0.83-2.686,2.496-2.686,4.349v0.287c0,2.682,2.182,4.863,4.863,4.863c0.881,0,1.748-0.239,2.501-0.694l5.405-3.241
	c1.086-0.65,2.543-0.508,3.48,0.336l12.266,11.037c0.328,0.298,0.517,0.721,0.517,1.163C65.968,78.333,65.269,79.032,64.407,79.032z
	 M92.097,62.167L67.642,74.396c-0.08-0.085-0.163-0.165-0.25-0.243L55.129,63.115c-1.074-0.97-2.464-1.502-3.911-1.502
	c-1.059,0-2.098,0.287-3.008,0.833l-5.407,3.243c-0.303,0.183-0.649,0.278-1.004,0.278c-1.082,0-1.96-0.878-1.96-1.96v-0.287
	c0-0.748,0.415-1.418,1.083-1.752l8.097-4.049c1.386-0.693,3.031-0.85,4.524-0.42l9.122,2.606l2.21,0.055l27.222-14.328V62.167z"/>
</svg>
