<?xml version="1.0" encoding="utf-8"?>
<!-- Generator: Adobe Illustrator 16.0.0, SVG Export Plug-In . SVG Version: 6.00 Build 0)  -->
<!DOCTYPE svg PUBLIC "-//W3C//DTD SVG 1.1//EN" "http://www.w3.org/Graphics/SVG/1.1/DTD/svg11.dtd">
<svg version="1.1" id="Layer_1" xmlns="http://www.w3.org/2000/svg" xmlns:xlink="http://www.w3.org/1999/xlink" x="0px" y="0px"
	 width="120px" height="100px" viewBox="-10 0 120 100" enable-background="new -10 0 120 100" xml:space="preserve">
<g id="Fitness__x26__Wellness">
	<path fill="#390064" stroke="#390064" stroke-miterlimit="10" d="M42.741,51.082c-0.644,0-1.212-0.421-1.399-1.038l-4.447-14.606
		H23.576c-0.809,0-1.464-0.656-1.464-1.464c0-0.809,0.655-1.464,1.464-1.464h14.402c0.645,0,1.213,0.422,1.401,1.039l3.361,11.042
		l4.91-16.128c0.188-0.616,0.757-1.037,1.401-1.037c0.643,0,1.211,0.42,1.399,1.037l2.125,6.98h12.872
		c0.809,0,1.464,0.655,1.464,1.464c0,0.808-0.655,1.463-1.464,1.463H51.492c-0.644,0-1.213-0.421-1.399-1.036l-1.041-3.419
		l-4.912,16.128C43.954,50.661,43.386,51.082,42.741,51.082z"/>
	<path fill="#390064" stroke="#390064" stroke-miterlimit="10" d="M96.912,23.271c-0.397-0.706-1.29-0.954-1.994-0.557
		c-0.703,0.397-0.953,1.289-0.557,1.994c1.768,3.133,2.705,6.689,2.711,10.288c0.019,9.593-5.494,20.264-16.382,31.717
		c-8.865,9.324-18.812,16.446-22.677,19.074c-0.646,0.44-1.481,0.44-2.129,0c-3.425-2.33-11.755-8.277-19.821-16.178h13.656v5.93
		c0,1.883,1.532,3.415,3.415,3.415h3.188c1.884,0,3.416-1.532,3.416-3.415v-0.123c0.159,0.023,0.322,0.039,0.488,0.039h3.188
		c1.882,0,3.414-1.531,3.414-3.415V55.338c0-1.883-1.532-3.415-3.414-3.415h-3.188c-0.166,0-0.329,0.017-0.488,0.039v-0.124
		c0-1.882-1.532-3.415-3.416-3.415h-3.188c-1.883,0-3.415,1.532-3.415,3.415v5.787h-4.615c-0.808,0-1.464,0.655-1.464,1.463
		c0,0.809,0.656,1.463,1.464,1.463h4.615v6.132H17.11v-6.132h21.374c0.81,0,1.465-0.654,1.465-1.463
		c0-0.808-0.655-1.463-1.465-1.463H25.59c-5.828-8.062-8.777-15.672-8.764-22.627c0.021-11.651,9.513-21.119,21.164-21.119h0.03
		c6.438,0.008,12.445,2.9,16.483,7.933c0.597,0.747,1.49,1.173,2.446,1.173c0.955,0,1.849-0.428,2.446-1.173
		c4.038-5.033,10.045-7.923,16.482-7.933h0.029c5.411,0,10.566,2.06,14.523,5.804c0.587,0.554,1.514,0.529,2.069-0.058
		c0.557-0.588,0.529-1.514-0.059-2.069c-4.503-4.26-10.372-6.604-16.534-6.604c-0.011,0-0.022,0-0.033,0
		c-7.33,0.01-14.167,3.3-18.763,9.029c-0.082,0.103-0.244,0.103-0.325,0c-4.593-5.729-11.433-9.018-18.761-9.029
		c-0.012,0-0.021,0-0.035,0c-13.262,0-24.067,10.779-24.092,24.042c-0.013,7.078,2.716,14.681,8.116,22.632H17.11v-5.788
		c0-1.882-1.532-3.415-3.416-3.415h-3.189c-1.882,0-3.415,1.532-3.415,3.415v0.125c-0.16-0.022-0.322-0.039-0.487-0.039H3.415
		C1.532,51.923,0,53.455,0,55.338V72.04c0,1.884,1.531,3.416,3.414,3.416h3.189c0.165,0,0.328-0.018,0.487-0.039v0.123
		c0,1.883,1.532,3.415,3.415,3.415h3.189c1.884,0,3.416-1.532,3.416-3.415v-5.93h14.824c8.844,9.104,18.514,16.021,22.303,18.599
		c0.823,0.561,1.769,0.84,2.712,0.84c0.942,0,1.887-0.279,2.71-0.84c3.943-2.683,14.093-9.949,23.152-19.479
		C94.235,56.713,100.019,45.361,100,34.991C99.992,30.892,98.923,26.839,96.912,23.271z M60.226,54.848h3.189
		c0.268,0,0.487,0.221,0.487,0.49V72.04c0,0.271-0.22,0.488-0.487,0.488h-3.189c-0.269,0-0.488-0.217-0.488-0.488V55.338
		C59.737,55.068,59.957,54.848,60.226,54.848z M52.646,51.837c0-0.268,0.217-0.487,0.487-0.487h3.188
		c0.271,0,0.488,0.22,0.488,0.487V75.54c0,0.27-0.218,0.488-0.488,0.488h-3.188c-0.271,0-0.487-0.219-0.487-0.488V51.837z
		 M14.183,75.54c0,0.271-0.219,0.488-0.488,0.488h-3.189c-0.268,0-0.487-0.218-0.487-0.488V63.968c0-0.808-0.655-1.463-1.463-1.463
		c-0.809,0-1.464,0.655-1.464,1.463v8.072c0,0.271-0.219,0.488-0.488,0.488H3.415c-0.269,0-0.487-0.217-0.487-0.488V55.338
		c0-0.27,0.218-0.49,0.487-0.49h3.189c0.268,0,0.487,0.221,0.487,0.49v1.797c0,0.808,0.655,1.465,1.464,1.465
		c0.808,0,1.463-0.657,1.463-1.465v-5.298c0-0.268,0.219-0.487,0.488-0.487h3.188c0.269,0,0.488,0.22,0.488,0.487V75.54z"/>
</g>
</svg>
