<?xml version="1.0" encoding="utf-8"?>
<svg viewBox="60.277 128.501 652.734 108.879" xmlns="http://www.w3.org/2000/svg">
  <g transform="matrix(1, 0, 0, 1, -34.299782, -53.752975)">
    <path fill="#A6A6A6" d="M289.832,192.574c0,5.701-4.621,10.32-10.321,10.32c-5.699,0-10.32-4.619-10.32-10.32 c0-5.699,4.621-10.32,10.32-10.32C285.21,182.254,289.832,186.875,289.832,192.574"/>
    <rect x="262.446" y="207.789" fill="#A6A6A6" width="34.128" height="18.33"/>
    <path fill="#A6A6A6" d="M279.51,267.201c-5.041,0-9.166-4.244-9.166-9.43v-36.811c0-5.188,4.125-9.43,9.166-9.43 s9.166,4.242,9.166,9.43v36.811C288.676,262.957,284.551,267.201,279.51,267.201"/>
    <path fill="#9900CC" d="M170.172,247.072c-1.286-1.316-1.928-2.998-1.928-5.045c0-1.945,0.707-3.625,2.125-5.043 c1.417-1.418,3.1-2.127,5.046-2.127c2.141,0,3.848,0.775,5.117,2.326c1.269,1.549,1.905,3.625,1.905,6.229v14.068 c0.303,2.834,1.782,9.768,9.04,9.768c8.55,0,9.384-9.631,9.455-10.834v-14.336c0-8.076-2.301-14.449-6.898-19.113 c-4.6-4.666-10.89-7-18.868-7c-7.154,0-13.229,2.49-18.225,7.469c-4.994,4.979-7.491,11.047-7.491,18.199 c0,7.354,2.473,13.469,7.418,18.348c4.807,4.742,10.79,7.158,17.932,7.291v0.018h4.035v-18.221h-3.877 C172.98,249.068,171.458,248.393,170.172,247.072"/>
    <path fill="#9900CC" d="M127.564,215.967v24.871v1.299c-0.021,3.893-3.256,7.045-7.246,7.045s-7.226-3.152-7.245-7.045v-26.17 H94.577v26.135c0,13.889,11.526,25.148,25.741,25.148c2.512,0,4.938-0.357,7.234-1.014c-0.137,3.793-3.318,6.828-7.234,6.828 h-1.724c-2.443,0.195-10.025,1.4-10.025,8.891c0,7.307,7.213,8.855,9.836,9.178h1.913c14.217,0,25.742-11.258,25.742-25.148 v-23.883v-1.264v-24.871H127.564z"/>
    <path fill="#9900CC" d="M236.435,192.574c-0.123,0.832-0.14,1.365-0.14,1.365v45.219c0,6.562-2.374,9.844-7.121,9.844 c-1.979,0-3.677-0.686-5.095-2.055c-1.418-1.367-2.126-3.008-2.126-4.92c0-1.979,0.684-3.666,2.052-5.07 c1.213-1.24,2.639-1.93,4.275-2.07v-0.021h4.569v-18.898h-4.569v0.01c-6.75,0.062-12.604,2.59-17.554,7.605 c-5.011,5.078-7.517,11.094-7.517,18.049c0,7.189,2.522,13.254,7.566,18.199c5.045,4.945,11.243,7.42,18.595,7.42 c3.692,0,7.294-0.811,10.806-2.424c3.511-1.615,6.404-3.791,8.68-6.527c3.956-4.75,5.935-10.898,5.935-18.447v-45.912 c0,0,0-0.533-0.097-1.365H236.435z"/>
    <path fill="#9900CC" d="M380.948,247.072c-1.286-1.316-1.928-2.998-1.928-5.045c0-1.945,0.707-3.625,2.125-5.043 c1.417-1.418,3.1-2.127,5.046-2.127c2.141,0,3.848,0.775,5.117,2.326c1.269,1.549,1.905,3.625,1.905,6.229v14.068 c0.301,2.834,1.782,9.768,9.041,9.768c8.55,0,9.383-9.631,9.453-10.834v-14.336c0-8.076-2.299-14.449-6.897-19.113 c-4.601-4.666-10.89-7-18.868-7c-7.154,0-13.229,2.49-18.225,7.469c-4.994,4.979-7.491,11.047-7.491,18.199 c0,7.354,2.473,13.469,7.418,18.348c4.807,4.742,10.79,7.158,17.932,7.291v0.018h4.036v-18.221h-3.878 C383.755,249.068,382.233,248.393,380.948,247.072"/>
    <path fill="#9900CC" d="M338.339,215.967v24.871v1.299c-0.021,3.893-3.256,7.045-7.246,7.045s-7.226-3.152-7.244-7.045v-26.17 h-18.497v26.135c0,13.889,11.526,25.148,25.741,25.148c2.513,0,4.938-0.357,7.234-1.014c-0.137,3.793-3.318,6.828-7.234,6.828 h-1.724c-2.442,0.195-10.025,1.4-10.025,8.891c0,7.307,7.213,8.855,9.836,9.178h1.913c14.217,0,25.742-11.258,25.742-25.148 v-23.883v-1.264v-24.871H338.339z"/>
    <path fill="#9900CC" d="M447.211,192.574c-0.123,0.832-0.14,1.365-0.14,1.365v45.219c0,6.562-2.375,9.844-7.122,9.844 c-1.978,0-3.677-0.686-5.094-2.055c-1.419-1.367-2.127-3.008-2.127-4.92c0-1.979,0.685-3.666,2.052-5.07 c1.213-1.24,2.639-1.93,4.275-2.07v-0.021h4.57v-18.898h-4.57v0.01c-6.75,0.062-12.604,2.59-17.554,7.605 c-5.01,5.078-7.517,11.094-7.517,18.049c0,7.189,2.523,13.254,7.567,18.199c5.044,4.945,11.244,7.42,18.596,7.42 c3.692,0,7.294-0.811,10.806-2.424c3.51-1.615,6.403-3.791,8.679-6.527c3.957-4.75,5.936-10.898,5.936-18.447v-45.912 c0,0,0-0.533-0.098-1.365H447.211z"/>
  </g>
  <g transform="matrix(1, 0, 0, 1, -34.299782, -53.752975)">
    <defs>
      <path id="SVGID_1_" d="M522.636,192.467c-21.293,0-38.555,17.26-38.555,38.555c0,21.293,17.262,38.555,38.555,38.555h186.118 c21.295,0,38.557-17.262,38.557-38.555c0-21.295-17.262-38.555-38.557-38.555H522.636z"/>
    </defs>
    <clipPath id="SVGID_2_">
      <path d="M522.636,192.467c-21.293,0-38.555,17.26-38.555,38.555c0,21.293,17.262,38.555,38.555,38.555h186.118 c21.295,0,38.557-17.262,38.557-38.555c0-21.295-17.262-38.555-38.557-38.555H522.636z" transform="matrix(1, 0, 0, 1, 0, 0)" overflow="visible"/>
    </clipPath>
    <path clip-path="url(#SVGID_2_)" fill="#1CB0A9" d="M708.755,269.576H522.637c-21.294,0-38.557-17.262-38.557-38.557 c0-21.293,17.263-38.553,38.557-38.553h186.118c21.293,0,38.556,17.26,38.556,38.553 C747.311,252.314,730.048,269.576,708.755,269.576"/>
  </g>
  <g transform="matrix(1, 0, 0, 1, -34.299782, -53.752975)">
    <g>
      <path fill="#FFFFFF" d="M561.002,246.633c-1.16,1.914-2.869,3.439-5.128,4.578c-2.259,1.141-4.997,1.71-8.212,1.71 c-4.844,0-8.832-1.181-11.965-3.541c-3.135-2.36-4.844-5.656-5.129-9.891h11.111c0.162,1.629,0.742,2.91,1.739,3.847 c0.998,0.937,2.27,1.404,3.816,1.404c1.343,0,2.401-0.366,3.174-1.099c0.773-0.733,1.161-1.71,1.161-2.931 c0-1.099-0.357-2.015-1.069-2.747c-0.712-0.733-1.598-1.333-2.655-1.802c-1.059-0.467-2.523-1.027-4.396-1.679 c-2.728-0.936-4.955-1.841-6.685-2.716c-1.73-0.876-3.216-2.178-4.457-3.908c-1.241-1.729-1.862-3.978-1.862-6.745 c0-2.564,0.65-4.782,1.954-6.654c1.303-1.872,3.103-3.307,5.403-4.304c2.299-0.998,4.935-1.496,7.905-1.496 c4.802,0,8.617,1.14,11.447,3.419c2.828,2.279,4.426,5.413,4.792,9.4h-11.294c-0.204-1.423-0.723-2.553-1.557-3.388 c-0.834-0.833-1.965-1.251-3.389-1.251c-1.221,0-2.208,0.326-2.961,0.977c-0.753,0.651-1.129,1.608-1.129,2.869 c0,1.019,0.335,1.884,1.008,2.595c0.671,0.712,1.515,1.293,2.533,1.739c1.017,0.449,2.481,1.019,4.395,1.71 c2.768,0.937,5.026,1.862,6.777,2.778c1.749,0.915,3.255,2.249,4.518,3.998c1.261,1.751,1.893,4.029,1.893,6.838 C562.742,242.625,562.162,244.721,561.002,246.633z"/>
      <path fill="#FFFFFF" d="M605.842,209.332v43.161h-10.5v-18.01H578.98v18.01h-10.439v-43.161h10.439v16.728h16.361v-16.728 H605.842z"/>
      <path fill="#FFFFFF" d="M623.18,209.332v24.908c0,2.849,0.642,5.026,1.924,6.531c1.281,1.507,3.144,2.259,5.586,2.259 c2.441,0,4.304-0.752,5.585-2.259c1.282-1.505,1.924-3.683,1.924-6.531v-24.908h10.438v24.908c0,4.069-0.793,7.499-2.38,10.286 c-1.588,2.788-3.755,4.884-6.502,6.288s-5.852,2.106-9.311,2.106s-6.512-0.692-9.156-2.075 c-2.647-1.384-4.723-3.48-6.228-6.288c-1.506-2.81-2.259-6.248-2.259-10.317v-24.908H623.18z"/>
      <path fill="#FFFFFF" d="M686.427,260.063l-5.616-7.631c-1.629,0.325-3.196,0.488-4.701,0.488c-4.029,0-7.703-0.946-11.02-2.839 c-3.317-1.893-5.942-4.527-7.875-7.906c-1.934-3.378-2.9-7.183-2.9-11.416c0-4.232,0.967-8.027,2.9-11.386 c1.933-3.357,4.558-5.982,7.875-7.875c3.316-1.893,6.99-2.839,11.02-2.839c4.069,0,7.763,0.946,11.08,2.839 s5.932,4.518,7.845,7.875c1.913,3.358,2.87,7.153,2.87,11.386c0,3.745-0.764,7.164-2.29,10.257 c-1.525,3.093-3.633,5.638-6.318,7.631l9.646,11.416H686.427z M667.96,239.795c2.014,2.239,4.731,3.357,8.149,3.357 c3.378,0,6.084-1.118,8.119-3.357c2.035-2.238,3.053-5.25,3.053-9.035s-1.008-6.796-3.021-9.035 c-2.016-2.238-4.731-3.357-8.15-3.357c-3.418,0-6.136,1.108-8.149,3.326c-2.016,2.22-3.022,5.241-3.022,9.066 C664.938,234.545,665.944,237.557,667.96,239.795z"/>
    </g>
  </g>
</svg>