<?xml version="1.0" encoding="utf-8"?>
<svg viewBox="-162.432 86.413 611.06 108.88" xmlns="http://www.w3.org/2000/svg">
  <g transform="matrix(1, 0, 0, 1, -277.847351, -95.840027)">
    <g>
      <g>
        <path fill="#A6A6A6" d="M310.67,192.575c0,5.7-4.621,10.321-10.321,10.321c-5.699,0-10.32-4.621-10.32-10.321 s4.621-10.322,10.32-10.322C306.049,182.253,310.67,186.875,310.67,192.575"/>
        <rect x="283.284" y="207.789" fill="#A6A6A6" width="34.128" height="18.332"/>
        <path fill="#A6A6A6" d="M300.349,267.201c-5.041,0-9.166-4.244-9.166-9.43v-36.812c0-5.186,4.125-9.43,9.166-9.43 s9.166,4.244,9.166,9.43v36.812C309.515,262.957,305.39,267.201,300.349,267.201"/>
        <path fill="#FFFFFF" d="M191.011,247.072c-1.286-1.317-1.928-3-1.928-5.044c0-1.944,0.707-3.626,2.125-5.044 c1.417-1.418,3.1-2.128,5.046-2.128c2.141,0,3.848,0.776,5.117,2.325c1.269,1.551,1.905,3.628,1.905,6.231v14.068 c0.303,2.835,1.782,9.769,9.04,9.769c8.55,0,9.384-9.632,9.455-10.835v-14.337c0-8.077-2.301-14.448-6.898-19.114 c-4.6-4.665-10.89-6.998-18.868-6.998c-7.154,0-13.229,2.49-18.225,7.468c-4.994,4.979-7.491,11.046-7.491,18.2 c0,7.353,2.473,13.468,7.418,18.347c4.807,4.742,10.79,7.157,17.932,7.291v0.02h4.035V249.07h-3.877 C193.818,249.07,192.296,248.393,191.011,247.072"/>
        <path fill="#FFFFFF" d="M148.402,215.966v24.872v1.299c-0.021,3.895-3.256,7.046-7.246,7.046s-7.226-3.151-7.245-7.046v-26.171 h-18.496v26.136c0,13.89,11.526,25.148,25.741,25.148c2.512,0,4.938-0.357,7.234-1.014c-0.137,3.793-3.318,6.829-7.234,6.829 h-1.724c-2.443,0.194-10.025,1.399-10.025,8.89c0,7.307,7.213,8.855,9.836,9.178h1.913c14.217,0,25.742-11.259,25.742-25.148 v-23.883v-1.264v-24.872H148.402z"/>
        <path fill="#FFFFFF" d="M257.273,192.575c-0.123,0.831-0.14,1.365-0.14,1.365v45.22c0,6.562-2.374,9.842-7.121,9.842 c-1.979,0-3.677-0.684-5.095-2.053c-1.418-1.367-2.126-3.009-2.126-4.92c0-1.98,0.684-3.668,2.052-5.07 c1.213-1.24,2.639-1.93,4.275-2.071v-0.023h4.569v-18.898h-4.569v0.012c-6.75,0.062-12.604,2.59-17.554,7.604 c-5.011,5.079-7.517,11.096-7.517,18.052c0,7.189,2.522,13.253,7.566,18.199c5.045,4.945,11.243,7.418,18.595,7.418 c3.692,0,7.294-0.809,10.806-2.423c3.511-1.615,6.404-3.791,8.68-6.528c3.956-4.748,5.935-10.896,5.935-18.445V193.94 c0,0,0-0.534-0.097-1.365H257.273z"/>
        <path fill="#FFFFFF" d="M401.786,247.072c-1.286-1.317-1.928-3-1.928-5.044c0-1.944,0.707-3.626,2.125-5.044 c1.417-1.418,3.1-2.128,5.046-2.128c2.141,0,3.848,0.776,5.117,2.325c1.269,1.551,1.905,3.628,1.905,6.231v14.068 c0.301,2.835,1.782,9.769,9.041,9.769c8.55,0,9.383-9.632,9.453-10.835v-14.337c0-8.077-2.299-14.448-6.897-19.114 c-4.601-4.665-10.89-6.998-18.868-6.998c-7.154,0-13.229,2.49-18.225,7.468c-4.994,4.979-7.491,11.046-7.491,18.2 c0,7.353,2.473,13.468,7.418,18.347c4.807,4.742,10.79,7.157,17.932,7.291v0.02h4.036V249.07h-3.878 C404.594,249.07,403.071,248.393,401.786,247.072"/>
        <path fill="#FFFFFF" d="M359.178,215.966v24.872v1.299c-0.021,3.895-3.256,7.046-7.246,7.046s-7.226-3.151-7.244-7.046v-26.171 H326.19v26.136c0,13.89,11.526,25.148,25.741,25.148c2.513,0,4.938-0.357,7.234-1.014c-0.137,3.793-3.318,6.829-7.234,6.829 h-1.724c-2.442,0.194-10.025,1.399-10.025,8.89c0,7.307,7.213,8.855,9.836,9.178h1.913c14.217,0,25.742-11.259,25.742-25.148 v-23.883v-1.264v-24.872H359.178z"/>
        <path fill="#FFFFFF" d="M468.05,192.575c-0.123,0.831-0.14,1.365-0.14,1.365v45.22c0,6.562-2.375,9.842-7.122,9.842 c-1.978,0-3.677-0.684-5.094-2.053c-1.419-1.367-2.127-3.009-2.127-4.92c0-1.98,0.685-3.668,2.052-5.07 c1.213-1.24,2.639-1.93,4.275-2.071v-0.023h4.57v-18.898h-4.57v0.012c-6.75,0.062-12.604,2.59-17.554,7.604 c-5.011,5.079-7.518,11.096-7.518,18.052c0,7.189,2.523,13.253,7.567,18.199c5.044,4.945,11.244,7.418,18.596,7.418 c3.692,0,7.294-0.809,10.806-2.423c3.51-1.615,6.403-3.791,8.679-6.528c3.957-4.748,5.936-10.896,5.936-18.445V193.94 c0,0,0-0.534-0.098-1.365H468.05z"/>
      </g>
      <g>
        <path fill="#F9E14B" d="M687.918,268.877H542.107c-21.293,0-38.556-17.262-38.556-38.556s17.263-38.556,38.556-38.556h145.811 c21.293,0,38.557,17.262,38.557,38.556S709.211,268.877,687.918,268.877"/>
        <path fill="#9900CC" d="M584.711,231.213c-1.188,2.143-3.012,3.869-5.47,5.183c-2.458,1.315-5.511,1.973-9.157,1.973h-6.742 v16.025h-10.873v-44.643h17.615c3.562,0,6.57,0.614,9.03,1.844c2.459,1.23,4.304,2.925,5.532,5.087 c1.23,2.163,1.844,4.643,1.844,7.44C586.49,226.709,585.896,229.073,584.711,231.213 M573.9,228.256 c1.018-0.975,1.525-2.354,1.525-4.134s-0.508-3.157-1.525-4.133c-1.019-0.975-2.565-1.463-4.644-1.463h-5.915v11.192h5.915 C571.335,229.719,572.882,229.231,573.9,228.256"/>
        <path fill="#9900CC" d="M614.918,254.395l-9.285-16.854h-2.607v16.854H592.15V209.75h18.252c3.518,0,6.518,0.616,8.998,1.845 c2.481,1.229,4.335,2.915,5.564,5.057c1.23,2.14,1.844,4.525,1.844,7.153c0,2.968-0.837,5.618-2.511,7.949 c-1.676,2.332-4.146,3.985-7.408,4.96l10.302,17.681H614.918z M603.025,229.846h6.74c1.993,0,3.487-0.485,4.484-1.462 c0.996-0.975,1.495-2.353,1.495-4.134c0-1.695-0.499-3.03-1.495-4.007c-0.997-0.975-2.491-1.463-4.484-1.463h-6.74V229.846z"/>
        <path fill="#9900CC" d="M643.185,251.914c-3.498-1.949-6.274-4.674-8.332-8.174c-2.056-3.496-3.083-7.429-3.083-11.796 c0-4.365,1.027-8.287,3.083-11.766c2.058-3.475,4.834-6.188,8.332-8.139c3.496-1.949,7.345-2.925,11.541-2.925 c4.197,0,8.046,0.976,11.543,2.925c3.498,1.95,6.255,4.664,8.268,8.139c2.014,3.479,3.021,7.4,3.021,11.766 c0,4.367-1.017,8.3-3.054,11.796c-2.034,3.5-4.79,6.225-8.266,8.174c-3.479,1.95-7.315,2.925-11.513,2.925 C650.529,254.839,646.681,253.864,643.185,251.914 M663.28,241.357c2.142-2.375,3.211-5.512,3.211-9.413 c0-3.943-1.069-7.091-3.211-9.443s-4.992-3.529-8.555-3.529c-3.604,0-6.477,1.166-8.615,3.498 c-2.142,2.332-3.213,5.49-3.213,9.475c0,3.943,1.071,7.092,3.213,9.444c2.139,2.352,5.012,3.529,8.615,3.529 C658.288,244.918,661.139,243.732,663.28,241.357"/>
      </g>
    </g>
  </g>
</svg>