<svg width="1142" height="206" viewBox="0 0 1142 206" fill="none" xmlns="http://www.w3.org/2000/svg">
<path d="M52.7255 64.5224H86.5372V149.585C86.5372 166.297 83.523 181.748 72.5371 192.5C61.6126 203.313 54.5 205.447 36.6309 206C34.2373 206 32.0027 206 29.0371 206C28.5371 206 25.149 205.71 22.5456 204C19.9422 202.29 16 198.5 16 189.5C16 180.5 19.8485 177.5 22.5456 176C23.0637 175.712 24.8217 174.744 27.5 174.744C31 174.744 31.138 174.744 33.0406 174.744C40.4668 174.744 42.9954 174.494 47.5371 170.5C52.0788 166.506 50.7255 162.5 50.7255 154.5L40.5371 155C40.5371 155 34.5371 155 30.5371 155C23.0371 155 16.0371 152.5 9.19342 145.507C2.34973 138.513 1.03711 131.5 0 122.03V64.5224H32.7323V109.588C32.7323 114.688 33.4938 117.718 34.5371 119.5C37.0371 122.582 41.2126 122.582 43.7289 122.582C46.5371 122.582 49.5371 122.5 51.5371 120C52.6418 118.157 52.7255 114.565 52.7255 109.588V64.5224Z" fill="#9900CC"/>
<path d="M193.923 160.552H158.019V122.03C158.019 112.937 156.914 106.578 154.705 102.953C152.495 99.3277 148.844 97.5153 143.75 97.5153C139.883 97.5153 136.569 98.8977 133.807 101.662C131.107 104.366 129.756 107.653 129.756 111.523C129.756 115.517 131.076 118.835 133.715 121.477C136.416 124.118 139.76 125.439 143.75 125.439C144.732 125.439 145.806 125.317 146.972 125.071C148.138 124.764 149.457 124.334 150.93 123.781V161.105L150.286 161.197C146.972 161.381 144.609 161.474 143.197 161.474C129.327 161.474 117.574 156.651 107.938 147.005C98.3637 137.359 93.5765 125.532 93.5765 111.523C93.5765 104.888 94.804 98.5597 97.259 92.5387C99.7139 86.5177 103.274 81.2032 107.938 76.5952C112.664 71.803 118.065 68.1473 124.141 65.6283C130.217 63.1093 136.63 61.8498 143.381 61.8498C153.324 61.8498 162.254 64.3381 170.171 69.3147C178.088 74.2298 184.042 81.0496 188.031 89.7739C190.056 94.3819 191.529 99.1434 192.45 104.059C193.432 108.912 193.923 114.964 193.923 122.214V160.552Z" fill="#9900CC"/>
<path d="M297.58 26V102.768C297.58 108.421 297.365 112.906 296.935 116.224C296.567 119.541 295.954 122.675 295.094 125.624C291.719 137.359 285.765 146.575 277.234 153.271C268.765 159.907 258.699 163.225 247.038 163.225C240.348 163.225 233.965 161.934 227.889 159.354C221.813 156.773 216.382 153.026 211.594 148.11C206.93 143.38 203.37 137.973 200.915 131.891C198.46 125.747 197.233 119.326 197.233 112.629C197.233 98.314 202.02 86.2412 211.594 76.4109C221.169 66.5806 232.922 61.6655 246.854 61.6655C248.266 61.6655 250.659 61.7884 254.035 62.0341C254.219 62.0341 254.403 62.0341 254.587 62.0341V100.188C252.808 99.4506 251.365 98.9591 250.26 98.7133C249.217 98.4061 248.327 98.2525 247.591 98.2525C243.478 98.2525 240.072 99.6349 237.371 102.4C234.732 105.103 233.413 108.513 233.413 112.629C233.413 116.439 234.794 119.756 237.556 122.582C240.317 125.347 243.601 126.73 247.406 126.73C252.5 126.73 256.153 124.886 258.362 121.2C260.571 117.514 261.676 111.001 261.676 101.662V26H297.58Z" fill="#9900CC"/>
<path d="M445.263 64.5224H479.074V149.585C479.074 166.297 476.06 181.748 465.074 192.5C454.15 203.313 447.037 205.447 429.168 206C426.774 206 424.54 206 421.574 206C421.074 206 417.686 205.71 415.083 204C412.479 202.29 408.537 198.5 408.537 189.5C408.537 180.5 412.386 177.5 415.083 176C415.601 175.712 417.359 174.744 420.037 174.744C423.537 174.744 423.675 174.744 425.578 174.744C433.004 174.744 435.533 174.494 440.074 170.5C444.616 166.506 443.263 162.5 443.263 154.5L433.074 155C433.074 155 427.074 155 423.074 155C415.574 155 408.574 152.5 401.731 145.507C394.887 138.513 393.574 131.5 392.537 122.03V64.5224H425.269V109.588C425.269 114.688 426.031 117.718 427.074 119.5C429.574 122.582 433.75 122.582 436.266 122.582C439.074 122.582 442.074 122.5 444.074 120C445.179 118.157 445.263 114.565 445.263 109.588V64.5224Z" fill="#9900CC"/>
<path d="M586.46 160.552H550.556V122.03C550.556 112.937 549.451 106.578 547.242 102.953C545.033 99.3277 541.381 97.5153 536.287 97.5153C532.42 97.5153 529.106 98.8977 526.344 101.662C523.644 104.366 522.294 107.653 522.294 111.523C522.294 115.517 523.613 118.835 526.252 121.477C528.953 124.118 532.297 125.439 536.287 125.439C537.269 125.439 538.343 125.317 539.509 125.071C540.675 124.764 541.995 124.334 543.468 123.781V161.105L542.823 161.197C539.509 161.381 537.146 161.474 535.734 161.474C521.864 161.474 510.111 156.651 500.475 147.005C490.901 137.359 486.114 125.532 486.114 111.523C486.114 104.888 487.341 98.5597 489.796 92.5387C492.251 86.5177 495.811 81.2032 500.475 76.5952C505.201 71.803 510.602 68.1473 516.678 65.6283C522.754 63.1093 529.167 61.8498 535.919 61.8498C545.861 61.8498 554.791 64.3381 562.708 69.3147C570.626 74.2298 576.579 81.0496 580.568 89.7739C582.593 94.3819 584.066 99.1434 584.987 104.059C585.969 108.912 586.46 114.964 586.46 122.214V160.552Z" fill="#9900CC"/>
<path d="M690.117 26V102.768C690.117 108.421 689.902 112.906 689.473 116.224C689.104 119.541 688.491 122.675 687.631 125.624C684.256 137.359 678.303 146.575 669.772 153.271C661.302 159.907 651.236 163.225 639.575 163.225C632.885 163.225 626.502 161.934 620.426 159.354C614.35 156.773 608.919 153.026 604.131 148.11C599.467 143.38 595.907 137.973 593.452 131.891C590.997 125.747 589.77 119.326 589.77 112.629C589.77 98.314 594.557 86.2412 604.131 76.4109C613.706 66.5806 625.459 61.6655 639.391 61.6655C640.803 61.6655 643.197 61.7884 646.572 62.0341C646.756 62.0341 646.94 62.0341 647.125 62.0341V100.188C645.345 99.4506 643.902 98.9591 642.797 98.7133C641.754 98.4061 640.864 98.2525 640.128 98.2525C636.016 98.2525 632.609 99.6349 629.909 102.4C627.269 105.103 625.95 108.513 625.95 112.629C625.95 116.439 627.331 119.756 630.093 122.582C632.854 125.347 636.138 126.73 639.944 126.73C645.038 126.73 648.69 124.886 650.899 121.2C653.109 117.514 654.213 111.001 654.213 101.662V26H690.117Z" fill="#9900CC"/>
<path d="M310.538 53H378.538V84H310.538V53Z" fill="#A6A6A6"/>
<path d="M327.538 152L327.538 76H360.538L360.538 152C360.538 152 359.038 164 344.038 164C329.038 164 327.538 152 327.538 152Z" fill="#A6A6A6"/>
<path d="M366.538 21.5C366.538 33.3741 356.912 43 345.038 43C333.163 43 323.538 33.3741 323.538 21.5C323.538 9.62588 333.163 0 345.038 0C356.912 0 366.538 9.62588 366.538 21.5Z" fill="#A6A6A6"/>
<rect x="722" y="29" width="420" height="149" rx="72" fill="#F9E14B"/>
<path d="M838.922 113.717V148.77H828V59.2299H858.548C867.612 59.2299 874.704 61.7308 879.823 66.7326C884.981 71.7344 887.56 78.3556 887.56 86.5963C887.56 95.2879 885.038 101.991 879.994 106.706C874.988 111.38 867.801 113.717 858.434 113.717H838.922ZM838.922 104.061H858.548C864.388 104.061 868.863 102.586 871.973 99.6337C875.083 96.6408 876.638 92.336 876.638 86.7193C876.638 81.3895 875.083 77.1257 871.973 73.9278C868.863 70.7299 864.597 69.0695 859.174 68.9465H838.922V104.061Z" fill="#9900CC"/>
<path d="M931.874 112.548H912.419V148.77H901.44V59.2299H928.859C938.189 59.2299 945.356 61.5258 950.362 66.1176C955.406 70.7094 957.928 77.3922 957.928 86.1658C957.928 91.7415 956.525 96.5998 953.719 100.741C950.95 104.881 947.082 107.977 942.114 110.027L961.569 148.032V148.77H949.85L931.874 112.548ZM912.419 102.893H929.201C934.624 102.893 938.928 101.376 942.114 98.3422C945.337 95.3084 946.949 91.2496 946.949 86.1658C946.949 80.631 945.413 76.3877 942.341 73.4358C939.307 70.484 934.908 68.9875 929.144 68.9465H912.419V102.893Z" fill="#9900CC"/>
<path d="M1037 106.89C1037 115.664 1035.63 123.331 1032.9 129.89C1030.17 136.409 1026.31 141.39 1021.3 144.834C1016.29 148.278 1010.45 150 1003.78 150C997.255 150 991.472 148.278 986.428 144.834C981.384 141.349 977.459 136.409 974.653 130.013C971.884 123.577 970.462 116.135 970.386 107.69V101.233C970.386 92.623 971.77 85.0178 974.539 78.4171C977.307 71.8164 981.214 66.7736 986.257 63.2888C991.339 59.7629 997.142 58 1003.66 58C1010.3 58 1016.14 59.7424 1021.19 63.2273C1026.27 66.6711 1030.17 71.6934 1032.9 78.2941C1035.63 84.8538 1037 92.5 1037 101.233V106.89ZM1026.13 101.11C1026.13 90.4911 1024.16 82.3529 1020.22 76.6952C1016.27 70.9964 1010.76 68.1471 1003.66 68.1471C996.762 68.1471 991.32 70.9964 987.338 76.6952C983.394 82.3529 981.365 90.2246 981.251 100.31V106.89C981.251 117.181 983.243 125.278 987.225 131.182C991.245 137.045 996.762 139.976 1003.78 139.976C1010.83 139.976 1016.29 137.209 1020.16 131.674C1024.03 126.098 1026.02 118.124 1026.13 107.751V101.11Z" fill="#9900CC"/>
</svg>
