<?xml version="1.0" encoding="utf-8"?>
<!-- Generator: Adobe Illustrator 16.0.0, SVG Export Plug-In . SVG Version: 6.00 Build 0)  -->
<!DOCTYPE svg PUBLIC "-//W3C//DTD SVG 1.1//EN" "http://www.w3.org/Graphics/SVG/1.1/DTD/svg11.dtd">
<svg version="1.1" id="Layer_1" xmlns="http://www.w3.org/2000/svg" xmlns:xlink="http://www.w3.org/1999/xlink" x="0px" y="0px"
	 width="100px" height="100px" viewBox="0 -76 100 100" enable-background="new 0 -76 100 100" xml:space="preserve">
<g>
	<path fill-rule="evenodd" clip-rule="evenodd" fill="#1CB0A9" d="M81.387-29.348c1.665,0,3.401-0.017,5.138,0.004
		c1.774,0.022,3.081,1.046,3.391,2.61c0.396,1.998-0.936,3.818-2.98,3.945c-1.468,0.09-2.945,0.031-4.419,0.038
		c-0.396,0.002-0.794,0-1.26,0c-0.901,7.368-3.92,13.678-9.119,18.903C66.938,1.377,60.592,4.256,53.254,5.13
		c0,1.919,0.035,3.792-0.011,5.663c-0.034,1.384-0.743,2.395-2.021,2.927c-1.281,0.533-2.479,0.293-3.507-0.628
		c-0.736-0.661-1.056-1.524-1.053-2.513c0.006-1.793,0.001-3.585,0.001-5.274C30.892,2.364,21.551-6.854,18.675-22.75
		c-1.13,0-2.382,0.001-3.634,0c-0.562,0-1.126,0.013-1.688-0.008c-1.956-0.071-3.333-1.435-3.338-3.286
		c-0.004-1.847,1.384-3.243,3.33-3.29c1.473-0.036,2.947-0.009,4.42-0.01c0.32,0,0.64,0,0.926,0
		c2.763-15.895,12.133-25.112,27.976-28.088c0-1.678-0.022-3.494,0.005-5.309c0.036-2.354,2.369-3.897,4.542-3
		c1.315,0.543,2.007,1.583,2.034,3.001c0.034,1.792,0.008,3.586,0.008,5.339C69.193-54.657,78.434-45.28,81.387-29.348z
		 M75.161-29.343c-0.854-5.871-3.297-10.8-7.46-14.859c-4.012-3.912-8.809-6.206-14.446-6.989c0,1.596,0.019,3.065-0.005,4.535
		c-0.026,1.678-1.267,3.042-2.893,3.231c-1.649,0.192-3.163-0.816-3.561-2.455c-0.142-0.586-0.117-1.219-0.127-1.832
		c-0.018-1.135-0.005-2.271-0.005-3.417c-11.945,1.42-20.78,11.684-21.647,21.783c0.373,0,0.74-0.003,1.108,0
		c1.205,0.013,2.416-0.044,3.613,0.059c1.659,0.143,2.852,1.562,2.852,3.236c0,1.678-1.192,3.085-2.85,3.239
		c-1.037,0.097-2.087,0.047-3.131,0.058c-0.528,0.005-1.056,0.001-1.697,0.001c0.845,5.79,3.243,10.657,7.309,14.686
		c3.998,3.961,8.805,6.295,14.443,7.114c0-1.446-0.001-2.782,0-4.119c0.001-2.044,1.358-3.516,3.255-3.533
		c1.943-0.017,3.328,1.448,3.335,3.533c0.004,1.359,0.001,2.719,0.001,4.087c11.732-1.279,20.835-11.334,21.802-21.768
		c-0.292,0-0.58,0.001-0.867,0c-1.205-0.003-2.413,0.034-3.616-0.019c-1.928-0.085-3.288-1.628-3.168-3.521
		c0.109-1.723,1.489-3.006,3.333-3.045C72.178-29.368,73.616-29.343,75.161-29.343z"/>
	<path fill-rule="evenodd" clip-rule="evenodd" fill="#1CB0A9" d="M50.035-38C56.311-38.034,62.008-33.148,62-25.982
		C61.993-18.958,56.211-13.961,49.774-14c-5.479-0.033-11.948-4.814-11.771-12.237C38.16-32.778,43.452-38.047,50.035-38z"/>
</g>
</svg>
