<?xml version="1.0" encoding="utf-8"?>
<!-- Generator: Adobe Illustrator 16.0.0, SVG Export Plug-In . SVG Version: 6.00 Build 0)  -->
<!DOCTYPE svg PUBLIC "-//W3C//DTD SVG 1.1//EN" "http://www.w3.org/Graphics/SVG/1.1/DTD/svg11.dtd">
<svg version="1.1" id="Layer_1" xmlns="http://www.w3.org/2000/svg" xmlns:xlink="http://www.w3.org/1999/xlink" x="0px" y="0px"
	 width="100px" height="24px" viewBox="0 0 100 24" enable-background="new 0 0 100 24" xml:space="preserve">
<g>
	<path fill="#1CB0A9" d="M19.502,10.055l-4.851,3.861l1.576,6.033l-4.868-3.545l-5.025,3.6l1.842-6.053l-4.681-3.807L9.501,9.95
		l2.132-5.954l1.869,5.932L19.502,10.055z"/>
	<path fill="#1CB0A9" d="M38.753,10.055l-4.851,3.861l1.576,6.033l-4.868-3.545l-5.025,3.6l1.842-6.053l-4.681-3.807l6.006-0.194
		l2.132-5.954l1.869,5.932L38.753,10.055z"/>
	<path fill="#1CB0A9" d="M58.004,10.055l-4.851,3.861l1.576,6.033l-4.869-3.545l-5.025,3.6l1.842-6.053l-4.681-3.807l6.006-0.194
		l2.132-5.954l1.87,5.932L58.004,10.055z"/>
	<path fill="#1CB0A9" d="M77.254,10.055l-4.851,3.861l1.576,6.033l-4.868-3.545l-5.025,3.6l1.843-6.053l-4.682-3.807l6.006-0.194
		l2.133-5.954l1.869,5.932L77.254,10.055z"/>
	<path fill="#1CB0A9" d="M96.507,10.055l-4.851,3.861l1.576,6.033l-4.868-3.545l-5.025,3.6l1.843-6.053L80.5,10.144l6.006-0.194
		l2.133-5.954l1.869,5.932L96.507,10.055z"/>
</g>
</svg>
