<?xml version="1.0" encoding="utf-8"?>
<!-- Generator: Adobe Illustrator 16.0.0, SVG Export Plug-In . SVG Version: 6.00 Build 0)  -->
<!DOCTYPE svg PUBLIC "-//W3C//DTD SVG 1.1//EN" "http://www.w3.org/Graphics/SVG/1.1/DTD/svg11.dtd">
<svg version="1.1" id="Layer_1" xmlns="http://www.w3.org/2000/svg" xmlns:xlink="http://www.w3.org/1999/xlink" x="0px" y="0px"
	 width="100px" height="100px" viewBox="0 0 100 100" enable-background="new 0 0 100 100" xml:space="preserve">
<g id="Service_Buyer">
	<path fill="#FFFA9A" d="M51.748,55.156c1.546-0.861,2.606-2.495,2.606-4.396c0-1.918-1.065-3.642-2.781-4.5l-15.278-7.64
		c-1.948-0.975-4.103-1.516-6.275-1.635c2.452-2.131,4.012-5.264,4.012-8.761c0-6.403-5.21-11.613-11.613-11.613
		c-6.403,0-11.613,5.21-11.613,11.613c0,3.655,1.701,6.917,4.35,9.048C9.349,38.601,5,43.797,5,50v14.517
		c0,4.002,3.256,7.258,7.258,7.258v17.419c0,3.202,2.604,5.807,5.806,5.807c1.744,0,3.29-0.787,4.355-2.006
		C23.485,94.213,25.031,95,26.774,95c3.202,0,5.806-2.604,5.806-5.807V48.692l14.66,6.662c0.527,0.241,1.089,0.359,1.661,0.407
		l6.538,22.229c-1.492,0.691-2.536,2.193-2.536,3.944c0,1.74,1.033,3.234,2.513,3.931c-0.663,0.943-1.062,2.088-1.062,3.327
		c0,3.202,2.604,5.807,5.807,5.807s5.807-2.604,5.807-5.807c0-1.062-0.308-2.045-0.808-2.903h16.132
		c-0.5,0.858-0.809,1.841-0.809,2.903c0,3.202,2.604,5.807,5.807,5.807s5.807-2.604,5.807-5.807s-2.604-5.807-5.807-5.807H57.258
		c-0.801,0-1.451-0.651-1.451-1.451s0.65-1.452,1.451-1.452H91.81l3.157-14.2L95,63.064H54.074L51.748,55.156z M13.709,28.226
		c0-4.803,3.906-8.709,8.71-8.709c4.803,0,8.709,3.906,8.709,8.709c0,4.804-3.906,8.71-8.709,8.71
		C17.616,36.936,13.709,33.029,13.709,28.226z M32.896,45.645h-3.218v43.549c0,1.602-1.302,2.903-2.903,2.903
		c-1.602,0-2.903-1.302-2.903-2.903v-27.58h-2.903v27.58c0,1.602-1.302,2.903-2.903,2.903s-2.903-1.302-2.903-2.903V47.097h-2.903
		v21.774c-2.401,0-4.355-1.954-4.355-4.354V50c0-5.604,4.56-10.161,10.161-10.161h11.09c2.018,0,4.037,0.478,5.841,1.379
		l15.278,7.64c0.726,0.363,1.177,1.092,1.177,1.918c0,1.173-0.953,2.128-2.128,2.128c-0.306,0-0.603-0.063-0.88-0.19L32.896,45.645z
		 M63.064,89.193c0,1.602-1.302,2.903-2.903,2.903c-1.601,0-2.903-1.302-2.903-2.903c0-1.601,1.303-2.903,2.903-2.903
		C61.763,86.29,63.064,87.593,63.064,89.193z M89.193,89.193c0,1.602-1.302,2.903-2.903,2.903c-1.601,0-2.903-1.302-2.903-2.903
		c0-1.601,1.303-2.903,2.903-2.903C87.892,86.29,89.193,87.593,89.193,89.193z M92.062,65.968l-2.579,11.613H58.346L54.93,65.968
		H92.062z"/>
	<path fill="#FFFA9A" d="M73.226,42.742c8.804,0,15.968-7.164,15.968-15.968c0-8.804-7.164-15.968-15.968-15.968
		S57.258,17.97,57.258,26.774C57.258,35.578,64.422,42.742,73.226,42.742z M73.226,13.709c7.204,0,13.064,5.862,13.064,13.065
		c0,7.202-5.86,13.064-13.064,13.064s-13.064-5.862-13.064-13.064C60.161,19.571,66.021,13.709,73.226,13.709z"/>
	<path fill="#FFFA9A" d="M73.226,31.129c-0.801,0-1.451-0.651-1.451-1.452h-2.903c0,1.89,1.218,3.487,2.903,4.088v3.17h2.903v-2.903
		h2.903v-4.355c0-2.401-1.954-4.354-4.355-4.354c-0.801,0-1.451-0.652-1.451-1.452v-1.452h1.451c0.802,0,1.452,0.652,1.452,1.452
		h2.903c0-1.89-1.219-3.487-2.903-4.088v-3.17h-2.903v2.903h-2.903v4.355c0,2.401,1.954,4.354,4.354,4.354
		c0.802,0,1.452,0.652,1.452,1.452v1.452H73.226z"/>
	<path fill="#FFFA9A" d="M80.483,25.323h2.903v2.903h-2.903V25.323z"/>
	<path fill="#FFFA9A" d="M63.064,25.323h2.903v2.903h-2.903V25.323z"/>
	<path fill="#FFFA9A" d="M63.064,46.017V62.51l10.161-5.08l10.161,5.08V46.017C90.285,42.359,95,35.111,95,26.774
		C95,14.768,85.232,5,73.226,5C61.22,5,51.451,14.768,51.451,26.774C51.451,35.111,56.167,42.36,63.064,46.017z M65.968,47.278
		c1.836,0.651,3.781,1.062,5.807,1.196v6.434l-5.807,2.903V47.278z M80.483,57.812l-5.806-2.903v-6.434
		c2.024-0.135,3.97-0.544,5.806-1.196V57.812z M73.226,7.903c10.405,0,18.871,8.466,18.871,18.871s-8.466,18.87-18.871,18.87
		s-18.871-8.465-18.871-18.87S62.82,7.903,73.226,7.903z"/>
	<path fill="#FFFA9A" d="M80.483,68.871h2.903v5.807h-2.903V68.871z"/>
	<path fill="#FFFA9A" d="M71.774,68.871h2.903v5.807h-2.903V68.871z"/>
	<path fill="#FFFA9A" d="M63.064,68.871h2.903v5.807h-2.903V68.871z"/>
</g>
</svg>
