<?xml version="1.0" encoding="utf-8"?>
<!-- Generator: Adobe Illustrator 16.0.0, SVG Export Plug-In . SVG Version: 6.00 Build 0)  -->
<!DOCTYPE svg PUBLIC "-//W3C//DTD SVG 1.1//EN" "http://www.w3.org/Graphics/SVG/1.1/DTD/svg11.dtd">
<svg version="1.1" id="Layer_1" xmlns="http://www.w3.org/2000/svg" xmlns:xlink="http://www.w3.org/1999/xlink" x="0px" y="0px"
	 width="100px" height="100px" viewBox="0 0 100 100" enable-background="new 0 0 100 100" xml:space="preserve">
<g id="Consultant">
	<path fill-rule="evenodd" clip-rule="evenodd" fill="#FFFA9A" d="M5,92.068c4.334,0,8.669,0,13.044,0c0-7.732,0-15.422,0-23.193
		c-0.932,0-1.851,0-2.815,0c0-2.93,0-5.781,0-8.689c1.88,0,3.758,0,5.744,0c0-0.318-0.003-0.578,0.001-0.838
		c0.028-1.861-0.102-3.744,0.126-5.58c0.296-2.373,1.793-3.926,4.07-4.635c1.967-0.612,3.966-1.126,5.994-1.695
		c0-0.801,0.016-1.57-0.012-2.34c-0.006-0.177-0.124-0.387-0.254-0.516c-1.706-1.701-2.644-3.751-2.621-6.158
		c0.017-1.808-0.049-3.674,0.364-5.408c0.952-4.002,4.835-6.541,9.15-6.265c3.759,0.239,7.192,3.362,7.706,7.221
		c0.334,2.516,0.543,5.099-0.455,7.528c-0.422,1.025-1.149,1.939-1.819,2.845c-0.269,0.363-0.487,0.657-0.457,1.131
		c0.04,0.632,0.01,1.27,0.01,1.965c1.736,0.484,3.443,1.016,5.176,1.437c2.855,0.692,4.536,2.426,4.973,5.373
		c0.107,0.021,0.214,0.062,0.32,0.062c2.478,0.004,4.954,0.01,7.431-0.006c0.221-0.002,0.498-0.104,0.652-0.256
		c2.455-2.43,4.893-4.876,7.332-7.32c0.044-0.045,0.07-0.109,0.048-0.073c-0.972-0.681-2.008-1.264-2.87-2.042
		c-1.592-1.437-2.556-3.286-2.633-5.438c-0.071-1.94-0.163-3.944,0.224-5.825c0.825-4.029,4.516-6.7,8.683-6.616
		c3.967,0.079,7.575,2.979,8.213,6.958c0.465,2.903,0.689,5.902-0.786,8.664c-0.454,0.85-1.092,1.6-1.685,2.45
		c2.543,1.435,2.902,3.883,2.665,6.61c1.986,0,3.884,0,5.831,0c0.014,0.287,0.034,0.506,0.034,0.727
		c0.002,5.953,0.021,11.906-0.006,17.859c-0.021,4.301-1.987,7.467-5.787,9.453c-0.834,0.436-1.783,0.648-2.784,0.998
		c0.378,3.785,0.764,7.658,1.158,11.621c5.353,0,10.676,0,16.035,0c0,1.055,0,2.023,0,2.992c-29.999,0-60,0-90,0
		C5,94.068,5,93.068,5,92.068z M21.018,68.885c0,0.992,0,1.91,0,2.895c1.442,0,2.842,0,4.278,0c0,0.986,0,1.906,0,2.928
		c-1.442,0-2.857,0-4.282,0c0,5.836,0,11.576,0,17.383c1.011,0,1.983-0.02,2.954,0.01c0.382,0.012,0.558-0.137,0.718-0.463
		c0.788-1.611,1.612-3.203,2.395-4.814c0.185-0.381,0.408-0.514,0.831-0.514c7.977,0.012,15.953,0.012,23.928,0
		c0.426-0.002,0.643,0.131,0.827,0.51c0.781,1.615,1.59,3.215,2.409,4.809c0.098,0.189,0.328,0.434,0.503,0.441
		c1.037,0.041,2.075,0.02,3.124,0.02c0-5.84,0-11.598,0-17.439c-10.17,0-20.291,0-30.393,0c0-1.006,0-1.924,0-2.896
		c10.165,0,20.268,0,30.384,0c0-0.992,0-1.926,0-2.867C46.115,68.885,33.596,68.885,21.018,68.885z M49.932,54.314
		c-0.236-1.309-0.93-2.1-2.112-2.441c-1.72-0.5-3.45-0.965-5.165-1.481c-0.488-0.146-0.781-0.096-1.153,0.313
		c-1.475,1.625-3.286,2.457-5.534,2.08c-1.508-0.25-2.655-1.1-3.676-2.179c-0.151-0.159-0.46-0.328-0.639-0.28
		c-1.926,0.519-3.85,1.047-5.754,1.639c-1.248,0.387-1.963,1.385-1.99,2.715c-0.035,1.725-0.01,3.451-0.008,5.178
		c0,0.084,0.035,0.166,0.057,0.271c6.833,0,13.638,0,20.512,0c-0.486-1.674-0.212-3.17,0.962-4.445
		C46.642,54.367,48.249,54.262,49.932,54.314z M61.718,71.771c0.272,0,0.516,0,0.759,0c3.455,0,6.91,0.002,10.364,0
		c3.038-0.002,4.822-1.791,4.823-4.832c0.002-5.566,0-11.137,0-16.703c0-0.208,0-0.415,0-0.622c-0.376,1.278-1.215,2.187-2.11,3.075
		c-3.033,3.01-6.055,6.031-9.055,9.072c-0.251,0.254-0.435,0.691-0.444,1.049c-0.044,1.75-0.02,3.5-0.02,5.25
		c0,0.244,0,0.486,0,0.803c-1.483,0-2.882,0-4.317,0C61.718,69.855,61.718,70.771,61.718,71.771z M65.953,36.881
		c0.035,0.003,0.068,0.005,0.104,0.008c0,0.59-0.029,1.182,0.005,1.77c0.177,3.046,2.556,5.374,5.612,5.513
		c2.859,0.13,5.528-2.055,5.867-4.988c0.173-1.497,0.151-3.043-0.003-4.546c-0.284-2.767-2.584-4.795-5.439-4.984
		c-2.62-0.174-5.195,1.651-5.844,4.264C66.017,34.871,66.046,35.891,65.953,36.881z M42.813,36.954c-0.014,0-0.029,0-0.045-0.001
		c0-0.567,0.021-1.136-0.003-1.702c-0.133-3.159-2.774-5.675-5.872-5.608c-3.203,0.068-5.708,2.605-5.726,5.808
		c-0.007,0.953-0.012,1.907,0.002,2.859c0.044,3.18,2.31,5.593,5.485,5.851c2.836,0.231,5.515-1.923,6.024-4.899
		C42.808,38.506,42.773,37.724,42.813,36.954z M63.084,63.094c-15.038,0-29.996,0-44.953,0c0,0.973,0,1.893,0,2.807
		c15.006,0,29.965,0,44.953,0C63.084,64.943,63.084,64.043,63.084,63.094z M80.554,54.354c0,0.279,0,0.521,0,0.764
		c0,3.977,0.002,7.949-0.003,11.924c-0.001,0.453,0.005,0.914-0.068,1.357c-0.621,3.805-3.516,6.252-7.46,6.279
		c-3.496,0.021-6.994,0.004-10.491,0.004c-0.263,0-0.525,0-0.798,0c0,1.02,0,1.936,0,2.883c0.185,0.01,0.317,0.025,0.45,0.025
		c4.655,0,9.312,0.006,13.965-0.008c0.541-0.002,1.093-0.062,1.621-0.18c3.359-0.744,5.656-3.623,5.679-7.207
		c0.035-5.088,0.011-10.174,0.007-15.262c0-0.193-0.037-0.385-0.059-0.58C82.431,54.354,81.53,54.354,80.554,54.354z M56.08,60.158
		c2.406,0,4.813-0.016,7.22,0.014c0.5,0.006,0.834-0.154,1.18-0.502c2.765-2.791,5.548-5.562,8.325-8.34
		c0.497-0.498,1.016-0.978,1.483-1.503c0.87-0.977,0.399-2.458-0.856-2.721c-0.694-0.145-1.218,0.183-1.693,0.659
		c-2.982,2.99-5.979,5.965-8.953,8.965c-0.367,0.369-0.737,0.51-1.252,0.506c-4.109-0.016-8.22-0.01-12.329-0.008
		c-0.272,0-0.544,0.014-0.815,0.037c-0.617,0.055-0.986,0.428-1.176,0.984c-0.33,0.967,0.395,1.896,1.51,1.904
		C51.175,60.168,53.627,60.158,56.08,60.158z M61.729,80.5c0,3.887,0,7.711,0,11.537c2.849,0,5.648,0,8.5,0
		c-0.389-3.883-0.772-7.709-1.155-11.537C66.584,80.5,64.184,80.5,61.729,80.5z M27.735,92.041c8.142,0,16.168,0,24.282,0
		c-0.42-0.842-0.826-1.598-1.176-2.381c-0.168-0.377-0.399-0.467-0.783-0.463c-2.25,0.016-4.499,0.006-6.749,0.006
		c-4.521,0-9.042-0.002-13.564,0.01c-0.239,0.002-0.603,0.074-0.694,0.234C28.584,90.268,28.188,91.131,27.735,92.041z
		 M71.999,80.514c0.386,3.867,0.769,7.697,1.152,11.535c0.998,0,1.918,0,2.892,0c-0.388-3.873-0.771-7.701-1.154-11.535
		C73.896,80.514,72.974,80.514,71.999,80.514z M34.113,46.573c-0.18,1.608,0.154,2.284,1.479,3.017
		c1.144,0.632,2.22,0.449,3.229-0.32c1.029-0.785,1.269-1.449,0.933-2.687C37.885,47.247,35.994,47.207,34.113,46.573z"/>
	<path fill-rule="evenodd" clip-rule="evenodd" fill="#FFFA9A" d="M74.682,4.932c0.021,0.179,0.061,0.357,0.061,0.536
		c0.003,4.455,0.003,8.908,0.001,13.363c0,0.178-0.026,0.355-0.046,0.624c-0.29,0-0.556,0-0.82,0c-4.114,0-8.228,0.009-12.341-0.01
		c-0.559-0.004-0.983,0.146-1.412,0.508c-3.124,2.639-6.269,5.254-9.407,7.875c-0.173,0.144-0.354,0.276-0.643,0.5
		c0-2.991,0-5.875,0-8.855c-3.437,0-6.783,0-10.165,0c0-4.912,0-9.727,0-14.541C51.5,4.932,63.091,4.932,74.682,4.932z
		 M42.821,7.853c0,2.905,0,5.772,0,8.723c3.391,0,6.738,0,10.184,0c0,1.869,0,3.659,0,5.562c2.12-1.771,4.13-3.438,6.124-5.125
		c0.383-0.324,0.765-0.482,1.282-0.479c3.543,0.022,7.087,0.012,10.63,0.012c0.243,0,0.485,0,0.736,0c0-2.947,0-5.813,0-8.692
		C62.1,7.853,52.478,7.853,42.821,7.853z"/>
	<path fill-rule="evenodd" clip-rule="evenodd" fill="#FFFA9A" d="M63.075,10.765c0,0.956,0,1.878,0,2.847c-3.83,0-7.655,0-11.527,0
		c0-0.929,0-1.867,0-2.847C55.384,10.765,59.21,10.765,63.075,10.765z"/>
	<path fill-rule="evenodd" clip-rule="evenodd" fill="#FFFA9A" d="M48.564,10.781c0,1.018,0,1.914,0,2.844c-0.957,0-1.875,0-2.841,0
		c0-0.946,0-1.879,0-2.844C46.692,10.781,47.626,10.781,48.564,10.781z"/>
	<path fill-rule="evenodd" clip-rule="evenodd" fill="#FFFA9A" d="M66.078,13.615c0-0.972,0-1.894,0-2.848c0.964,0,1.885,0,2.835,0
		c0,0.964,0,1.884,0,2.848C67.972,13.615,67.053,13.615,66.078,13.615z"/>
</g>
</svg>
