<?xml version="1.0" encoding="utf-8"?>
<!-- Generator: Adobe Illustrator 16.0.0, SVG Export Plug-In . SVG Version: 6.00 Build 0)  -->
<!DOCTYPE svg PUBLIC "-//W3C//DTD SVG 1.1//EN" "http://www.w3.org/Graphics/SVG/1.1/DTD/svg11.dtd">
<svg version="1.1" id="Layer_1" xmlns="http://www.w3.org/2000/svg" xmlns:xlink="http://www.w3.org/1999/xlink" x="0px" y="0px"
	 width="100px" height="100px" viewBox="0 0 100 100" enable-background="new 0 0 100 100" xml:space="preserve">
<g id="Service_Seller">
	<path fill-rule="evenodd" clip-rule="evenodd" fill="#7CD8BF" d="M94.979,94.99c-21.288,0-42.511,0-63.779,0
		c0-3.842,0-7.641,0-11.527c2.126,0,4.259,0,6.451,0c-1.236-3.309-0.504-6.652-0.676-9.938c-0.077-1.479,0.003-2.964-0.02-4.446
		c-0.015-1.017-0.501-1.609-1.451-1.617c-3.835-0.032-7.67-0.014-11.611-0.014c0,0.386,0,0.708,0,1.03
		c0,6.866,0.008,13.732-0.004,20.599c-0.005,2.899-1.85,5.221-4.542,5.785c-3.73,0.781-7.042-1.848-7.062-5.666
		c-0.028-5.656-0.008-11.313-0.008-16.97c0-2.723,0-5.444,0-8.167c0-0.297,0-0.595,0-0.936c-1.795-0.113-3.377-0.613-4.703-1.775
		c-1.636-1.434-2.532-3.237-2.544-5.407C5,50.83,4.976,45.717,5.04,40.605c0.068-5.474,4.229-10.479,9.83-11.97
		c0.172-0.045,0.345-0.086,0.67-0.167c-2.719-2.797-3.824-6.037-3.001-9.802c0.538-2.463,1.928-4.415,3.933-5.912
		c3.888-2.904,9.452-2.469,12.99,0.898c3.115,2.964,4.982,9.092,0.241,14.52c7.26,0,14.462,0,21.723,0c0-1.007,0-2.021,0-3.157
		c-1.601-0.406-3.247-0.866-4.913-1.225c-0.669-0.145-0.867-0.409-0.853-1.08c0.044-2.086,0.051-4.175-0.003-6.261
		c-0.02-0.736,0.185-1.029,0.924-1.211c9.059-2.234,18.106-4.515,27.163-6.756c0.716-0.177,1.186-0.42,1.531-1.153
		c0.823-1.745,2.906-2.657,4.716-2.22c2.073,0.501,3.416,2.148,3.43,4.332c0.026,4.204,0.009,8.409,0.009,12.613
		c0,2.48,0.008,4.961-0.003,7.441c-0.01,2.306-1.392,4.021-3.586,4.484c-1.9,0.4-3.823-0.668-4.776-2.631
		c-0.106-0.219-0.306-0.494-0.513-0.547c-3.771-0.967-7.549-1.903-11.451-2.878c0,0.379,0,0.667,0,0.956
		c0,3.055,0.004,6.11-0.001,9.165c-0.006,3.438-2.342,6.006-5.591,6.157c-3.155,0.146-5.646-2.138-6.024-5.524
		c-0.007-0.059-0.028-0.115-0.068-0.273c-0.269,0-0.563,0-0.858,0c-5.293,0-10.586-0.002-15.88,0c-1.662,0-2.07,0.417-2.07,2.099
		c0,4.749,0,9.497,0,14.247c0,0.326,0,0.651,0,1.079c0.91,0,1.747-0.002,2.584,0c7.594,0.015,13.326,5.688,13.384,13.276
		c0.028,3.721,0.043,7.441-0.02,11.161c-0.018,1.028-0.338,2.051-0.523,3.105c1.045,0,2.201,0,3.428,0c0-2.869,0-5.701,0-8.632
		c6.792,0,13.517,0,20.342,0c0-2.951,0-5.806,0-8.702c7.771,0,15.441,0,23.179,0C94.979,75.665,94.979,85.293,94.979,94.99z
		 M29.702,58.73c0-0.42,0-0.718,0-1.017c0-5.867,0-11.735,0-17.603c0-2.763,1.838-4.611,4.587-4.613c5.384-0.002,10.768,0,16.151,0
		c0.322,0,0.646,0,0.979,0c0-1.504,0-2.904,0-4.279c-0.089-0.035-0.115-0.055-0.143-0.055c-6.744-0.008-13.489-0.021-20.233-0.001
		c-0.296,0.001-0.666,0.244-0.876,0.483c-1.479,1.678-2.925,3.387-4.383,5.084c-1.097,1.277-2.196,2.552-3.329,3.869
		c-0.243-0.27-0.426-0.463-0.6-0.666c-2.205-2.57-4.415-5.139-6.605-7.721c-0.308-0.363-0.566-0.549-1.054-0.322
		c-3.704,1.725-6.041,4.568-6.215,8.664c-0.219,5.162-0.091,10.342-0.039,15.514c0.023,2.29,2.019,4.116,4.333,4.066
		c0-7.213,0-14.428,0-21.678c1.004,0,1.92,0,2.905,0c0,0.408,0,0.767,0,1.125c0,16.272,0,32.545,0,48.817
		c0,0.362-0.019,0.729,0.021,1.088c0.133,1.189,0.776,2.021,1.881,2.45c1.088,0.423,2.079,0.17,2.945-0.588
		c0.796-0.697,0.967-1.615,0.966-2.625C20.986,78.622,20.99,68.52,20.99,58.417c0-0.353,0-0.707,0-1.078c1.015,0,1.932,0,2.947,0
		c0,2.429,0,4.799,0,7.2c3.758,0,7.417,0,11.075,0c3.079,0,4.849,1.754,4.853,4.822c0.006,3.6-0.003,7.199,0.004,10.799
		c0.004,1.931,1.189,3.253,2.891,3.252c1.71,0,2.908-1.319,2.913-3.237c0.008-3.66,0.017-7.319-0.001-10.979
		c-0.029-6.066-4.441-10.45-10.51-10.464C33.381,58.728,31.601,58.73,29.702,58.73z M92.075,92.09c0-7.768,0-15.458,0-23.12
		c-5.82,0-11.575,0-17.31,0c0,7.743,0,15.412,0,23.12C80.549,92.09,86.282,92.09,92.075,92.09z M74.675,11.232
		c-8.76,2.19-17.412,4.354-26.06,6.516c0,1.229,0,2.371,0,3.556c8.683,2.17,17.341,4.334,26.06,6.513
		C74.675,22.27,74.675,16.811,74.675,11.232z M71.772,77.672c-5.828,0-11.583,0-17.312,0c0,4.852,0,9.639,0,14.408
		c5.806,0,11.539,0,17.312,0C71.772,87.267,71.772,82.501,71.772,77.672z M15.182,20.883c0.014,4.119,3.229,7.368,7.272,7.352
		c3.952-0.017,7.254-3.304,7.244-7.211c-0.01-4.021-3.26-7.298-7.244-7.305C18.485,13.711,15.169,16.979,15.182,20.883z
		 M34.098,92.063c5.832,0,11.585,0,17.31,0c0-1.949,0-3.834,0-5.694c-5.807,0-11.539,0-17.31,0
		C34.098,88.28,34.098,90.143,34.098,92.063z M54.388,25.748c0,4.21-0.005,8.26,0.002,12.309c0.003,1.926,1.193,3.248,2.896,3.246
		c1.709-0.003,2.903-1.322,2.908-3.24c0.008-3.387,0.003-6.773,0-10.159c0-0.236-0.029-0.471-0.047-0.721
		C58.237,26.707,56.366,26.241,54.388,25.748z M77.62,19.44c0,3.297-0.004,6.594,0.003,9.891c0.002,1.171,0.526,1.807,1.451,1.799
		s1.447-0.645,1.448-1.811c0.004-6.534,0.005-13.067-0.001-19.601c-0.001-1.166-0.538-1.807-1.461-1.8
		c-0.926,0.007-1.438,0.641-1.438,1.812C77.618,12.967,77.62,16.204,77.62,19.44z M26.686,31.218c-2.859,0-5.598,0-8.49,0
		c1.455,1.696,2.832,3.3,4.25,4.954C23.891,34.482,25.244,32.902,26.686,31.218z"/>
	<path fill-rule="evenodd" clip-rule="evenodd" fill="#7CD8BF" d="M85.496,12.127c-0.443-0.891-0.843-1.693-1.287-2.584
		c2.901-1.455,5.746-2.881,8.675-4.35c0.441,0.863,0.859,1.679,1.318,2.576C91.291,9.226,88.442,10.652,85.496,12.127z"/>
	<path fill-rule="evenodd" clip-rule="evenodd" fill="#7CD8BF" d="M84.201,29.554c0.459-0.905,0.863-1.706,1.307-2.582
		c2.887,1.444,5.735,2.87,8.681,4.344c-0.422,0.861-0.826,1.684-1.271,2.591C90.02,32.459,87.17,31.037,84.201,29.554z"/>
	<path fill-rule="evenodd" clip-rule="evenodd" fill="#7CD8BF" d="M86.395,18.116c2.904,0,5.732,0,8.605,0c0,0.936,0,1.831,0,2.793
		c-2.844,0-5.693,0-8.605,0C86.395,20.009,86.395,19.093,86.395,18.116z"/>
</g>
</svg>
