<?xml version="1.0" encoding="utf-8"?>
<!-- Generator: Adobe Illustrator 16.0.0, SVG Export Plug-In . SVG Version: 6.00 Build 0)  -->
<!DOCTYPE svg PUBLIC "-//W3C//DTD SVG 1.1//EN" "http://www.w3.org/Graphics/SVG/1.1/DTD/svg11.dtd">
<svg version="1.1" id="Layer_1" xmlns="http://www.w3.org/2000/svg" xmlns:xlink="http://www.w3.org/1999/xlink" x="0px" y="0px"
	 width="100px" height="100px" viewBox="0 0 100 100" enable-background="new 0 0 100 100" xml:space="preserve">
<path fill-rule="evenodd" clip-rule="evenodd" fill="#B2B2B2" d="M26.588,26.38c0.312,0,0.587,0,0.862,0
	c19.456,0,38.912-0.005,58.367,0.022c0.684,0,1.451,0.17,2.03,0.513c1.047,0.622,1.302,1.689,1.075,2.856
	c-1.574,8.111-3.152,16.221-4.731,24.332c-0.398,2.044-0.806,4.087-1.197,6.131c-0.367,1.913-1.255,2.664-3.187,2.664
	c-14.985,0-29.971,0-44.957,0c-0.345,0-0.689,0-1.152,0c0.325,1.687,0.637,3.307,0.964,5.002c0.327,0,0.622,0,0.918,0
	c14.105,0.001,28.21-0.004,42.316,0.004c3.847,0.002,7.082,2.285,8.303,5.812c1.221,3.53,0.044,7.437-2.926,9.708
	c-2.982,2.282-7.089,2.377-10.193,0.234c-3.061-2.112-4.425-5.98-3.37-9.566c0.069-0.239,0.148-0.477,0.238-0.767
	c-9.626,0-19.183,0-28.785,0c0.15,0.662,0.332,1.277,0.427,1.907c0.663,4.366-1.992,8.472-6.224,9.652
	c-4.192,1.169-8.614-0.966-10.306-4.975c-1.692-4.012-0.15-8.65,3.645-10.836c0.498-0.287,0.602-0.551,0.497-1.085
	c-3.068-15.647-6.126-31.297-9.162-46.952c-0.133-0.687-0.396-0.876-1.074-0.863c-2.362,0.042-4.725,0.034-7.087,0.01
	c-1.974-0.02-3.258-1.625-2.781-3.425c0.284-1.07,1.236-1.925,2.363-1.936c3.613-0.036,7.226-0.04,10.839-0.001
	c1.255,0.014,2.18,0.942,2.441,2.27c0.564,2.861,1.118,5.724,1.678,8.585C26.464,25.9,26.525,26.119,26.588,26.38z M83.028,31.812
	c-18.513,0-36.914,0-55.36,0c0.022,0.218,0.025,0.4,0.06,0.575c1.589,8.13,3.191,16.256,4.753,24.391
	c0.123,0.644,0.385,0.74,0.951,0.739c14.565-0.012,29.129-0.009,43.695-0.009c0.275,0,0.551,0,0.902,0
	C79.694,48.944,81.355,40.414,83.028,31.812z M33.044,73.293c-1.798-0.002-3.271,1.465-3.271,3.255c0,1.78,1.488,3.268,3.27,3.269
	c1.787,0,3.265-1.479,3.267-3.269C36.311,74.752,34.846,73.293,33.044,73.293z M74.76,76.541c-0.005,1.801,1.458,3.272,3.249,3.271
	c1.796,0,3.271-1.469,3.275-3.256c0.003-1.793-1.462-3.26-3.261-3.265C76.219,73.286,74.763,74.735,74.76,76.541z"/>
</svg>
