<?xml version="1.0" encoding="utf-8"?>
<!-- Generator: Adobe Illustrator 16.0.0, SVG Export Plug-In . SVG Version: 6.00 Build 0)  -->
<!DOCTYPE svg PUBLIC "-//W3C//DTD SVG 1.1//EN" "http://www.w3.org/Graphics/SVG/1.1/DTD/svg11.dtd">
<svg version="1.1" id="Layer_1" xmlns="http://www.w3.org/2000/svg" xmlns:xlink="http://www.w3.org/1999/xlink" x="0px" y="0px"
	 width="100px" height="100px" viewBox="0 0 100 100" enable-background="new 0 0 100 100" xml:space="preserve">
<path fill="#390064" d="M71.12,18.02H28.88c-5.971,0-10.86,4.887-10.86,10.861V71.12c0,5.973,4.888,10.86,10.86,10.86h42.24
	c5.976,0,10.86-4.887,10.86-10.86V28.881C81.98,22.908,77.096,18.02,71.12,18.02z M61.094,35.509c-0.238,0-0.412,0-0.587,0
	c-1.427,0.002-2.851-0.035-4.278,0.013c-1.953,0.072-3.4,0.816-3.47,3.255c-0.049,1.781-0.067,5.885-0.067,5.885
	s4.588,0.008,6.586,0c0.507-0.002,1.014,0,1.58,0c-0.369,2.839-0.721,5.564-1.082,8.318h-7.027V73.76H44.13V52.945h-7.053v-8.279
	h7.094v-0.623c-0.004-1.665-0.037-3.328,0.005-4.993c0.028-1.059,0.077-2.138,0.259-3.181c0.442-2.526,1.604-4.665,3.724-6.188
	c1.843-1.323,3.957-1.868,6.19-1.914c1.465-0.033,2.93,0.039,4.391,0.104c0.796,0.038,1.593,0.149,2.354,0.226V35.509z"/>
</svg>
