<?xml version="1.0" encoding="utf-8"?>
<!-- Generator: Adobe Illustrator 16.0.0, SVG Export Plug-In . SVG Version: 6.00 Build 0)  -->
<!DOCTYPE svg PUBLIC "-//W3C//DTD SVG 1.1//EN" "http://www.w3.org/Graphics/SVG/1.1/DTD/svg11.dtd">
<svg version="1.1" id="Layer_1" xmlns="http://www.w3.org/2000/svg" xmlns:xlink="http://www.w3.org/1999/xlink" x="0px" y="0px"
	 width="100px" height="100px" viewBox="0 0 100 100" enable-background="new 0 0 100 100" xml:space="preserve">
<path fill="#390064" d="M71.122,18.018h-42.24c-5.975,0-10.864,4.888-10.864,10.864v42.24c0,5.971,4.888,10.86,10.864,10.86h42.24
	c5.972,0,10.86-4.889,10.86-10.86v-42.24C81.982,22.907,77.094,18.018,71.122,18.018z M38.935,70h-8.319V43.28h8.319V70z
	 M34.778,39.631c-2.667,0-4.824-2.161-4.824-4.819c0-2.655,2.157-4.812,4.824-4.812c2.658,0,4.812,2.157,4.812,4.812
	C39.59,37.47,37.437,39.631,34.778,39.631z M70.046,70h-8.299V57.01c0-3.101-0.063-7.088-4.317-7.088
	c-4.324,0-4.981,3.375-4.981,6.863V70h-8.302V43.28h7.965v3.656h0.111c1.107-2.107,3.817-4.319,7.864-4.319
	c8.409,0,9.959,5.53,9.959,12.728V70z"/>
</svg>
