<?xml version="1.0" encoding="utf-8"?>
<!-- Generator: Adobe Illustrator 16.0.0, SVG Export Plug-In . SVG Version: 6.00 Build 0)  -->
<!DOCTYPE svg PUBLIC "-//W3C//DTD SVG 1.1//EN" "http://www.w3.org/Graphics/SVG/1.1/DTD/svg11.dtd">
<svg version="1.1" id="Layer_1" xmlns="http://www.w3.org/2000/svg" xmlns:xlink="http://www.w3.org/1999/xlink" x="0px" y="0px"
	 width="100px" height="100px" viewBox="0 0 100 100" enable-background="new 0 0 100 100" xml:space="preserve">
<path fill-rule="evenodd" clip-rule="evenodd" fill="#959595" d="M57.429,50.085c-1.363-1.354-2.646-2.61-3.911-3.882
	c-5.467-5.495-10.937-10.987-16.39-16.497c-1.118-1.13-2.146-2.348-3.248-3.495c-1.748-1.822-0.771-4.97,1.617-5.822
	c0.43-0.153,0.879-0.257,1.327-0.353c0.401-0.086,0.805-0.018,1.153,0.192c0.487,0.293,0.996,0.579,1.41,0.961
	c2.098,1.936,4.217,3.853,6.238,5.867c5.736,5.716,11.437,11.469,17.131,17.228c1.095,1.108,2.104,2.302,3.142,3.467
	c0.242,0.273,0.435,0.591,0.646,0.892c0.698,0.991,0.553,1.998-0.035,2.952c-0.338,0.551-0.774,1.053-1.224,1.521
	c-2.345,2.443-4.677,4.899-7.071,7.292C52.55,66.067,46.856,71.697,41.167,77.33c-0.651,0.645-1.365,1.227-2.042,1.846
	c-0.979,0.896-2.113,0.989-3.315,0.623c-1.997-0.609-3.19-2.646-2.689-4.592c0.083-0.325,0.248-0.662,0.466-0.915
	c0.98-1.131,1.951-2.278,3.003-3.343c5.951-6.021,11.923-12.021,17.889-18.025c0.871-0.878,1.743-1.747,2.618-2.618
	C57.179,50.228,57.285,50.179,57.429,50.085z"/>
</svg>
