<?xml version="1.0" encoding="utf-8"?>
<!-- Generator: Adobe Illustrator 16.0.0, SVG Export Plug-In . SVG Version: 6.00 Build 0)  -->
<!DOCTYPE svg PUBLIC "-//W3C//DTD SVG 1.1//EN" "http://www.w3.org/Graphics/SVG/1.1/DTD/svg11.dtd">
<svg version="1.1" id="Layer_1" xmlns="http://www.w3.org/2000/svg" xmlns:xlink="http://www.w3.org/1999/xlink" x="0px" y="0px"
	 width="100px" height="100px" viewBox="0 0 100 100" enable-background="new 0 0 100 100" xml:space="preserve">
<path fill-rule="evenodd" clip-rule="evenodd" fill="#B2B2B2" d="M40.115,63.337c-7.741,7.771-15.488,15.536-23.234,23.302
	c-0.884,0.887-1.757,1.785-2.659,2.653c-0.78,0.751-1.9,0.91-2.833,0.453c-0.946-0.464-1.477-1.433-1.376-2.515
	c0.069-0.744,0.487-1.286,0.996-1.796c8.412-8.421,16.819-16.847,25.227-25.272c0.278-0.279,0.551-0.565,0.82-0.843
	C26.5,46.747,28.118,27.718,40.711,17.073C52.42,7.174,69.818,7.72,80.796,18.368c11.133,10.799,12.327,28.22,2.704,40.318
	c-4.838,6.082-11.129,9.825-18.826,10.996c-9.006,1.37-17.022-1.004-24.215-6.892C40.349,62.969,40.266,63.187,40.115,63.337z
	 M60.213,65.06c13.792-0.146,24.888-11.386,24.769-25.088C84.859,25.94,73.666,14.87,59.74,15.007
	c-13.676,0.136-24.768,11.435-24.65,25.109C35.209,54.053,46.443,65.205,60.213,65.06z"/>
</svg>
