<?xml version="1.0" encoding="utf-8"?>
<!-- Generator: Adobe Illustrator 16.0.0, SVG Export Plug-In . SVG Version: 6.00 Build 0)  -->
<!DOCTYPE svg PUBLIC "-//W3C//DTD SVG 1.1//EN" "http://www.w3.org/Graphics/SVG/1.1/DTD/svg11.dtd">
<svg version="1.1" id="Layer_1" xmlns="http://www.w3.org/2000/svg" xmlns:xlink="http://www.w3.org/1999/xlink" x="0px" y="0px"
	 width="100px" height="100px" viewBox="0 0 100 100" enable-background="new 0 0 100 100" xml:space="preserve">
<g id="Arts__x26__Crafts">
	<path fill="#390064" d="M96.159,86.965c-0.711-1.968-2.287-3.081-4.684-3.31c-1.593-0.151-3.188-0.284-4.782-0.417l-7.495-0.64
		c-4.338-0.372-8.675-0.745-13.013-1.122c-4.264-0.371-8.527-0.745-12.79-1.119L41.315,79.3c-5.547-0.482-11.095-0.966-16.64-1.477
		c-0.269-0.025-0.648-0.244-0.846-0.489c-1.566-1.939-4.037-3.099-6.61-3.099c-1.886,0-3.667,0.639-5.015,1.797
		c-1.548,1.329-2.994,2.812-4.392,4.246c-0.484,0.496-0.968,0.992-1.456,1.483c-0.773,0.777-0.86,1.777-0.226,2.61
		c0.428,0.562,0.85,1.13,1.271,1.697c1.167,1.57,2.374,3.194,3.699,4.684c1.544,1.737,3.685,2.694,6.027,2.694
		c2.146,0,4.195-0.705,5.771-2.189C23.119,91.051,23.544,91,23.905,91c0,0,0.001,0,0.002,0c9.497,0,18.993,0.709,28.489,1.135
		l11.105,0.451c4.614,0.215,9.228,0.401,13.841,0.613c2.995,0.139,5.99,0.258,8.985,0.392l4.492,0.193
		c0.122,0.006,0.243,0.006,0.364,0.006c1.565,0,2.84-0.497,3.788-1.474C96.46,90.784,96.87,88.933,96.159,86.965z M92.469,88.641
		c0.025,0.325-0.059,0.715-0.242,0.913C92.024,89.772,91.714,90,91.289,90c-0.001,0-0.002,0-0.003,0
		c-1.333,0-2.664-0.202-3.996-0.265l-44.743-2.095c-1.411-0.064-2.824-0.15-4.268-0.21l-1.771-0.089l0.288-4.4l0.478,0.031
		c0.679,0.048,1.341,0.093,2.002,0.15l9.432,0.832c4.349,0.385,8.699,0.77,13.047,1.149c4.528,0.396,9.057,0.786,13.586,1.176
		l9.062,0.78c2.246,0.192,4.491,0.385,6.735,0.593C92.4,87.771,92.449,88.402,92.469,88.641z M32.803,82.559l-0.3,4.585
		l-1.985-0.104l0.31-4.642L32.803,82.559z M26.838,82.154L26.514,87h-1.991l0.326-4.93L26.838,82.154z M18.883,89.069
		c-0.524,0.232-1.085,0.351-1.667,0.351c-1.251,0-2.458-0.545-3.312-1.496c-0.138-0.153-0.272-0.311-0.397-0.472l-2.934-3.805
		c0.389-0.426,0.768-0.854,1.145-1.278c1.047-1.181,2.036-2.297,3.149-3.289c0.627-0.559,1.486-0.866,2.418-0.866
		c1.246,0,2.444,0.53,3.205,1.418c0.231,0.27,0.396,0.73,0.384,1.071c-0.076,2.141-0.228,4.318-0.375,6.425l-0.027,0.381
		C20.416,88.329,19.778,88.673,18.883,89.069z"/>
	<path fill="#390064" d="M10.69,72.731c0.15,0.284,0.301,0.572,0.451,0.866l0.232,0.454l3.45-1.846l-0.325-0.737
		c-0.091-0.211-0.168-0.391-0.257-0.564C9.857,62.329,8.513,53.3,10.247,44.067c1.785-9.508,6.421-17.539,13.779-23.868
		c6.476-5.57,14.132-8.85,22.755-9.747c1.758-0.183,3.296-0.272,4.702-0.272c2.589,0,4.877,0.301,6.995,0.92
		c3.281,0.958,4.723,2.681,4.976,5.944c0.1,1.296,0.004,2.648-0.087,3.956l-0.051,0.733c-0.065,1.008-0.161,2.015-0.258,3.022
		c-0.171,1.798-0.349,3.657-0.343,5.498c0.017,4.978,2.874,8.5,7.643,9.422c0.979,0.19,2.037,0.279,3.33,0.279
		c0.902,0,1.808-0.044,2.656-0.089c1.307-0.07,2.624-0.218,3.898-0.362c1.409-0.159,2.865-0.323,4.294-0.378
		c3.731-0.146,5.893,1.399,7.003,5.05c0.376,1.231,0.614,2.428,0.71,3.556c0.906,10.77-1.888,20.56-8.305,29.098
		c-0.353,0.47-0.716,0.93-1.09,1.404l-0.817,1.041l2.994,2.568l0.687-0.81c0.263-0.308,0.504-0.59,0.77-0.927
		c0.476-0.604,0.952-1.209,1.399-1.834c5.231-7.322,8.102-15.592,8.531-24.581c0.151-3.158,0.142-7.305-1.282-11.38
		c-1.445-4.135-4.178-6.477-8.121-6.959c-1.639-0.202-3.766-0.131-5.729-0.024l-0.701,0.038c-1.148,0.06-2.308,0.189-3.429,0.298
		C75.656,35.81,74.104,36,72.586,36h-0.131c-3.203,0-5.254-1.826-5.626-4.979c-0.166-1.41-0.064-2.91,0.033-4.351
		c0.035-0.515,0.069-1.035,0.093-1.547c0.046-0.994,0.122-1.991,0.197-2.986c0.144-1.905,0.293-3.876,0.227-5.821
		c-0.116-3.4-1.852-6.126-5.019-7.88c-2.479-1.373-5.303-2.047-9.154-2.187C41.651,5.835,31.332,9.188,22.59,16.226
		C12.748,24.153,7.078,34.643,5.739,47.405c-0.831,7.913,0.527,15.819,4.034,23.5C10.054,71.52,10.368,72.118,10.69,72.731z"/>
	<path fill="#390064" d="M27.721,58.273c1.799-1.807,2.784-4.137,2.775-6.643c-0.02-5.231-4.278-9.465-9.498-9.465
		c-2.529,0.002-4.913,1.011-6.711,2.822c-1.808,1.821-2.794,4.147-2.778,6.701C11.544,56.869,15.804,61,21.005,61h0.002
		C23.53,61,25.915,60.088,27.721,58.273z M21,45.69v0.5c3,0,5.47,2.49,5.494,5.437c0.013,1.464-0.551,2.849-1.588,3.9
		c-1.039,1.053-2.42,1.638-3.915,1.646c-3.021,0-5.479-2.475-5.479-5.516c0.001-2.907,2.563-5.461,5.483-5.467L21,45.69L21,45.69z"
		/>
	<path fill="#390064" d="M50.993,12.203c-5.237,0-9.498,4.177-9.498,9.429c0,5.186,4.23,9.368,9.431,9.368h0.06
		c5.225,0,9.484-4.137,9.497-9.338C60.495,16.426,56.265,12.235,50.993,12.203z M51,16.205v-0.499l0,0l0.015,0.499
		c2.96,0.011,5.463,2.514,5.468,5.466c0.003,1.467-0.572,2.852-1.619,3.9c-1.039,1.042-2.41,1.615-3.886,1.615h0
		c-1.466-0.006-2.844-0.588-3.882-1.637c-1.04-1.051-1.603-2.438-1.593-3.907C45.52,18.745,48,16.205,51,16.205z M50.985,30.688
		L50.985,30.688v0.002V30.688z"/>
	<path fill="#390064" d="M36.537,23.809c-1.792-1.812-4.15-2.815-6.679-2.824c-5.237,0-9.52,4.211-9.546,9.387
		c-0.013,2.616,0.968,5.053,2.763,6.835C24.867,38.988,27.315,40,29.968,40H30c4.996,0,9.249-4.359,9.287-9.502
		C39.306,28.006,38.329,25.622,36.537,23.809z M24.306,30.452c-0.009-1.421,0.556-2.779,1.591-3.824
		c1.045-1.055,2.528-1.638,3.971-1.643L30,24.486l0,0v0.499c3,0,5.376,2.477,5.401,5.407c0.025,3.038-2.488,5.536-5.59,5.569
		C26.826,35.96,24.325,33.49,24.306,30.452z M30,39.469L30,39.469v0.001V39.469z"/>
	<path fill="#390064" d="M50.981,42.188c-2.532,0.003-4.915,1.001-6.71,2.81c-1.806,1.82-2.792,4.142-2.775,6.698
		C41.529,56.875,45.788,61,50.989,61h0.007c2.524,0,4.908-0.914,6.713-2.729c1.799-1.807,2.783-4.138,2.772-6.644
		C60.461,46.397,56.202,42.188,50.981,42.188z M51,46.189v-0.5l0,0V46.189c2.956,0.003,5.467,2.5,5.482,5.45
		c0.008,1.468-0.563,2.855-1.607,3.905c-1.041,1.048-2.421,1.626-3.887,1.627c-1.459,0-2.835-0.575-3.875-1.619
		c-1.046-1.05-1.616-2.438-1.611-3.91C45.51,48.737,48,46.189,51,46.189z M50.989,60.677L50.989,60.677L50.989,60.677L50.989,60.677
		z"/>
	<path fill="#390064" d="M90.469,51.67c-0.022-5.229-4.282-9.482-9.504-9.482c-2.531,0.003-4.913,1-6.708,2.81
		c-1.807,1.82-2.792,4.142-2.775,6.7C71.516,56.875,75.775,61,80.978,61h0.008c2.522,0,4.906-0.914,6.712-2.729
		C89.495,56.463,90.479,54.176,90.469,51.67z M81,46.189v-0.5l0,0l-0.006,0.5c2.959,0.005,5.464,2.503,5.479,5.453
		c0.007,1.469-0.567,2.854-1.613,3.905c-1.042,1.047-2.423,1.624-3.885,1.624c-1.46,0-2.838-0.576-3.878-1.621
		c-1.046-1.051-1.608-2.439-1.603-3.911C75.506,48.736,78,46.189,81,46.189z M80.978,60.677L80.978,60.677L80.978,60.677
		L80.978,60.677z"/>
	<path fill="#390064" d="M69.532,18.012c-0.009,1.243-0.127,2.518-0.241,3.751c-0.056,0.605-0.111,1.209-0.156,1.815
		c-0.046,0.64-0.102,1.28-0.157,1.921c-0.131,1.517-0.267,3.086-0.279,4.64c-0.021,2.422,1.361,3.792,3.893,3.859
		c0.181,0.005,0.362,0.007,0.543,0.007c0.521,0,1.042-0.019,1.561-0.051c1.313-0.081,2.639-0.235,3.92-0.385
		c1.859-0.217,3.782-0.442,5.694-0.442c0.854,0,1.645,0.043,2.415,0.132l0.494-0.036L87.722,29h-0.564
		c-0.492,0-0.979,0.084-1.461,0.075c-1.08-0.02-2.142,0.008-3.193,0.086c-1.302,0.095-2.599,0.256-3.896,0.394
		c-1.438,0.153-2.926,0.323-4.389,0.416c-0.361,0.023-0.662,0.045-0.911,0.045c-0.478,0-0.577-0.063-0.596-0.084
		c-0.128-0.138-0.068-0.966-0.028-1.516c0.102-1.417,0.244-2.83,0.387-4.245c0.149-1.478,0.304-3.006,0.407-4.517
		c0.251-3.663-0.27-6.761-1.591-9.472c-0.423-0.87-0.938-1.66-1.482-2.496c-0.242-0.372-0.487-0.748-0.726-1.134l-0.312-0.507
		l-3.126,2.771l0.323,0.374C68.588,11.53,69.56,14.416,69.532,18.012z"/>
	<path fill="#390064" d="M75.04,77.868l2.145,3.034l0.406-0.276c3.438-2.34,4.903-6.622,3.646-10.653
		c-1.237-3.97-4.902-6.552-9.382-6.577c-3.806,0-7.559,2.878-8.729,6.695c-1.171,3.812,0.173,8.071,3.194,10.126l0.381,0.26
		l2.324-2.878l-0.275-0.316c-2.554-2.934-2.704-6.119-0.394-8.312c1.06-1.004,2.43-1.558,3.86-1.558c1.461,0,2.84,0.574,3.882,1.616
		c2.326,2.327,2.039,5.44-0.787,8.543L75.04,77.868z"/>
	<path fill="#390064" d="M34.134,76.41l3.161,2.153l0.287-0.383c2.372-3.168,2.228-7.876-0.343-11.194
		c-1.728-2.229-4.503-3.562-7.424-3.562c-1.22,0-2.411,0.228-3.538,0.675c-3.593,1.427-6.222,5.213-5.86,8.516L20.465,73h3.732
		l0.053-0.379c0.512-4.285,4.118-5.77,6.768-5.11c1.565,0.39,2.742,1.27,3.497,2.584c1.084,1.888,1.034,3.825-0.152,5.906
		L34.134,76.41z"/>
	<path fill="#390064" d="M51.689,72.216c-3.312-0.239-6.084,1.022-8.279,3.759l-0.326,0.405l3.139,2.318l0.303-0.349
		c1.209-1.391,2.8-2.157,4.48-2.157c2.14,0,4.046,1.229,5.099,3.285l0.217,0.423l3.604-1.612l-0.237-0.469
		C57.938,74.369,55.246,72.484,51.689,72.216z"/>
	<polygon fill="#390064" points="94.509,31.729 90.131,29.744 88.935,33.543 92.391,35.142 	"/>
</g>
</svg>
