<?xml version="1.0" encoding="utf-8"?>
<!-- Generator: Adobe Illustrator 16.0.0, SVG Export Plug-In . SVG Version: 6.00 Build 0)  -->
<!DOCTYPE svg PUBLIC "-//W3C//DTD SVG 1.1//EN" "http://www.w3.org/Graphics/SVG/1.1/DTD/svg11.dtd">
<svg version="1.1" id="Layer_1" xmlns="http://www.w3.org/2000/svg" xmlns:xlink="http://www.w3.org/1999/xlink" x="0px" y="0px"
	 width="100px" height="100px" viewBox="0 0 100 100" enable-background="new 0 0 100 100" xml:space="preserve">
<g id="Healthcare_1_">
	<path id="XMLID_1387_" fill="#390064" d="M81.597,23.534h-13.03v-6.878c0-4.967-4.041-9.009-9.008-9.009H40.442
		c-4.967,0-9.009,4.042-9.009,9.009v6.878h-13.03C11.013,23.534,5,29.547,5,36.938v42.012c0,7.391,6.013,13.403,13.403,13.403
		h63.193C88.987,92.353,95,86.34,95,78.949V36.938C95,29.547,88.987,23.534,81.597,23.534L81.597,23.534z M36.707,16.656
		c0-2.06,1.676-3.735,3.735-3.735h19.117c2.059,0,3.734,1.676,3.734,3.735v6.878H36.707V16.656z M10.273,78.949V36.938
		c0-3.561,2.301-6.591,5.493-7.688v57.389C12.574,85.54,10.273,82.509,10.273,78.949z M21.04,87.079V28.808h57.92v58.271H21.04z
		 M89.727,78.949c0,3.56-2.301,6.591-5.493,7.688V29.249c3.192,1.098,5.493,4.128,5.493,7.688V78.949z"/>
	<path id="XMLID_1393_" fill="#390064" d="M65.887,50.011h-7.955v-7.954c0-1.456-1.18-2.637-2.637-2.637h-10.59
		c-1.456,0-2.637,1.181-2.637,2.637v7.954h-7.954c-1.456,0-2.637,1.181-2.637,2.637v10.591c0,1.456,1.181,2.637,2.637,2.637h7.954
		v7.954c0,1.456,1.181,2.637,2.637,2.637h10.59c1.457,0,2.637-1.181,2.637-2.637v-7.954h7.955c1.455,0,2.637-1.181,2.637-2.637
		V52.647C68.523,51.191,67.342,50.011,65.887,50.011z M63.25,60.602h-7.955c-1.455,0-2.637,1.181-2.637,2.637v7.954h-5.317v-7.954
		c0-1.456-1.181-2.637-2.637-2.637H36.75v-5.317h7.954c1.456,0,2.637-1.181,2.637-2.637v-7.954h5.317v7.954
		c0,1.456,1.182,2.637,2.637,2.637h7.955V60.602z"/>
</g>
</svg>
