<?xml version="1.0" encoding="utf-8"?>
<!-- Generator: Adobe Illustrator 16.0.0, SVG Export Plug-In . SVG Version: 6.00 Build 0)  -->
<!DOCTYPE svg PUBLIC "-//W3C//DTD SVG 1.1//EN" "http://www.w3.org/Graphics/SVG/1.1/DTD/svg11.dtd">
<svg version="1.1" id="Layer_1" xmlns="http://www.w3.org/2000/svg" xmlns:xlink="http://www.w3.org/1999/xlink" x="0px" y="0px"
	 width="100px" height="100px" viewBox="0 0 100 100" enable-background="new 0 0 100 100" xml:space="preserve">
<g id="Legal_x2C__Social__x26__Cultural">
	<path fill="#390064" d="M49.963,74.564c-2.39,0-4.335,1.945-4.335,4.335s1.945,4.335,4.335,4.335s4.335-1.945,4.335-4.335
		S52.353,74.564,49.963,74.564z M49.963,80.345c-0.796,0-1.445-0.649-1.445-1.445s0.649-1.445,1.445-1.445s1.445,0.649,1.445,1.445
		S50.759,80.345,49.963,80.345z"/>
	<path fill="#390064" d="M95,64.45l-1.927-12.342c-0.78-7.021-5.173-13.144-11.533-16.144l-0.104-0.414h0.316
		c4.781,0,8.67-3.889,8.67-8.67v-7.225c0-7.968-6.481-14.45-14.449-14.45s-14.45,6.482-14.45,14.45v7.225
		c0,4.781,3.889,8.67,8.67,8.67h0.316l-0.104,0.414c-2.542,1.196-4.771,2.893-6.601,4.982c-1.583-4.806-6.105-8.287-11.433-8.287
		h-4.816c-5.327,0-9.852,3.481-11.434,8.287c-1.83-2.09-4.06-3.786-6.601-4.982l-0.373-1.494c1.682-1.03,2.925-2.708,3.331-4.7
		h0.145c3.188,0,5.78-2.593,5.78-5.78c0-0.986-0.271-1.901-0.708-2.715c0.461-1.295,0.708-2.644,0.708-4.028
		c0-6.64-5.401-12.041-12.041-12.041h-4.816c-6.641,0-12.042,5.401-12.042,12.041c0,1.384,0.247,2.733,0.708,4.028
		c-0.437,0.813-0.708,1.729-0.708,2.715c0,3.188,2.592,5.78,5.78,5.78h0.146c0.406,1.994,1.648,3.672,3.331,4.7l-0.373,1.494
		c-6.36,3-10.755,9.122-11.534,16.144L5,68.784h3.059v2.891c0,3.188,2.592,5.779,5.78,5.779v17.34h22.586h1.873h6.071h11.186h7.413
		h0.533h25.477V81.367c0-2.895-0.319-5.787-0.909-8.625c2.217-0.817,3.799-2.931,3.799-5.402v-2.89H95z M74.527,35.551h2.89
		c0.348,0,0.68-0.056,1.014-0.104l0.426,1.705c-0.009,1.406-0.139,2.804-0.384,4.178h-5.001c-0.246-1.374-0.376-2.771-0.385-4.178
		l0.426-1.705C73.849,35.495,74.181,35.551,74.527,35.551z M77.774,44.22c-0.461,1.502-1.06,2.961-1.802,4.354
		c-0.741-1.394-1.341-2.853-1.801-4.354H77.774z M64.413,26.881v-7.225c0-6.374,5.186-11.56,11.56-11.56s11.56,5.186,11.56,11.56
		v7.225c0,2.619-1.763,4.812-4.157,5.52c0.798-1.162,1.268-2.563,1.268-4.075v-8.669h-1.445c-2.286,0-2.89-2.835-2.89-4.335h-2.891
		c0,3.102,1.483,6.239,4.335,7.033v5.972c0,2.391-1.944,4.335-4.335,4.335h-2.89c-2.39,0-4.335-1.944-4.335-4.335v-6.413
		c0-0.665,0.451-1.241,1.096-1.401l1.691-0.423c0.97,1.46,2.454,2.458,4.438,2.458v-2.89c-2.285,0-2.89-2.835-2.89-4.335h-2.89
		c0,0.696,0.076,1.393,0.226,2.066l-1.276,0.319c-1.934,0.482-3.284,2.212-3.284,4.206v6.413c0,1.512,0.47,2.913,1.267,4.075
		C66.176,31.693,64.413,29.5,64.413,26.881z M70.3,39.294c0.351,4.185,1.646,8.247,3.814,11.865l1.858,3.094l1.856-3.094
		c2.171-3.618,3.464-7.681,3.814-11.863c4.727,2.758,7.944,7.623,8.564,13.193l1.416,9.07h-6.767
		c0.41-3.014,1.229-9.295,1.229-11.56c0-3.392-1.678-5.166-1.868-5.356l-2.059,2.027c0.042,0.045,1.037,1.134,1.037,3.329
		c0,2.172-0.879,8.799-1.257,11.56H70.005c-0.379-2.761-1.258-9.387-1.258-11.56c0-2.195,0.996-3.284,1.038-3.329l-1.038-1.006
		l-1.021-1.021c-0.19,0.19-1.868,1.965-1.868,5.356c0,2.265,0.819,8.546,1.229,11.56h-6.359l1.017-9.135
		c0.008-0.075,0.019-0.15,0.028-0.226c1.626-2.048,2.568-4.595,2.624-7.245C65.901,42.604,67.914,40.682,70.3,39.294L70.3,39.294z
		 M65.334,67.41c-1.191-1.11-2.501-2.103-3.909-2.96h5.062C66.065,65.422,65.682,66.41,65.334,67.41z M42.22,62.596l-0.743-6.691
		c0.433,1.938,1.648,3.569,3.293,4.576l-0.337,1.35C43.675,62.048,42.94,62.31,42.22,62.596L42.22,62.596z M47.073,63.184
		l0.432-1.725c0.334,0.046,0.666,0.101,1.013,0.101h2.891c0.347,0,0.679-0.055,1.013-0.103l0.432,1.727v1.267
		c0,1.594-1.296,2.89-2.89,2.89s-2.89-1.296-2.89-2.89V63.184z M51.408,58.67h-2.891c-2.39,0-4.335-1.945-4.335-4.335v-7.348
		c1.622-0.279,3.12-1.024,4.335-2.173c1.569,1.482,3.613,2.296,5.78,2.296h1.445v7.225C55.743,56.725,53.798,58.67,51.408,58.67z
		 M55.494,61.83l-0.337-1.35c1.646-1.007,2.862-2.639,3.295-4.578l-0.744,6.692C56.985,62.31,56.252,62.048,55.494,61.83
		L55.494,61.83z M47.554,35.551h4.816c5.047,0,9.152,4.104,9.152,9.15c0,2.526-1.066,4.95-2.89,6.669v-7.15h-4.335
		c-1.477,0-2.867-0.575-3.911-1.619l-1.869-1.868l-1.868,1.868c-1.045,1.044-2.435,1.619-3.911,1.619h-1.445v7.151
		c-1.823-1.718-2.89-4.143-2.89-6.668C38.403,39.655,42.509,35.551,47.554,35.551L47.554,35.551z M35.527,44.956
		c0.057,2.648,0.999,5.197,2.626,7.244c0.01,0.077,0.021,0.15,0.028,0.229L39.457,63.9c-1.077,0.592-2.097,1.26-3.061,1.997h-2.479
		l-1.303-11.719l-2.871,0.319l1.266,11.396h-4.356l1.677-2.517l-1.471-15.074l0.184-0.734l2.27,2.081l1.443-9.637
		C32.652,41.318,34.27,42.987,35.527,44.956L35.527,44.956z M22.011,42.595l-1.367,1.253l-0.575-3.844L22.011,42.595z
		 M23.954,44.736l0.667,0.611l-0.35,1.401h-0.633l-0.35-1.401L23.954,44.736z M27.837,40.005l-0.575,3.844l-1.367-1.253
		L27.837,40.005z M23.819,49.639h0.269l1.267,12.993l-1.401,2.103l-1.402-2.103L23.819,49.639z M32.623,26.881v-5.78
		c1.594,0,2.891,1.296,2.891,2.89S34.217,26.881,32.623,26.881z M12.394,23.99c0-1.594,1.296-2.89,2.89-2.89v5.78
		C13.69,26.881,12.394,25.584,12.394,23.99z M16.976,18.21h-0.247h-1.445c-0.993,0-1.912,0.275-2.729,0.717
		c-0.103-0.552-0.161-1.111-0.161-1.68c0-5.046,4.105-9.151,9.151-9.151h4.816c5.047,0,9.153,4.105,9.153,9.151
		c0,0.568-0.059,1.128-0.161,1.679c-0.817-0.44-1.736-0.715-2.729-0.715h-1.445h-0.247c-2.25,0-4.365-0.875-5.956-2.466
		l-1.021-1.021l-1.021,1.021C21.341,17.335,19.227,18.21,16.976,18.21L16.976,18.21z M18.173,21.039
		c2.119-0.221,4.108-1.029,5.78-2.344c1.672,1.315,3.662,2.123,5.78,2.344v7.287c0,2.391-1.945,4.335-4.335,4.335h-2.89
		c-2.39,0-4.335-1.944-4.335-4.335V21.039z M22.508,35.551h2.89c0.347,0,0.679-0.056,1.014-0.104l0.308,1.231l-2.767,3.688
		l-2.767-3.688l0.308-1.231C21.83,35.495,22.162,35.551,22.508,35.551L22.508,35.551z M9.725,52.428
		c0.562-5.058,3.334-9.54,7.429-12.381l1.438,9.604l2.27-2.081l0.184,0.734l-1.47,15.074l1.679,2.517h-4.357l1.268-11.4
		l-2.873-0.318L13.99,65.895H8.228L9.725,52.428z M10.949,71.675v-2.891h2.89v5.78C12.245,74.564,10.949,73.269,10.949,71.675z
		 M16.729,68.784h16.5c-3.998,4.37-6.385,10.163-6.385,16.429c0,2.603,1.046,4.963,2.737,6.691h-4.182v-17.34h-2.89v17.34h-5.78
		V68.784z M36.425,91.904c-3.69,0-6.691-3.001-6.691-6.691c0-9.247,5.877-17.348,14.497-20.291c0.127,1.541,0.85,2.9,1.949,3.862
		h-3.884c-3.739,0-6.782,3.044-6.782,6.783c0,0.374,0.03,0.748,0.092,1.115l1.093,6.552h-4.075v2.89h4.557l0.5,3.003
		c0.173,1.036,0.591,1.967,1.16,2.777h-0.542H36.425z M44.369,91.904c-1.911,0-3.525-1.368-3.841-3.253l-2.073-12.444
		c-0.034-0.212-0.052-0.426-0.052-0.64c0-2.147,1.745-3.893,3.893-3.893h15.332c2.149,0,3.895,1.745,3.895,3.893
		c0,0.214-0.017,0.428-0.053,0.64L59.396,88.65c-0.313,1.886-1.929,3.254-3.839,3.254H44.369z M62.968,91.904h-1.882
		c0.569-0.811,0.989-1.741,1.161-2.777l0.499-3.003h4.557v-2.89h-4.073l1.091-6.55c0.062-0.369,0.093-0.741,0.093-1.117
		c0-3.739-3.044-6.783-6.783-6.783h-3.884c1.101-0.961,1.822-2.321,1.949-3.862c8.62,2.943,14.497,11.044,14.497,20.291
		c0,3.69-3.001,6.691-6.691,6.691H62.968z M86.087,91.904H70.346c1.69-1.729,2.736-4.089,2.736-6.691
		c0-5.781-2.04-11.157-5.495-15.388c0.561-1.838,1.256-3.639,2.077-5.375h12.611c2.486,5.268,3.812,11.094,3.812,16.917V91.904z
		 M88.978,67.34c0,1.12-0.647,2.1-1.593,2.578c-0.521-1.863-1.157-3.693-1.925-5.468h3.518V67.34z"/>
</g>
</svg>
