<?xml version="1.0" encoding="utf-8"?>
<!-- Generator: Adobe Illustrator 16.0.0, SVG Export Plug-In . SVG Version: 6.00 Build 0)  -->
<!DOCTYPE svg PUBLIC "-//W3C//DTD SVG 1.1//EN" "http://www.w3.org/Graphics/SVG/1.1/DTD/svg11.dtd">
<svg version="1.1" id="Layer_1" xmlns="http://www.w3.org/2000/svg" xmlns:xlink="http://www.w3.org/1999/xlink" x="0px" y="0px"
	 width="100px" height="100px" viewBox="0 0 100 100" enable-background="new 0 0 100 100" xml:space="preserve">
<g id="Project-based">
	<g>
		<path fill-rule="evenodd" clip-rule="evenodd" fill="#390064" d="M80.545,73.41c-2.596,0-5.119,0-7.644,0
			c-19.521,0-39.043,0.003-58.564-0.001c-5.421-0.001-9.319-3.879-9.324-9.307C5,49.807,4.992,35.511,5.011,21.216
			c0.009-6.661,7.058-11.051,12.91-8.058c2.312,1.182,3.779,3.094,4.552,5.556c0.052,0.165,0.094,0.332,0.144,0.498
			c0.013,0.041,0.038,0.077,0.092,0.185c19.24,0,38.514,0,57.837,0C80.545,37.418,80.545,55.37,80.545,73.41z M19.44,64.368
			c-0.027-0.229-0.047-0.419-0.073-0.609c-0.328-2.386-2.003-4.184-4.331-4.649c-2.215-0.443-4.507,0.578-5.661,2.523
			c-2.148,3.621,0.396,8.125,4.64,8.152c4.967,0.031,9.934,0.002,14.9,0.002c15.808,0.002,31.615,0.005,47.422,0.005
			c0.207,0,0.414-0.024,0.636-0.038c0-15.597,0-31.135,0-46.697c-17.992,0-35.944,0-53.969,0c0,13.79,0,27.533,0,41.312
			C21.775,64.368,20.619,64.368,19.44,64.368z M8.618,57.197c3.64-2.398,7.177-2.376,10.778,0.003c0-0.317,0-0.525,0-0.733
			c0.001-5.333,0.003-10.665,0.003-15.998c0-6.434,0.014-12.867-0.01-19.301c-0.013-3.561-3.32-6.061-6.772-5.171
			c-2.428,0.625-3.988,2.717-3.99,5.389c-0.007,9.715-0.006,19.43-0.008,29.146C8.618,52.71,8.618,54.889,8.618,57.197z"/>
		<path fill-rule="evenodd" clip-rule="evenodd" fill="#390064" d="M84.175,76.98c0-15.603,0-31.123,0-46.696
			c-0.193-0.058-0.396-0.108-0.591-0.177c-0.786-0.275-1.283-1.053-1.201-1.87c0.082-0.811,0.676-1.536,1.472-1.576
			c1.286-0.065,2.577-0.018,3.908-0.018c0,17.973,0,35.904,0,53.917c-0.285,0.017-0.575,0.049-0.864,0.049
			c-13.71,0.002-27.419,0.001-41.129,0.002c-7.966,0.001-15.933-0.007-23.9,0.016c-2.421,0.007-4.625-0.571-6.454-2.206
			c-0.352-0.315-0.618-0.842-0.704-1.312c-0.129-0.707,0.221-1.306,0.864-1.673c0.638-0.365,1.346-0.411,1.885,0.071
			c1.487,1.331,3.242,1.52,5.13,1.517C42.93,77,63.268,77.008,83.606,77.005C83.774,77.005,83.943,76.99,84.175,76.98z"/>
		<path fill-rule="evenodd" clip-rule="evenodd" fill="#390064" d="M91.391,84.192c0-15.643,0-31.164,0-46.72
			c-0.214-0.061-0.42-0.105-0.616-0.176c-0.828-0.3-1.272-1.04-1.173-1.939c0.088-0.794,0.694-1.461,1.53-1.51
			c1.162-0.067,2.331-0.035,3.496-0.045c0.455-0.003,0.365,0.34,0.365,0.602c0.005,2.009,0.001,4.017,0.001,6.025
			c-0.001,7.796-0.002,15.591-0.002,23.387c0,7.73,0.002,15.462,0.003,23.192c0,0.233,0,0.467,0,0.753
			c-0.279,0.014-0.488,0.033-0.697,0.033c-13.043,0.002-26.087,0.004-39.13,0.004c-8.876,0-17.751-0.007-26.627,0.001
			c-2.207,0.001-4.152-0.694-5.851-2.087c-0.938-0.769-1.089-1.845-0.405-2.673c0.683-0.827,1.743-0.872,2.699-0.103
			c1.029,0.829,2.186,1.26,3.521,1.259c10.667-0.011,21.335-0.011,32.003-0.011c9.999,0,19.997,0.004,29.996,0.007
			C90.778,84.192,91.054,84.192,91.391,84.192z"/>
		<path fill-rule="evenodd" clip-rule="evenodd" fill="#390064" d="M30.443,54.595c0-1.171,0-2.325,0-3.526
			c12.566,0,25.116,0,37.708,0c0,1.165,0,2.319,0,3.526C55.593,54.595,43.043,54.595,30.443,54.595z"/>
		<path fill-rule="evenodd" clip-rule="evenodd" fill="#390064" d="M30.443,41.389c0-1.172,0-2.325,0-3.526
			c12.566,0,25.116,0,37.708,0c0,1.165,0,2.319,0,3.526C55.593,41.389,43.043,41.389,30.443,41.389z"/>
	</g>
</g>
</svg>
