<?xml version="1.0" encoding="utf-8"?>
<!-- Generator: Adobe Illustrator 16.0.0, SVG Export Plug-In . SVG Version: 6.00 Build 0)  -->
<!DOCTYPE svg PUBLIC "-//W3C//DTD SVG 1.1//EN" "http://www.w3.org/Graphics/SVG/1.1/DTD/svg11.dtd">
<svg version="1.1" id="Layer_1" xmlns="http://www.w3.org/2000/svg" xmlns:xlink="http://www.w3.org/1999/xlink" x="0px" y="0px"
	 width="100px" height="100px" viewBox="0 0 100 100" enable-background="new 0 0 100 100" xml:space="preserve">
<g id="Building__x26__Construction">
	<path fill="#390064" d="M33.5,39.5h3v3h-3V39.5z"/>
	<path fill="#390064" d="M44,71h3v3h-3V71z"/>
	<path fill="#390064" d="M53,71h3v3h-3V71z"/>
	<path fill="#390064" d="M48.5,65h3v3h-3V65z"/>
	<path fill="#390064" d="M14,60.5h3v3h-3V60.5z"/>
	<path fill="#390064" d="M14,69.5h3v3h-3V69.5z"/>
	<path fill="#390064" d="M18.5,65h3v3h-3V65z"/>
	<path fill="#390064" d="M14,78.5h3v3h-3V78.5z"/>
	<path fill="#390064" d="M14,86h3v3h-3V86z"/>
	<path fill="#390064" d="M18.5,74h3v3h-3V74z"/>
	<path fill="#390064" d="M88.671,92l-1.216-4.864C87.288,86.469,86.688,86,86,86h-3V60.5h-3v1.723l-6,6.459v-6.789l6-6.459V57.5h3
		v-30h7.5c0.568,0,1.088-0.321,1.342-0.829l3-6c0.289-0.578,0.175-1.275-0.281-1.731L84.5,8.878V6.5C84.5,5.671,83.828,5,83,5h-4.5
		c-0.593,0-1.13,0.349-1.371,0.891l-0.975,2.196L10.831,15.51C10.073,15.595,9.5,16.237,9.5,17v1.5h-3C5.672,18.5,5,19.172,5,20
		c0,0.233,0.055,0.462,0.158,0.671l3,6C8.412,27.179,8.932,27.5,9.5,27.5H17v-3h-6.573l-1.5-3H27.5v3H20v3h13.5v6H32
		c-0.593,0-1.13,0.349-1.371,0.891l-3,6.75c-0.193,0.437-0.168,0.939,0.068,1.354l3,5.25C30.965,48.211,31.462,48.5,32,48.5h1.5
		v2.379l-4.061,4.061c-0.402,0.402-0.542,0.996-0.362,1.535l1.5,4.5C30.781,61.587,31.354,62,32,62h6c0.828,0,1.5-0.672,1.5-1.5V56
		h-3v3h-3.419l-0.865-2.595l3.844-3.844c0.282-0.281,0.44-0.663,0.44-1.062v-3H38c0.538,0,1.035-0.289,1.303-0.756l3-5.25
		c0.236-0.415,0.262-0.917,0.068-1.354l-3-6.75C39.13,33.849,38.593,33.5,38,33.5h-1.5v-6h18.573l5.585,11.171
		C60.912,39.179,61.432,39.5,62,39.5h9V86h-3c-0.688,0-1.288,0.469-1.455,1.136L65.329,92H62V69.5c0-0.334-0.111-0.657-0.315-0.921
		L58.9,65H59v-4.5h-3v0.771l-4.816-6.192c-0.508-0.653-1.45-0.771-2.104-0.263c-0.075,0.059-0.146,0.124-0.208,0.195l-10.5,12.001
		C38.132,67.286,38,67.637,38,68v9.879l-4.939-4.939c-0.586-0.586-1.535-0.586-2.121,0l0,0L27.5,76.379V62
		c0-0.463-0.214-0.899-0.579-1.184l-13.5-10.5C13.158,50.111,12.834,50,12.5,50v-6h-3v6C8.672,50,8,50.672,8,51.5v18h3V53h0.985
		L24.5,62.733v16.646l-2.561,2.561C21.658,82.221,21.5,82.603,21.5,83v9H11V72.5H8V92H5v3h90v-3H88.671z M39.321,41.665L37.13,45.5
		h-4.26l-2.19-3.835l2.295-5.165h4.051L39.321,41.665z M80,66.63v7.593l-6,6.459v-7.593L80,66.63z M80,27.5v0.222l-6,6.459V27.5H80z
		 M74,38.589l6-6.459v6.896l-6,6.458V38.589z M74,57.484v-7.592l6-6.459v7.592L74,57.484z M89.573,24.5H42.5v-3h48.573L89.573,24.5z
		 M89.879,18.5H84.5v-5.378L89.879,18.5z M79.475,8H81.5v10.5h-6.692L79.475,8z M12.5,18.339l62.24-7.073L71.525,18.5H12.5V18.339z
		 M30.5,24.5v-3h9v3H30.5z M62.927,36.5l-1.5-3H65v-3h-5.073l-1.5-3H71v9H62.927z M74,85.089l6-6.459V86h-6V85.089z M45.5,86v6h-3
		v-9c0-0.397-0.158-0.779-0.439-1.061L41,80.879V80h18v4.5H47C46.172,84.5,45.5,85.172,45.5,86L45.5,86z M49.932,58.355L59,70.015
		V77H41v-8.437L49.932,58.355z M33.5,92v-6h-3v6h-6v-8.379l7.5-7.5l7.5,7.5V92H33.5z M48.5,92v-4.5H59V92H48.5z M68.421,92l0.75-3
		h15.658l0.75,3H68.421z"/>
</g>
</svg>
