<?xml version="1.0" encoding="utf-8"?>
<!-- Generator: Adobe Illustrator 16.0.0, SVG Export Plug-In . SVG Version: 6.00 Build 0)  -->
<!DOCTYPE svg PUBLIC "-//W3C//DTD SVG 1.1//EN" "http://www.w3.org/Graphics/SVG/1.1/DTD/svg11.dtd">
<svg version="1.1" id="Layer_1" xmlns="http://www.w3.org/2000/svg" xmlns:xlink="http://www.w3.org/1999/xlink" x="0px" y="0px"
	 width="100px" height="100px" viewBox="0 0 100 100" enable-background="new 0 0 100 100" xml:space="preserve">
<g id="Education">
	<g>
		<g>
			<path fill="#390064" d="M87.09,55.273H73.906V34.759l10.547-4.499V42.09c0,1.456,1.181,2.637,2.637,2.637
				s2.637-1.181,2.637-2.637V26.27c0-1.045-0.622-1.993-1.575-2.413c-0.016-0.007-0.031-0.015-0.048-0.021L51.035,8.024
				c-0.662-0.282-1.409-0.282-2.07,0l-37.09,15.82c-0.972,0.415-1.602,1.369-1.602,2.425s0.63,2.011,1.602,2.425l14.218,6.064
				v20.514h-7.91c-4.362,0-7.91,3.549-7.91,7.91v5.273c0,1.297,0.316,2.521,0.872,3.604C7.522,73.73,5,77.396,5,81.641
				c0,5.815,4.731,10.547,10.547,10.547H87.09c1.456,0,2.637-1.181,2.637-2.637s-1.181-2.637-2.637-2.637h-2.637
				c-2.908,0-5.273-2.365-5.273-5.273s2.365-5.273,5.273-5.273h2.637c4.361,0,7.91-3.549,7.91-7.91v-5.273
				C95,58.822,91.451,55.273,87.09,55.273z M19.631,26.27L50,13.316L80.369,26.27L50,39.223L19.631,26.27z M31.367,55.273V37.009
				l17.598,7.506c0.661,0.282,1.408,0.282,2.07,0l17.598-7.506v18.265H31.367z M63.359,60.547v10.547H36.641V60.547H63.359z
				 M68.633,60.547c1.908,0,3.365,0,5.273,0v10.547h-5.273V60.547z M26.094,60.547h5.273v10.547h-5.273V60.547z M15.547,63.184
				c0-1.454,1.183-2.637,2.637-2.637h2.637v10.547h-2.637c-1.454,0-2.637-1.183-2.637-2.637V63.184z M75.325,86.914H15.547
				c-2.908,0-5.273-2.365-5.273-5.273s2.366-5.273,5.273-5.273c1.861,0,52.598,0,59.778,0c-0.9,1.553-1.419,3.354-1.419,5.273
				S74.425,85.361,75.325,86.914z M89.727,68.457c0,1.454-1.183,2.637-2.637,2.637h-7.91V60.547h7.91
				c1.454,0,2.637,1.183,2.637,2.637V68.457z"/>
		</g>
	</g>
</g>
</svg>
