<?xml version="1.0" encoding="utf-8"?>
<!-- Generator: Adobe Illustrator 16.0.0, SVG Export Plug-In . SVG Version: 6.00 Build 0)  -->
<!DOCTYPE svg PUBLIC "-//W3C//DTD SVG 1.1//EN" "http://www.w3.org/Graphics/SVG/1.1/DTD/svg11.dtd">
<svg version="1.1" id="Layer_1" xmlns="http://www.w3.org/2000/svg" xmlns:xlink="http://www.w3.org/1999/xlink" x="0px" y="0px"
	 width="100px" height="100px" viewBox="0 0 100 100" enable-background="new 0 0 100 100" xml:space="preserve">
<g id="Food__x26__Hospitality">
	<circle fill="#390064" cx="61.244" cy="45.482" r="1.761"/>
	<path fill="#390064" d="M85.354,51.001H85.01v-3.946c0-17.659-13.144-32.304-30.161-34.672c0.279-0.644,0.436-1.353,0.436-2.099
		c0-2.914-2.37-5.285-5.283-5.285c-2.914,0-5.284,2.371-5.284,5.285c0,0.746,0.156,1.455,0.436,2.099
		c-17.018,2.368-30.161,17.013-30.161,34.672v3.946h-0.344c-2.914,0-5.284,2.37-5.284,5.284s2.37,5.284,5.284,5.284h17.563
		c-0.149,0.352-0.266,0.723-0.342,1.108l-1.514,7.565c-4.632,2.539-5.329,7.537-5.4,9.749l-5.392,3.542
		c-0.837,0.551-1.043,1.729-0.44,2.53l6.193,8.238c0.559,0.743,1.635,0.921,2.403,0.395l11.836-8.104
		c6.488-2.296,9.514-6.831,11.225-10.23c1.912-1.308,10.679-7.275,16.525-10.744c1.44-0.854,2.183-2.434,1.955-4.049h16.092
		c2.914,0,5.284-2.37,5.284-5.284S88.269,51.001,85.354,51.001L85.354,51.001z M48.239,10.285c0-0.971,0.79-1.761,1.762-1.761
		c0.971,0,1.761,0.79,1.761,1.761s-0.79,1.761-1.761,1.761C49.029,12.046,48.239,11.256,48.239,10.285L48.239,10.285z
		 M18.514,47.055c0-17.362,14.125-31.486,31.487-31.486c16.315,0,29.771,12.475,31.334,28.387H69.199
		c-0.973,0-1.761,0.789-1.761,1.761c0,0.973,0.788,1.762,1.761,1.762h12.288v3.522H18.514V47.055z M65.758,61.974
		c0.073,0.266-0.011,0.474-0.249,0.614c-6.663,3.953-16.998,11.059-17.102,11.13c-0.25,0.173-0.452,0.407-0.585,0.681
		c-2.281,4.687-5.253,7.444-9.637,8.941c-0.151,0.051-11.065,7.499-11.065,7.499l-4.054-5.39l4.626-3.042
		c0.537-0.354,0.839-0.972,0.788-1.612c-0.005-0.058-0.408-5.751,4.139-7.744c0.526-0.23,0.907-0.704,1.021-1.268l1.683-8.415
		c0.209-1.042,1.132-1.799,2.195-1.799c0.664,0,1.267,0.278,1.699,0.781c0.432,0.505,0.613,1.144,0.512,1.8
		c-0.001,0.012-0.003,0.023-0.005,0.035l-0.834,6.189c-0.089,0.661,0.202,1.315,0.754,1.691c0.551,0.375,1.268,0.407,1.85,0.083
		l18.976-10.58h4.759C65.506,61.569,65.685,61.705,65.758,61.974L65.758,61.974z M42.824,61.569h10.41l-10.384,5.79l0.361-2.687
		C43.374,63.609,43.232,62.538,42.824,61.569z M85.354,58.046H14.647c-0.971,0-1.762-0.79-1.762-1.761s0.791-1.762,1.762-1.762
		h70.706c0.972,0,1.762,0.791,1.762,1.762S86.325,58.046,85.354,58.046z"/>
	<path fill="#390064" d="M37.883,22.999c-5.49,2.564-9.812,7.302-11.856,12.997c-0.329,0.916,0.147,1.924,1.062,2.253
		c0.196,0.07,0.397,0.104,0.596,0.104c0.722,0,1.399-0.448,1.657-1.167c1.729-4.817,5.386-8.825,10.032-10.995
		c0.882-0.411,1.263-1.459,0.851-2.341S38.765,22.587,37.883,22.999z"/>
</g>
</svg>
