<?xml version="1.0" encoding="utf-8"?>
<!-- Generator: Adobe Illustrator 16.0.0, SVG Export Plug-In . SVG Version: 6.00 Build 0)  -->
<!DOCTYPE svg PUBLIC "-//W3C//DTD SVG 1.1//EN" "http://www.w3.org/Graphics/SVG/1.1/DTD/svg11.dtd">
<svg version="1.1" id="Layer_1" xmlns="http://www.w3.org/2000/svg" xmlns:xlink="http://www.w3.org/1999/xlink" x="0px" y="0px"
	 width="100px" height="100px" viewBox="0 0 100 100" enable-background="new 0 0 100 100" xml:space="preserve">
<g id="Sciences">
	<g>
		<g>
			<path fill="#390064" d="M24.438,77.887c-0.457-0.433-0.919-0.869-1.381-1.308c6.877-6.746,13.88-15.033,13.88-26.274
				s-7.003-19.528-13.88-26.275c0.462-0.439,0.924-0.875,1.381-1.309c5.928-5.6,11.047-10.437,11.047-15.964V5.305h-2.903v1.452
				c0,0.956-0.247,1.923-0.674,2.903H10.028C9.603,8.68,9.355,7.713,9.355,6.757V5.305H6.452v1.452
				c0,5.527,5.119,10.364,11.046,15.966c0.458,0.433,0.92,0.868,1.382,1.308C12.003,30.776,5,39.063,5,50.305
				s7.003,19.528,13.88,26.275c-0.462,0.439-0.924,0.875-1.382,1.309c-5.927,5.6-11.046,10.436-11.046,15.965v1.451h2.903v-1.451
				c0-0.958,0.247-1.924,0.673-2.904h21.88c0.426,0.98,0.673,1.946,0.673,2.904v1.451h2.903v-1.451
				C35.484,88.324,30.365,83.488,24.438,77.887z M11.765,12.563h18.406c-0.708,0.947-1.549,1.914-2.479,2.902H14.244
				C13.314,14.478,12.472,13.511,11.765,12.563z M17.136,18.369H24.8c-0.763,0.734-1.55,1.479-2.356,2.243
				c-0.485,0.459-0.979,0.925-1.476,1.396c-0.497-0.472-0.99-0.938-1.475-1.396C18.686,19.849,17.897,19.104,17.136,18.369z
				 M20.968,26.044c1.757,1.719,3.493,3.503,5.097,5.39H15.871C17.476,29.547,19.212,27.763,20.968,26.044z M10.153,40.144h13.718
				V37.24H11.685c0.622-1.053,1.299-2.073,2.026-3.065v0.162h14.515v-0.162c0.728,0.991,1.404,2.013,2.026,3.065h-3.478v2.903h5.01
				c0.425,0.939,0.783,1.911,1.099,2.903H9.055C9.369,42.055,9.727,41.083,10.153,40.144z M8.306,45.95h25.326
				c0.174,0.94,0.274,1.913,0.335,2.902H7.971C8.029,47.863,8.131,46.891,8.306,45.95z M9.054,57.562h4.657v-2.903H8.304
				c-0.173-0.94-0.274-1.913-0.334-2.903h25.996c-0.06,0.99-0.16,1.963-0.336,2.903H16.612v2.903h16.27
				c-0.315,0.992-0.673,1.964-1.1,2.903H10.151C9.727,59.526,9.368,58.555,9.054,57.562z M13.711,66.436
				c-0.728-0.993-1.404-2.015-2.026-3.066h18.567c-0.621,1.052-1.299,2.073-2.026,3.066v-0.163H13.711V66.436z M15.871,69.176
				h10.193c-1.604,1.888-3.34,3.671-5.097,5.39C19.212,72.847,17.476,71.063,15.871,69.176z M19.493,79.997
				c0.484-0.459,0.979-0.925,1.475-1.396c0.497,0.474,0.99,0.939,1.476,1.396c0.807,0.764,1.595,1.509,2.356,2.243h-7.664
				C17.897,81.506,18.686,80.761,19.493,79.997z M11.765,88.047c0.709-0.948,1.55-1.915,2.479-2.904h13.449
				c0.931,0.989,1.771,1.956,2.479,2.904H11.765z"/>
		</g>
	</g>
	<g>
		<g>
			<path fill="#390064" d="M87.741,83.691H85.4c3.423-6.197,5.244-13.199,5.244-20.322c0-11.719-4.907-22.897-13.482-30.855
				l3.941-3.941l-2.905-2.904l5.208-5.204l1.457,1.456l6.378-6.435L80.48,4.695l-6.378,6.473l1.439,1.44l-5.211,5.193l-2.893-2.893
				L47.115,35.231l-2.902-2.903l-6.408,6.407l19.473,19.473l6.407-6.408l-2.903-2.903l8.143-8.144
				c4.188,3.781,7.274,8.678,8.858,14.052c-2.602,0.571-4.557,2.888-4.557,5.661c0,3.154,2.531,5.717,5.667,5.792
				c-0.114,1.214-0.307,2.418-0.565,3.607c-1.134-0.438-2.362-0.689-3.65-0.689H52.903c-4.002,0-7.259,3.255-7.259,7.258v1.451
				h18.987c-0.068,0.477-0.116,0.959-0.116,1.451v4.355H44.193c-4.002,0-7.257,3.257-7.257,7.258v4.355H95v-4.355
				C95,86.948,91.744,83.691,87.741,83.691z M80.492,8.818l6.653,6.673l-2.294,2.315l-6.658-6.654L80.492,8.818z M77.597,14.659
				l3.755,3.752l-5.206,5.203l-3.761-3.762L77.597,14.659z M57.277,54.101L41.911,38.733l2.302-2.302l15.366,15.366L57.277,54.101z
				 M58.729,46.843l-9.561-9.561l18.271-18.27l9.561,9.56L58.729,46.843z M70.979,38.697l4.131-4.129
				c8.031,7.413,12.631,17.853,12.631,28.801c0,5.147-1.013,10.229-2.955,14.942c-0.283-2.812-1.723-5.285-3.829-6.947
				c0.471-1.915,0.773-3.88,0.899-5.856c1.77-0.996,2.981-2.87,2.981-5.042c0-2.566-1.684-4.724-3.995-5.488
				C79.222,48.753,75.764,43.056,70.979,38.697z M76.129,60.466c0-1.602,1.302-2.903,2.903-2.903s2.903,1.302,2.903,2.903
				s-1.302,2.903-2.903,2.903S76.129,62.067,76.129,60.466z M48.797,74.982c0.6-1.689,2.214-2.903,4.106-2.903h14.675
				c-0.851,0.833-1.55,1.815-2.067,2.903H48.797z M92.096,92.401H39.838v-1.452c0-2.4,1.954-4.354,4.355-4.354h26.129v-2.903h-2.903
				v-4.355c0-4.001,3.257-7.257,7.258-7.257c4.003,0,7.259,3.256,7.259,7.257v4.355h-8.71v2.903h14.516
				c2.401,0,4.354,1.954,4.354,4.354V92.401z"/>
		</g>
	</g>
</g>
</svg>
