<?xml version="1.0" encoding="utf-8"?>
<!-- Generator: Adobe Illustrator 16.0.0, SVG Export Plug-In . SVG Version: 6.00 Build 0)  -->
<!DOCTYPE svg PUBLIC "-//W3C//DTD SVG 1.1//EN" "http://www.w3.org/Graphics/SVG/1.1/DTD/svg11.dtd">
<svg version="1.1" id="Layer_1" xmlns="http://www.w3.org/2000/svg" xmlns:xlink="http://www.w3.org/1999/xlink" x="0px" y="0px"
	 width="100px" height="100px" viewBox="0 0 100 100" enable-background="new 0 0 100 100" xml:space="preserve">
<g id="Sports__x26__Outdoor_activites">
	<path fill="#390064" stroke="#390064" stroke-miterlimit="10" d="M95,38.847v-6.253c0-1.688-1.375-3.063-3.063-3.063
		c-1.082,0-2.1-0.421-2.864-1.185c-0.765-0.767-1.187-1.784-1.187-2.865v-11.01c0-1.715-1.395-3.109-3.109-3.109h-3.75
		c-1.714,0-3.108,1.396-3.108,3.109v6.444c0,3.997-3.188,7.303-7.106,7.369c-1.948,0.03-3.799-0.704-5.191-2.074
		c-1.394-1.37-2.16-3.201-2.16-5.154v-6.585c0-1.715-1.396-3.109-3.11-3.109h-3.749c-1.715,0-3.109,1.396-3.109,3.109v3.973
		c0,0.729,0.59,1.318,1.318,1.318s1.318-0.59,1.318-1.318v-3.973c0-0.261,0.212-0.473,0.473-0.473h3.749
		c0.261,0,0.474,0.212,0.474,0.473v6.585c0,2.666,1.047,5.164,2.947,7.034c1.9,1.869,4.417,2.869,7.085,2.831
		c5.349-0.091,9.699-4.579,9.699-10.006v-6.444c0-0.261,0.212-0.473,0.472-0.473h3.75c0.261,0,0.473,0.212,0.473,0.473v11.01
		c0,1.784,0.694,3.464,1.959,4.729c1.264,1.262,2.943,1.957,4.729,1.957c0.235,0,0.427,0.191,0.427,0.427v5.447L70.688,48.44
		L49.014,38.042v-5.448c0-0.146,0.068-0.244,0.128-0.304c0.046-0.046,0.146-0.123,0.3-0.123c3.687,0,6.687-2.999,6.687-6.687v-1.764
		c0-0.728-0.59-1.318-1.318-1.318s-1.318,0.591-1.318,1.318v1.764c0,2.232-1.817,4.05-4.05,4.05c-0.821,0-1.592,0.319-2.167,0.897
		c-0.578,0.579-0.897,1.349-0.897,2.166v6.232c0,0.029,0,0.059,0,0.089v21.906l-6.779,4.063c-0.955-0.548-2.049-0.844-3.157-0.844
		h-7.866V41.267h7.866c3.494,0,6.337-2.843,6.337-6.337c0-3.495-2.843-6.338-6.337-6.338H35.06v-1.439
		c0-2.854-2.322-5.174-5.175-5.174h-1.311v-2.584c0-1.502-1.223-2.725-2.725-2.725h-3.922c-1.502,0-2.725,1.223-2.725,2.725v2.584
		h-1.311c-2.854,0-5.175,2.32-5.175,5.174v1.439h-1.381c-0.579,0-1.152,0.079-1.705,0.232c-0.701,0.195-1.111,0.923-0.916,1.625
		c0.196,0.701,0.923,1.11,1.625,0.915c0.322-0.09,0.657-0.136,0.996-0.136H36.44c2.04,0,3.7,1.66,3.7,3.701
		c0,2.04-1.66,3.699-3.7,3.699H11.337c-2.041,0-3.7-1.659-3.7-3.699c0-0.21,0.018-0.421,0.052-0.625
		c0.122-0.719-0.361-1.399-1.079-1.521c-0.718-0.122-1.398,0.362-1.521,1.08C5.03,34.215,5,34.573,5,34.93
		c0,3.494,2.843,6.337,6.337,6.337h7.866v22.774h-7.866C7.843,64.041,5,66.884,5,70.378c0,1.69,0.658,3.282,1.856,4.482
		c1.198,1.196,2.79,1.854,4.48,1.854h1.382v1.439c0,2.854,2.32,5.176,5.173,5.176h1.312v2.584c0,1.502,1.223,2.725,2.725,2.725
		h3.922c1.502,0,2.725-1.223,2.725-2.725V83.33h0.052c0.272,0.357,0.573,0.697,0.9,1.017c1.771,1.729,4.067,2.61,6.408,2.61h47.53
		c2.775,0,5.034-2.259,5.034-5.035v-7.809h0.704c3.196,0,5.797-2.601,5.797-5.797V38.892C95,38.877,95,38.861,95,38.847z
		 M21.84,19.395c0-0.048,0.039-0.088,0.088-0.088h3.922c0.049,0,0.088,0.04,0.088,0.088v2.584H21.84V19.395z M15.354,28.592v-1.439
		c0-1.399,1.139-2.537,2.538-2.537h2.602h0.027h0.027h6.68h0.027h0.027h2.602c1.399,0,2.538,1.138,2.538,2.537v1.439H15.354z
		 M60.287,57.844c0.59,0,1.119,0.372,1.32,0.926c1.531,4.223,5.577,7.06,10.068,7.06c4.586,0,8.661-2.917,10.138-7.26
		c0.147-0.434,0.556-0.726,1.015-0.726h0.819c1.221,0,2.215,0.993,2.215,2.215v16.608H67.609l-4.324-6.196
		c-0.416-0.597-1.238-0.743-1.835-0.326c-0.597,0.416-0.743,1.238-0.327,1.836l3.271,4.687H61.23l-8.144-11.671l2.231-1.337
		l2.788,3.996c0.257,0.368,0.666,0.564,1.083,0.564c0.26,0,0.523-0.076,0.753-0.237c0.597-0.417,0.743-1.238,0.327-1.835
		l-2.807-4.022c0.746-0.841,1.18-1.94,1.18-3.089v-1.192H60.287z M54.943,76.667l-6.29-9.014l2.167-1.298l7.195,10.312H54.943z
		 M48.563,76.667l-4.408-6.316l2.23-1.337l5.342,7.654L48.563,76.667L48.563,76.667z M36.354,69.902
		c0.067,0.122,0.145,0.24,0.23,0.353c0.878,1.143,2.209,1.754,3.563,1.754c0.577,0,1.159-0.111,1.713-0.34l3.488,4.998H29.49
		c0.324-1.853,1.443-3.516,3.082-4.497L36.354,69.902z M56.006,58.125v0.912c0,0.692-0.366,1.345-0.955,1.707
		c-0.023,0.015-0.047,0.028-0.069,0.043l-4.426,2.652c-0.022,0.014-0.046,0.027-0.068,0.041l-4.387,2.63
		c-0.008,0.005-0.018,0.01-0.025,0.016l-4.977,2.982c-0.809,0.485-1.851,0.286-2.425-0.461c-0.007-0.009-0.028-0.036-0.02-0.083
		c0.008-0.04,0.032-0.059,0.044-0.067l1.51-0.904c0.018-0.01,0.035-0.021,0.053-0.032l15.686-9.401
		C55.966,58.147,55.985,58.136,56.006,58.125z M21.84,41.267h4.098v22.774H21.84V41.267z M15.355,78.155v-1.44h7.448
		c0.728,0,1.318-0.59,1.318-1.318c0-0.728-0.591-1.318-1.318-1.318H11.337c-0.987,0-1.917-0.384-2.616-1.082
		c-0.699-0.701-1.084-1.631-1.084-2.618c0-2.04,1.659-3.7,3.7-3.7H36.44c0.054,0,0.106,0.002,0.159,0.004l-5.383,3.227
		c-2.751,1.648-4.459,4.664-4.459,7.871c0,0.877,0.123,1.725,0.354,2.527c0.003,0.01,0.006,0.021,0.009,0.03
		c0.002,0.007,0.004,0.015,0.007,0.021c0.032,0.112,0.066,0.224,0.104,0.335h-9.339C16.493,80.693,15.355,79.555,15.355,78.155z
		 M25.938,85.914c0,0.048-0.04,0.088-0.088,0.088h-3.922c-0.048,0-0.088-0.04-0.088-0.088V83.33h4.098V85.914z M85.862,81.922
		c0,1.322-1.075,2.398-2.397,2.398c-30.41,0-47.564,0.001-47.704-0.003c-3.005-0.078-5.512-2.194-6.188-5.014h18.27
		c0.012,0.001,0.023,0.001,0.035,0.001s0.023,0,0.034-0.001h6.311c0.011,0.001,0.022,0.001,0.034,0.001s0.023,0,0.035-0.001h6.218
		c0.012,0.001,0.023,0.001,0.034,0.001c0.012,0,0.023,0,0.035-0.001h6.31c0.012,0.001,0.022,0.001,0.034,0.001s0.023,0,0.035-0.001
		h18.904V81.922z M89.203,71.477h-0.704V60.059c0-2.675-2.177-4.852-4.852-4.852h-0.819c-1.589,0-2.999,1.01-3.511,2.513
		c-1.113,3.273-4.185,5.472-7.642,5.472c-3.387,0-6.436-2.138-7.59-5.32c-0.577-1.594-2.104-2.664-3.799-2.664
		c-2.939,0.075-4.06-0.289-5.696,0.69l-5.577,3.343V40.966l21.104,10.126c0.181,0.086,0.376,0.13,0.57,0.13
		c0.195,0,0.391-0.044,0.57-0.13l21.104-10.126v27.351C92.363,70.059,90.945,71.477,89.203,71.477z"/>
	<path fill="#390064" stroke="#390064" stroke-miterlimit="10" d="M69.313,34.59h-0.886c-0.729,0-1.318,0.59-1.318,1.318
		s0.59,1.318,1.318,1.318h0.278v4.561h-0.16c-0.729,0-1.318,0.59-1.318,1.318s0.59,1.318,1.318,1.318h2.958
		c0.729,0,1.318-0.59,1.318-1.318s-0.59-1.318-1.318-1.318h-0.161V36.62C71.343,35.501,70.433,34.59,69.313,34.59z"/>
</g>
</svg>
