<?xml version="1.0" encoding="utf-8"?>
<!-- Generator: Adobe Illustrator 16.0.0, SVG Export Plug-In . SVG Version: 6.00 Build 0)  -->
<!DOCTYPE svg PUBLIC "-//W3C//DTD SVG 1.1//EN" "http://www.w3.org/Graphics/SVG/1.1/DTD/svg11.dtd">
<svg version="1.1" id="Layer_1" xmlns="http://www.w3.org/2000/svg" xmlns:xlink="http://www.w3.org/1999/xlink" x="0px" y="0px"
	 width="100px" height="100px" viewBox="0 0 100 100" enable-background="new 0 0 100 100" xml:space="preserve">
<g>
	<path fill="#390064" d="M61.055,32.401c-3.736-0.573-17.769-0.525-21.667-0.088c-3.844,0.43-6.394,2.808-6.975,6.62
		c-0.616,4.052-0.492,19.186,0.008,22.215c0.521,3.17,2.322,5.336,5.473,6.217c3.295,0.922,19.15,0.707,22.701,0.318
		c3.867-0.422,6.418-2.805,7.006-6.649c0.596-3.882,0.484-18.001,0.092-21.615C67.271,35.547,64.891,32.99,61.055,32.401z
		 M49.992,61.291c-6.234-0.003-11.286-5.061-11.282-11.292c0.003-6.234,5.06-11.285,11.294-11.282
		c6.232,0.004,11.282,5.059,11.282,11.293C61.283,56.244,56.227,61.294,49.992,61.291z M61.723,40.927
		c-1.455-0.005-2.638-1.191-2.634-2.65c0.003-1.458,1.188-2.639,2.649-2.636c1.457,0.005,2.639,1.19,2.635,2.65
		C64.369,39.75,63.184,40.929,61.723,40.927z"/>
	<circle fill="#390064" cx="49.991" cy="49.997" r="7.299"/>
	<path fill="#390064" d="M71.12,18.02H28.88c-5.971,0-10.86,4.887-10.86,10.861V71.12c0,5.973,4.888,10.86,10.86,10.86h42.24
		c5.976,0,10.86-4.887,10.86-10.86V28.881C81.98,22.908,77.096,18.02,71.12,18.02z M71.352,62.71
		c-1.318,5.008-4.578,7.983-9.646,8.802c-3.828,0.62-20.891,0.737-24.366-0.158c-5.016-1.295-8.007-4.541-8.84-9.602
		c-0.612-3.703-0.821-20.967,0.224-24.712c1.365-4.867,4.596-7.744,9.525-8.547c4.312-0.704,16.599-0.525,21.772-0.244
		c3.039,0.163,5.809,1.117,8.07,3.278c2.154,2.053,3.264,4.617,3.559,7.513C72.003,42.507,72.355,58.865,71.352,62.71z"/>
</g>
</svg>
