<?xml version="1.0" encoding="utf-8"?>
<!-- Generator: Adobe Illustrator 16.0.0, SVG Export Plug-In . SVG Version: 6.00 Build 0)  -->
<!DOCTYPE svg PUBLIC "-//W3C//DTD SVG 1.1//EN" "http://www.w3.org/Graphics/SVG/1.1/DTD/svg11.dtd">
<svg version="1.1" id="Capa_1" xmlns="http://www.w3.org/2000/svg" xmlns:xlink="http://www.w3.org/1999/xlink" x="0px" y="0px"
	 width="100px" height="100px" viewBox="350 250 100 100" enable-background="new 350 250 100 100" xml:space="preserve">
<g>
	<g>
		<g>
			<path fill="#1CB0A9" d="M413.355,312.857c8.513-13.358,7.443-11.692,7.688-12.04c3.1-4.372,4.737-9.517,4.737-14.88
				C425.781,271.716,414.24,260,400,260c-14.194,0-25.781,11.692-25.781,25.938c0,5.359,1.672,10.639,4.874,15.069l7.552,11.851
				c-8.074,1.24-21.8,4.938-21.8,13.08c0,2.968,1.937,7.197,11.166,10.493C382.454,338.732,390.974,340,400,340
				c16.879,0,35.156-4.761,35.156-14.062C435.156,317.794,421.446,314.101,413.355,312.857z M383.008,298.429
				c-0.026-0.04-0.053-0.08-0.081-0.118c-2.664-3.665-4.021-8.007-4.021-12.373c0-11.722,9.438-21.25,21.094-21.25
				c11.631,0,21.094,9.533,21.094,21.25c0,4.373-1.331,8.568-3.851,12.136c-0.227,0.298,0.952-1.532-17.243,27.018L383.008,298.429z
				 M400,335.312c-18.437,0-30.469-5.419-30.469-9.375c0-2.659,6.183-7.03,19.882-8.734l8.61,13.51
				c0.43,0.675,1.176,1.084,1.977,1.084s1.546-0.409,1.977-1.084l8.609-13.51c13.7,1.704,19.883,6.075,19.883,8.734
				C430.469,329.859,418.545,335.312,400,335.312z"/>
		</g>
	</g>
	<g>
		<g>
			<path fill="#1CB0A9" d="M400,274.219c-6.462,0-11.719,5.257-11.719,11.719s5.257,11.719,11.719,11.719
				s11.719-5.257,11.719-11.719S406.462,274.219,400,274.219z M400,292.969c-3.877,0-7.031-3.154-7.031-7.031
				s3.154-7.031,7.031-7.031s7.031,3.154,7.031,7.031S403.877,292.969,400,292.969z"/>
		</g>
	</g>
</g>
</svg>
