<?xml version="1.0" encoding="utf-8"?>
<!-- Generator: Adobe Illustrator 16.0.0, SVG Export Plug-In . SVG Version: 6.00 Build 0)  -->
<!DOCTYPE svg PUBLIC "-//W3C//DTD SVG 1.1//EN" "http://www.w3.org/Graphics/SVG/1.1/DTD/svg11.dtd">
<svg version="1.1" id="Layer_1" xmlns="http://www.w3.org/2000/svg" xmlns:xlink="http://www.w3.org/1999/xlink" x="0px" y="0px"
	 width="550px" height="300px" viewBox="0 0 550 300" enable-background="new 0 0 550 300" xml:space="preserve">
<g>
	<linearGradient id="SVGID_1_" gradientUnits="userSpaceOnUse" x1="398.1738" y1="67.0742" x2="333.5844" y2="154.5933">
		<stop  offset="0.0011" style="stop-color:#34CDB9"/>
		<stop  offset="1" style="stop-color:#1CB0A9"/>
	</linearGradient>
	<circle fill="url(#SVGID_1_)" cx="331.807" cy="157" r="121.75"/>
	<linearGradient id="SVGID_2_" gradientUnits="userSpaceOnUse" x1="515.9858" y1="29.5273" x2="497.9222" y2="54.0037">
		<stop  offset="0.0011" style="stop-color:#34CDB9"/>
		<stop  offset="1" style="stop-color:#1CB0A9"/>
	</linearGradient>
	<circle fill="url(#SVGID_2_)" cx="498.724" cy="52.916" r="31.667"/>
	<g>
		<path fill="#1CB0A9" d="M54.17,171.989c-1.296,2.185-3.217,3.936-5.76,5.256c-2.545,1.32-5.641,1.979-9.288,1.979
			c-3.601,0-6.816-0.612-9.647-1.836c-2.834-1.224-5.102-2.988-6.805-5.292c-1.705-2.304-2.676-4.991-2.916-8.063h10.8
			c0.239,2.064,1.067,3.779,2.484,5.147c1.415,1.368,3.3,2.053,5.651,2.053c2.112,0,3.732-0.564,4.86-1.692
			c1.128-1.127,1.692-2.58,1.692-4.356c0-1.584-0.457-2.891-1.368-3.924c-0.913-1.031-2.064-1.859-3.456-2.483
			c-1.393-0.624-3.312-1.344-5.76-2.16c-3.168-1.056-5.76-2.1-7.776-3.132s-3.732-2.531-5.147-4.5
			c-1.417-1.968-2.125-4.536-2.125-7.704c0-4.367,1.572-7.812,4.717-10.332c3.143-2.521,7.308-3.78,12.492-3.78
			c5.375,0,9.658,1.296,12.852,3.888c3.191,2.593,5.004,6.048,5.436,10.368H44.162c-0.288-1.823-1.057-3.323-2.305-4.5
			c-1.248-1.176-2.951-1.764-5.111-1.764c-1.872,0-3.385,0.492-4.536,1.476c-1.151,0.984-1.728,2.412-1.728,4.284
			c0,1.488,0.443,2.725,1.332,3.708c0.887,0.984,2.016,1.789,3.383,2.412c1.369,0.624,3.229,1.32,5.58,2.088
			c3.264,1.152,5.916,2.232,7.957,3.24c2.039,1.008,3.779,2.52,5.22,4.536c1.44,2.016,2.159,4.656,2.159,7.92
			C56.113,167.417,55.466,169.806,54.17,171.989z"/>
		<path fill="#1CB0A9" d="M99.098,142.793c2.736,3.024,4.104,7.272,4.104,12.744v23.184h-10.08v-22.032
			c0-3.168-0.816-5.627-2.447-7.38c-1.633-1.751-3.865-2.628-6.696-2.628c-2.88,0-5.185,0.937-6.912,2.809s-2.593,4.561-2.593,8.063
			v21.168H64.321v-53.279h10.151v21.384c1.057-2.688,2.797-4.788,5.221-6.3c2.424-1.513,5.221-2.269,8.389-2.269
			C92.689,138.257,96.361,139.769,99.098,142.793z"/>
		<path fill="#1CB0A9" d="M151.008,138.833v39.888h-10.151v-8.063c-1.057,2.688-2.797,4.787-5.22,6.3
			c-2.425,1.512-5.221,2.268-8.389,2.268c-4.607,0-8.279-1.512-11.016-4.536c-2.736-3.023-4.104-7.247-4.104-12.672v-23.184h10.079
			v22.032c0,3.168,0.815,5.628,2.448,7.38c1.631,1.753,3.84,2.628,6.624,2.628c2.927,0,5.256-0.937,6.983-2.808
			c1.729-1.872,2.593-4.561,2.593-8.064v-21.168H151.008z"/>
		<path fill="#1CB0A9" d="M185.207,140.381c2.207,1.321,3.912,3.181,5.112,5.58v-7.128h10.08v58.896h-10.08v-26.712
			c-1.296,2.593-3.036,4.597-5.22,6.012c-2.186,1.417-4.788,2.124-7.812,2.124c-3.408,0-6.504-0.839-9.287-2.52
			c-2.785-1.68-4.993-4.056-6.625-7.128c-1.632-3.071-2.447-6.6-2.447-10.584c0-4.032,0.815-7.596,2.447-10.692
			c1.632-3.096,3.84-5.508,6.625-7.235c2.783-1.729,5.879-2.592,9.287-2.592C180.359,138.401,182.999,139.062,185.207,140.381z
			 M172.211,150.317c-1.992,2.04-2.987,4.908-2.987,8.604c0,3.697,0.995,6.516,2.987,8.46s4.5,2.916,7.524,2.916
			c1.872,0,3.624-0.443,5.256-1.332c1.632-0.888,2.927-2.196,3.888-3.924c0.96-1.729,1.44-3.816,1.44-6.264
			c0-2.448-0.48-4.536-1.44-6.265c-0.961-1.728-2.244-3.035-3.852-3.924c-1.609-0.888-3.373-1.332-5.292-1.332
			C176.711,147.257,174.203,148.277,172.211,150.317z"/>
		<path fill="#FFFFFF" d="M236.902,135.953v13.176h18v7.776h-18v13.68h20.16v8.136H226.75v-50.832h30.312v8.064H236.902z"/>
		<path fill="#FFFFFF" d="M289.533,140.705c2.4,1.584,4.104,3.721,5.112,6.408v-8.28h10.081v39.888h-10.081v-8.352
			c-1.008,2.688-2.712,4.836-5.112,6.443c-2.4,1.609-5.28,2.412-8.64,2.412c-3.36,0-6.384-0.815-9.071-2.448
			c-2.689-1.631-4.789-3.995-6.301-7.092c-1.512-3.096-2.268-6.731-2.268-10.907c0-4.177,0.756-7.812,2.268-10.908
			c1.512-3.097,3.611-5.46,6.301-7.092c2.688-1.632,5.711-2.448,9.071-2.448C284.253,138.329,287.133,139.121,289.533,140.705z
			 M276.43,150.281c-1.92,2.064-2.88,4.896-2.88,8.496c0,3.6,0.96,6.42,2.88,8.46c1.919,2.04,4.464,3.06,7.632,3.06
			c3.071,0,5.604-1.044,7.597-3.132c1.99-2.088,2.987-4.884,2.987-8.388c0-3.552-0.997-6.372-2.987-8.46
			c-1.993-2.089-4.525-3.133-7.597-3.133C280.894,147.185,278.349,148.218,276.43,150.281z"/>
		<path fill="#FFFFFF" d="M335.973,170.009v8.712h-5.328c-4.463,0-7.883-1.08-10.26-3.24c-2.375-2.159-3.564-5.76-3.564-10.8
			v-17.279h-5.543v-8.568h5.543v-9.864h10.152v9.864h8.928v8.568h-8.928v17.424c0,1.92,0.385,3.265,1.152,4.032
			s2.062,1.151,3.889,1.151H335.973z"/>
		<path fill="#FFFFFF" d="M369.381,142.001c2.926,2.448,4.752,5.713,5.471,9.792h-9.504c-0.385-1.919-1.248-3.456-2.592-4.608
			c-1.344-1.151-3.096-1.728-5.256-1.728c-1.729,0-3.072,0.408-4.031,1.224c-0.961,0.817-1.441,1.921-1.441,3.312
			c0,1.104,0.385,1.992,1.152,2.664c0.768,0.673,1.729,1.2,2.881,1.584c1.152,0.385,2.807,0.84,4.967,1.368
			c3.025,0.672,5.484,1.38,7.381,2.124c1.895,0.744,3.527,1.92,4.896,3.527c1.367,1.609,2.051,3.78,2.051,6.517
			c0,3.408-1.332,6.168-3.996,8.279c-2.664,2.113-6.252,3.168-10.764,3.168c-5.184,0-9.336-1.163-12.455-3.492
			c-3.121-2.327-5.018-5.651-5.689-9.972h9.721c0.24,1.969,1.104,3.517,2.592,4.645s3.432,1.691,5.832,1.691
			c1.729,0,3.049-0.419,3.961-1.26c0.91-0.839,1.367-1.932,1.367-3.276c0-1.151-0.396-2.088-1.188-2.808
			c-0.793-0.72-1.777-1.271-2.953-1.656c-1.176-0.384-2.844-0.839-5.004-1.368c-2.977-0.671-5.389-1.355-7.234-2.052
			c-1.85-0.695-3.434-1.812-4.754-3.348s-1.979-3.647-1.979-6.336c0-3.456,1.318-6.265,3.959-8.424
			c2.641-2.16,6.289-3.24,10.945-3.24C362.564,138.329,366.451,139.553,369.381,142.001z"/>
	</g>
</g>
</svg>
