<?xml version="1.0" encoding="utf-8"?>
<!-- Generator: Adobe Illustrator 16.0.0, SVG Export Plug-In . SVG Version: 6.00 Build 0)  -->
<!DOCTYPE svg PUBLIC "-//W3C//DTD SVG 1.1//EN" "http://www.w3.org/Graphics/SVG/1.1/DTD/svg11.dtd">
<svg version="1.1" id="Layer_1" xmlns="http://www.w3.org/2000/svg" xmlns:xlink="http://www.w3.org/1999/xlink" x="0px" y="0px"
	 width="550px" height="300px" viewBox="0 0 550 300" enable-background="new 0 0 550 300" xml:space="preserve">
<g>
	<linearGradient id="SVGID_1_" gradientUnits="userSpaceOnUse" x1="398.1743" y1="67.0742" x2="329.6835" y2="159.8796">
		<stop  offset="0" style="stop-color:#BD30F0"/>
		<stop  offset="1" style="stop-color:#9809CB"/>
	</linearGradient>
	<circle fill="url(#SVGID_1_)" cx="331.807" cy="157" r="121.75"/>
	<linearGradient id="SVGID_2_" gradientUnits="userSpaceOnUse" x1="515.9858" y1="29.5273" x2="499.1311" y2="52.3656">
		<stop  offset="0" style="stop-color:#BD30F0"/>
		<stop  offset="1" style="stop-color:#9809CB"/>
	</linearGradient>
	<circle fill="url(#SVGID_2_)" cx="498.724" cy="52.916" r="31.667"/>
	<g>
		<path fill="#9809CB" d="M54.17,171.989c-1.296,2.185-3.216,3.936-5.76,5.256c-2.545,1.32-5.641,1.979-9.288,1.979
			c-3.6,0-6.816-0.612-9.648-1.836c-2.833-1.224-5.101-2.988-6.804-5.292c-1.705-2.304-2.676-4.991-2.916-8.063h10.8
			c0.24,2.064,1.068,3.779,2.484,5.147c1.415,1.368,3.299,2.053,5.652,2.053c2.112,0,3.731-0.564,4.86-1.692
			c1.127-1.127,1.692-2.58,1.692-4.356c0-1.584-0.457-2.891-1.368-3.924c-0.913-1.031-2.064-1.859-3.456-2.483
			c-1.393-0.624-3.312-1.344-5.76-2.16c-3.168-1.056-5.76-2.1-7.776-3.132s-3.732-2.531-5.148-4.5
			c-1.417-1.968-2.124-4.536-2.124-7.704c0-4.367,1.572-7.812,4.716-10.332c3.143-2.521,7.308-3.78,12.492-3.78
			c5.375,0,9.659,1.296,12.852,3.888c3.191,2.593,5.004,6.048,5.436,10.368H44.162c-0.288-1.823-1.057-3.323-2.304-4.5
			c-1.249-1.176-2.952-1.764-5.112-1.764c-1.872,0-3.384,0.492-4.536,1.476c-1.152,0.984-1.728,2.412-1.728,4.284
			c0,1.488,0.443,2.725,1.332,3.708c0.888,0.984,2.016,1.789,3.384,2.412c1.368,0.624,3.228,1.32,5.58,2.088
			c3.264,1.152,5.916,2.232,7.956,3.24c2.04,1.008,3.78,2.52,5.22,4.536c1.44,2.016,2.16,4.656,2.16,7.92
			C56.114,167.417,55.466,169.806,54.17,171.989z"/>
		<path fill="#9809CB" d="M99.097,142.793c2.736,3.024,4.104,7.272,4.104,12.744v23.184h-10.08v-22.032
			c0-3.168-0.817-5.627-2.448-7.38c-1.632-1.751-3.864-2.628-6.696-2.628c-2.88,0-5.184,0.937-6.912,2.809s-2.592,4.561-2.592,8.063
			v21.168H64.321v-53.279h10.152v21.384c1.056-2.688,2.796-4.788,5.22-6.3c2.423-1.513,5.22-2.269,8.388-2.269
			C92.689,138.257,96.361,139.769,99.097,142.793z"/>
		<path fill="#9809CB" d="M151.008,138.833v39.888h-10.152v-8.063c-1.057,2.688-2.797,4.787-5.22,6.3
			c-2.424,1.512-5.22,2.268-8.388,2.268c-4.608,0-8.28-1.512-11.016-4.536c-2.736-3.023-4.104-7.247-4.104-12.672v-23.184h10.08
			v22.032c0,3.168,0.816,5.628,2.448,7.38c1.631,1.753,3.84,2.628,6.624,2.628c2.927,0,5.256-0.937,6.984-2.808
			c1.728-1.872,2.592-4.561,2.592-8.064v-21.168H151.008z"/>
		<path fill="#9809CB" d="M185.208,140.381c2.207,1.321,3.912,3.181,5.112,5.58v-7.128h10.08v58.896h-10.08v-26.712
			c-1.296,2.593-3.036,4.597-5.22,6.012c-2.185,1.417-4.788,2.124-7.812,2.124c-3.409,0-6.505-0.839-9.288-2.52
			c-2.785-1.68-4.993-4.056-6.624-7.128c-1.632-3.071-2.448-6.6-2.448-10.584c0-4.032,0.816-7.596,2.448-10.692
			c1.631-3.096,3.839-5.508,6.624-7.235c2.783-1.729,5.879-2.592,9.288-2.592C180.359,138.401,182.999,139.062,185.208,140.381z
			 M172.211,150.317c-1.992,2.04-2.988,4.908-2.988,8.604c0,3.697,0.996,6.516,2.988,8.46c1.991,1.944,4.5,2.916,7.524,2.916
			c1.872,0,3.624-0.443,5.256-1.332c1.631-0.888,2.927-2.196,3.888-3.924c0.959-1.729,1.44-3.816,1.44-6.264
			c0-2.448-0.48-4.536-1.44-6.265c-0.961-1.728-2.244-3.035-3.852-3.924c-1.609-0.888-3.373-1.332-5.292-1.332
			C176.711,147.257,174.203,148.277,172.211,150.317z"/>
		<path fill="#FFFFFF" d="M281.542,128.465v50.256h-10.08v-35.063l-12.888,35.063h-8.784l-12.888-34.92v34.92H226.75v-50.256h12.312
			l15.264,37.8l14.976-37.8H281.542z"/>
		<path fill="#FFFFFF" d="M315.742,140.705c2.398,1.584,4.104,3.721,5.111,6.408v-8.28h10.08v39.888h-10.08v-8.352
			c-1.008,2.688-2.713,4.836-5.111,6.443c-2.4,1.609-5.281,2.412-8.641,2.412s-6.385-0.815-9.072-2.448
			c-2.688-1.631-4.787-3.995-6.3-7.092c-1.512-3.096-2.269-6.731-2.269-10.907c0-4.177,0.757-7.812,2.269-10.908
			c1.513-3.097,3.611-5.46,6.3-7.092c2.688-1.632,5.713-2.448,9.072-2.448S313.342,139.121,315.742,140.705z M302.638,150.281
			c-1.921,2.064-2.88,4.896-2.88,8.496c0,3.6,0.959,6.42,2.88,8.46c1.919,2.04,4.464,3.06,7.632,3.06
			c3.072,0,5.604-1.044,7.596-3.132s2.988-4.884,2.988-8.388c0-3.552-0.996-6.372-2.988-8.46c-1.992-2.089-4.523-3.133-7.596-3.133
			C307.102,147.185,304.557,148.218,302.638,150.281z"/>
		<path fill="#FFFFFF" d="M356.926,140.453c2.447-1.464,5.184-2.196,8.207-2.196v10.872h-2.951c-7.441,0-11.16,3.456-11.16,10.368
			v19.224h-10.152v-39.888h10.152v7.632C352.508,143.921,354.477,141.918,356.926,140.453z"/>
		<path fill="#FFFFFF" d="M392.781,170.009v8.712h-5.328c-4.465,0-7.885-1.08-10.26-3.24c-2.377-2.159-3.564-5.76-3.564-10.8
			v-17.279h-5.545v-8.568h5.545v-9.864h10.152v9.864h8.928v8.568h-8.928v17.424c0,1.92,0.383,3.265,1.152,4.032
			c0.766,0.768,2.062,1.151,3.887,1.151H392.781z"/>
	</g>
</g>
</svg>
