<?xml version="1.0" encoding="utf-8"?>
<svg viewBox="207 32 250 250" xmlns="http://www.w3.org/2000/svg">
  <g>
    <linearGradient id="SVGID_1_" gradientUnits="userSpaceOnUse" x1="398.1738" y1="67.0742" x2="333.5844" y2="154.5933">
      <stop offset="0.0011" style="stop-color:#34CDB9"/>
      <stop offset="1" style="stop-color:#1CB0A9"/>
    </linearGradient>
    <circle fill="url(#SVGID_1_)" cx="331.807" cy="157" r="121.75"/>
    <linearGradient id="SVGID_2_" gradientUnits="userSpaceOnUse" x1="515.9858" y1="29.5273" x2="497.9222" y2="54.0037">
      <stop offset="0.0011" style="stop-color:#34CDB9"/>
      <stop offset="1" style="stop-color:#1CB0A9"/>
    </linearGradient>
    <circle fill="url(#SVGID_2_)" cx="498.724" cy="52.916" r="0"/>
    <g>
      <path fill="#FFFFFF" d="M236.902,135.953v13.176h18v7.776h-18v13.68h20.16v8.136H226.75v-50.832h30.312v8.064H236.902z"/>
      <path fill="#FFFFFF" d="M289.533,140.705c2.4,1.584,4.104,3.721,5.112,6.408v-8.28h10.081v39.888h-10.081v-8.352 c-1.008,2.688-2.712,4.836-5.112,6.443c-2.4,1.609-5.28,2.412-8.64,2.412c-3.36,0-6.384-0.815-9.071-2.448 c-2.689-1.631-4.789-3.995-6.301-7.092c-1.512-3.096-2.268-6.731-2.268-10.907c0-4.177,0.756-7.812,2.268-10.908 c1.512-3.097,3.611-5.46,6.301-7.092c2.688-1.632,5.711-2.448,9.071-2.448C284.253,138.329,287.133,139.121,289.533,140.705z M276.43,150.281c-1.92,2.064-2.88,4.896-2.88,8.496c0,3.6,0.96,6.42,2.88,8.46c1.919,2.04,4.464,3.06,7.632,3.06 c3.071,0,5.604-1.044,7.597-3.132c1.99-2.088,2.987-4.884,2.987-8.388c0-3.552-0.997-6.372-2.987-8.46 c-1.993-2.089-4.525-3.133-7.597-3.133C280.894,147.185,278.349,148.218,276.43,150.281z"/>
      <path fill="#FFFFFF" d="M335.973,170.009v8.712h-5.328c-4.463,0-7.883-1.08-10.26-3.24c-2.375-2.159-3.564-5.76-3.564-10.8 v-17.279h-5.543v-8.568h5.543v-9.864h10.152v9.864h8.928v8.568h-8.928v17.424c0,1.92,0.385,3.265,1.152,4.032 s2.062,1.151,3.889,1.151H335.973z"/>
      <path fill="#FFFFFF" d="M369.381,142.001c2.926,2.448,4.752,5.713,5.471,9.792h-9.504c-0.385-1.919-1.248-3.456-2.592-4.608 c-1.344-1.151-3.096-1.728-5.256-1.728c-1.729,0-3.072,0.408-4.031,1.224c-0.961,0.817-1.441,1.921-1.441,3.312 c0,1.104,0.385,1.992,1.152,2.664c0.768,0.673,1.729,1.2,2.881,1.584c1.152,0.385,2.807,0.84,4.967,1.368 c3.025,0.672,5.484,1.38,7.381,2.124c1.895,0.744,3.527,1.92,4.896,3.527c1.367,1.609,2.051,3.78,2.051,6.517 c0,3.408-1.332,6.168-3.996,8.279c-2.664,2.113-6.252,3.168-10.764,3.168c-5.184,0-9.336-1.163-12.455-3.492 c-3.121-2.327-5.018-5.651-5.689-9.972h9.721c0.24,1.969,1.104,3.517,2.592,4.645s3.432,1.691,5.832,1.691 c1.729,0,3.049-0.419,3.961-1.26c0.91-0.839,1.367-1.932,1.367-3.276c0-1.151-0.396-2.088-1.188-2.808 c-0.793-0.72-1.777-1.271-2.953-1.656c-1.176-0.384-2.844-0.839-5.004-1.368c-2.977-0.671-5.389-1.355-7.234-2.052 c-1.85-0.695-3.434-1.812-4.754-3.348s-1.979-3.647-1.979-6.336c0-3.456,1.318-6.265,3.959-8.424 c2.641-2.16,6.289-3.24,10.945-3.24C362.564,138.329,366.451,139.553,369.381,142.001z"/>
    </g>
  </g>
</svg>