<?xml version="1.0" encoding="utf-8"?>
<svg viewBox="207 32 250 250" xmlns="http://www.w3.org/2000/svg">
  <g>
    <linearGradient id="SVGID_1_" gradientUnits="userSpaceOnUse" x1="398.1743" y1="67.0742" x2="329.6835" y2="159.8796">
      <stop offset="0" style="stop-color:#BD30F0"/>
      <stop offset="1" style="stop-color:#9809CB"/>
    </linearGradient>
    <circle fill="url(#SVGID_1_)" cx="331.807" cy="157" r="121.75"/>
    <g>
      <path fill="#FFFFFF" d="M281.542,128.465v50.256h-10.08v-35.063l-12.888,35.063h-8.784l-12.888-34.92v34.92H226.75v-50.256h12.312 l15.264,37.8l14.976-37.8H281.542z"/>
      <path fill="#FFFFFF" d="M315.742,140.705c2.398,1.584,4.104,3.721,5.111,6.408v-8.28h10.08v39.888h-10.08v-8.352 c-1.008,2.688-2.713,4.836-5.111,6.443c-2.4,1.609-5.281,2.412-8.641,2.412s-6.385-0.815-9.072-2.448 c-2.688-1.631-4.787-3.995-6.3-7.092c-1.512-3.096-2.269-6.731-2.269-10.907c0-4.177,0.757-7.812,2.269-10.908 c1.513-3.097,3.611-5.46,6.3-7.092c2.688-1.632,5.713-2.448,9.072-2.448S313.342,139.121,315.742,140.705z M302.638,150.281 c-1.921,2.064-2.88,4.896-2.88,8.496c0,3.6,0.959,6.42,2.88,8.46c1.919,2.04,4.464,3.06,7.632,3.06 c3.072,0,5.604-1.044,7.596-3.132s2.988-4.884,2.988-8.388c0-3.552-0.996-6.372-2.988-8.46c-1.992-2.089-4.523-3.133-7.596-3.133 C307.102,147.185,304.557,148.218,302.638,150.281z"/>
      <path fill="#FFFFFF" d="M356.926,140.453c2.447-1.464,5.184-2.196,8.207-2.196v10.872h-2.951c-7.441,0-11.16,3.456-11.16,10.368 v19.224h-10.152v-39.888h10.152v7.632C352.508,143.921,354.477,141.918,356.926,140.453z"/>
      <path fill="#FFFFFF" d="M392.781,170.009v8.712h-5.328c-4.465,0-7.885-1.08-10.26-3.24c-2.377-2.159-3.564-5.76-3.564-10.8 v-17.279h-5.545v-8.568h5.545v-9.864h10.152v9.864h8.928v8.568h-8.928v17.424c0,1.92,0.383,3.265,1.152,4.032 c0.766,0.768,2.062,1.151,3.887,1.151H392.781z"/>
    </g>
  </g>
</svg>